<svg xmlns="http://www.w3.org/2000/svg" width="357.447" height="356.733" viewBox="0 0 357.447 356.733"><defs><style>.a{fill:#1a2a3a;}.b{fill:#00ccd1;}.c{fill:#f4455a;}.d{fill:#ef0b1e;}.e{fill:#0aa5a5;}</style></defs><path class="a" d="M371.347,1371.347h-53.51A17.837,17.837,0,0,1,300,1353.51V1300h53.51a17.837,17.837,0,0,1,17.837,17.837Z" transform="translate(-227.94 -1228.653)"/><path class="a" d="M571.347,1300h-53.51A17.837,17.837,0,0,0,500,1317.837v53.51h53.51a17.837,17.837,0,0,0,17.837-17.837Z" transform="translate(-285.247 -1228.653)"/><path class="a" d="M300,1571.347h53.51a17.837,17.837,0,0,0,17.837-17.837V1500h-53.51A17.837,17.837,0,0,0,300,1517.837Z" transform="translate(-227.94 -1285.96)"/><path class="a" d="M500,1500h53.51a17.837,17.837,0,0,1,17.837,17.837v53.51h-53.51A17.837,17.837,0,0,1,500,1553.51Z" transform="translate(-285.247 -1285.96)"/><path class="b" d="M271.347,1271.347h-53.51A17.837,17.837,0,0,1,200,1253.51V1200h53.51a17.837,17.837,0,0,1,17.837,17.837Z" transform="translate(-199.287 -1200)"/><path class="b" d="M671.347,1200h-53.51A17.837,17.837,0,0,0,600,1217.837v53.51h53.51a17.837,17.837,0,0,0,17.837-17.837Z" transform="translate(-313.9 -1200)"/><path class="b" d="M199,1671.347h53.51a17.837,17.837,0,0,0,17.837-17.837V1600h-53.51A17.837,17.837,0,0,0,199,1617.837Z" transform="translate(-199 -1314.613)"/><path class="b" d="M599,1600h53.51a17.837,17.837,0,0,1,17.837,17.837v53.51h-53.51A17.837,17.837,0,0,1,599,1653.51Z" transform="translate(-313.613 -1314.613)"/><path class="c" d="M471.347,1435.7a35.673,35.673,0,1,1-35.673-35.673,35.673,35.673,0,0,1,35.673,35.673" transform="translate(-256.593 -1257.313)"/><path class="d" d="M460.673,1442.86a17.837,17.837,0,1,1-17.837-17.837,17.837,17.837,0,0,1,17.837,17.837" transform="translate(-263.757 -1264.477)"/><path class="e" d="M285.906,1399.929h0v71.38a35.657,35.657,0,0,1-35.657-35.657v-.066a35.657,35.657,0,0,1,35.657-35.657" transform="translate(-213.685 -1257.286)"/><path class="e" d="M600.249,1399.929h0v71.38a35.657,35.657,0,0,0,35.657-35.657v-.066a35.657,35.657,0,0,0-35.657-35.657" transform="translate(-313.971 -1257.286)"/><path class="e" d="M400.214,1285.621h71.38a35.657,35.657,0,0,0-35.657-35.657h-.066a35.657,35.657,0,0,0-35.657,35.657" transform="translate(-256.655 -1214.316)"/><path class="e" d="M400.214,1599.964h71.38a35.657,35.657,0,0,1-35.657,35.657h-.066a35.657,35.657,0,0,1-35.657-35.657" transform="translate(-256.655 -1314.603)"/></svg>