<svg xmlns="http://www.w3.org/2000/svg" width="486" height="343" viewBox="0 0 486 343"><defs><style>.a{fill:#00ccd1;}.b{fill:#0aa5a5;}.c{fill:#1a2a3a;}.d{fill:#f4455a;}</style></defs><g transform="translate(-0.201 -0.034)"><rect class="a" width="50" height="49" transform="translate(48.201 196.034)"/><rect class="b" width="47" height="48" transform="translate(98.201 245.034)"/><rect class="c" width="48" height="50" transform="translate(145.201 293.034)"/><rect class="c" width="48" height="49" transform="translate(145.201 2.034)"/><rect class="b" width="47" height="50" transform="translate(98.201 51.034)"/><rect class="a" width="50" height="48" transform="translate(48.201 101.034)"/><rect class="d" width="48" height="47" transform="translate(0.201 149.034)"/><rect class="a" width="50" height="49" transform="translate(438.201 245.034) rotate(-180)"/><rect class="b" width="46" height="48" transform="translate(388.201 293.034) rotate(-180)"/><rect class="c" width="51" height="50" transform="translate(342.201 343.034) rotate(-180)"/><rect class="c" width="51" height="51" transform="translate(342.201 51.034) rotate(-180)"/><rect class="b" width="46" height="50" transform="translate(388.201 101.034) rotate(-180)"/><rect class="a" width="50" height="48" transform="translate(438.201 149.034) rotate(-180)"/><rect class="d" width="48" height="47" transform="translate(486.201 196.034) rotate(-180)"/></g></svg>