<svg xmlns="http://www.w3.org/2000/svg" width="64.469" height="895.223" viewBox="0 0 64.469 895.223"><defs><style>.a,.b,.d,.g{fill:#eeeff1;}.b{stroke:#fff;stroke-width:10px;}.c,.f{fill:none;}.e,.g,.h{stroke:none;}.h{fill:#fff;}</style></defs><g transform="translate(-927.766 -1274.229)"><rect class="a" width="8" height="865" transform="translate(956 1304)"/><g class="b" transform="translate(938.22 1284.683)"><circle class="e" cx="21.78" cy="21.78" r="21.78"/><circle class="f" cx="21.78" cy="21.78" r="26.78"/></g><g class="c" transform="translate(927.766 1274.229)"><path class="e" d="M32.234,0A32.234,32.234,0,1,1,0,32.234,32.234,32.234,0,0,1,32.234,0Z"/><path class="g" d="M 32.23431396484375 6 C 17.76867294311523 6 6 17.76867294311523 6 32.23431396484375 C 6 46.69995880126953 17.76867294311523 58.4686279296875 32.23431396484375 58.4686279296875 C 46.69995880126953 58.4686279296875 58.4686279296875 46.69995880126953 58.4686279296875 32.23431396484375 C 58.4686279296875 17.76867294311523 46.69995880126953 6 32.23431396484375 6 M 32.23431396484375 0 C 50.03682708740234 0 64.4686279296875 14.43180084228516 64.4686279296875 32.23431396484375 C 64.4686279296875 50.03682708740234 50.03682708740234 64.4686279296875 32.23431396484375 64.4686279296875 C 14.43180084228516 64.4686279296875 0 50.03682708740234 0 32.23431396484375 C 0 14.43180084228516 14.43180084228516 0 32.23431396484375 0 Z"/></g><g transform="translate(690.16 646)"><g class="b" transform="translate(248.061 1469.438)"><circle class="e" cx="21.78" cy="21.78" r="21.78"/><circle class="f" cx="21.78" cy="21.78" r="26.78"/></g><g class="c" transform="translate(237.606 1458.983)"><path class="e" d="M32.234,0A32.234,32.234,0,1,1,0,32.234,32.234,32.234,0,0,1,32.234,0Z"/><path class="g" d="M 32.23431396484375 6 C 17.76867294311523 6 6 17.76867294311523 6 32.23431396484375 C 6 46.69995880126953 17.76867294311523 58.4686279296875 32.23431396484375 58.4686279296875 C 46.69995880126953 58.4686279296875 58.4686279296875 46.69995880126953 58.4686279296875 32.23431396484375 C 58.4686279296875 17.76867294311523 46.69995880126953 6 32.23431396484375 6 M 32.23431396484375 0 C 50.03682708740234 0 64.4686279296875 14.43180084228516 64.4686279296875 32.23431396484375 C 64.4686279296875 50.03682708740234 50.03682708740234 64.4686279296875 32.23431396484375 64.4686279296875 C 14.43180084228516 64.4686279296875 0 50.03682708740234 0 32.23431396484375 C 0 14.43180084228516 14.43180084228516 0 32.23431396484375 0 Z"/></g></g><g transform="translate(690.16 80)"><g class="d" transform="translate(248.061 1620.061)"><path class="e" d="M 21.77979469299316 48.55959320068359 C 18.16674995422363 48.55959320068359 14.65912818908691 47.85084915161133 11.35436153411865 46.45304870605469 C 8.164838790893555 45.10399627685547 5.301416873931885 43.17375946044922 2.8436279296875 40.71597290039063 C 0.3858280181884766 38.25817108154297 -1.544405341148376 35.39474868774414 -2.893449783325195 32.20522689819336 C -4.291249752044678 28.90046119689941 -4.999994277954102 25.3928394317627 -4.999994277954102 21.77979469299316 C -4.999994277954102 18.16674995422363 -4.291249752044678 14.65912818908691 -2.893449783325195 11.35436153411865 C -1.544405341148376 8.164838790893555 0.3858280181884766 5.301416873931885 2.8436279296875 2.8436279296875 C 5.301416873931885 0.3858280181884766 8.164838790893555 -1.544405341148376 11.35436153411865 -2.893449783325195 C 14.65912818908691 -4.291249752044678 18.16674995422363 -4.999994277954102 21.77979469299316 -4.999994277954102 C 25.3928394317627 -4.999994277954102 28.90046119689941 -4.291249752044678 32.20522689819336 -2.893449783325195 C 35.39474868774414 -1.544405341148376 38.25817108154297 0.3858280181884766 40.71597290039063 2.8436279296875 C 43.17375946044922 5.301416873931885 45.10399627685547 8.164838790893555 46.45304870605469 11.35436153411865 C 47.85084915161133 14.65912818908691 48.55959320068359 18.16674995422363 48.55959320068359 21.77979469299316 C 48.55959320068359 25.3928394317627 47.85084915161133 28.90046119689941 46.45304870605469 32.20523834228516 C 45.10399627685547 35.39474868774414 43.17375946044922 38.25817108154297 40.71597290039063 40.71597290039063 C 38.25817108154297 43.17375946044922 35.39474868774414 45.10399627685547 32.20523834228516 46.45304870605469 C 28.90046119689941 47.85084915161133 25.3928394317627 48.55959320068359 21.77979469299316 48.55959320068359 Z"/><path class="h" d="M 21.77979469299316 -3.814697265625e-06 C 9.751148223876953 -3.814697265625e-06 -3.814697265625e-06 9.751148223876953 -3.814697265625e-06 21.77979469299316 C -3.814697265625e-06 33.80844116210938 9.751148223876953 43.55959320068359 21.77979469299316 43.55959320068359 C 33.80844116210938 43.55959320068359 43.55959320068359 33.80844116210938 43.55959320068359 21.77979469299316 C 43.55959320068359 9.751148223876953 33.80844116210938 -3.814697265625e-06 21.77979469299316 -3.814697265625e-06 M 21.77979469299316 -10.00000381469727 C 39.30324172973633 -10.00000381469727 53.55959320068359 4.25634765625 53.55959320068359 21.77979469299316 C 53.55959320068359 39.30324172973633 39.30324172973633 53.55959320068359 21.77979469299316 53.55959320068359 C 4.25634765625 53.55959320068359 -10.00000381469727 39.30324172973633 -10.00000381469727 21.77979469299316 C -10.00000381469727 4.25634765625 4.25634765625 -10.00000381469727 21.77979469299316 -10.00000381469727 Z"/></g><g class="c" transform="translate(237.606 1609.606)"><path class="e" d="M32.234,0A32.234,32.234,0,1,1,0,32.234,32.234,32.234,0,0,1,32.234,0Z"/><path class="g" d="M 32.23431396484375 6 C 17.76867294311523 6 6 17.76867294311523 6 32.23431396484375 C 6 46.69995880126953 17.76867294311523 58.4686279296875 32.23431396484375 58.4686279296875 C 46.69995880126953 58.4686279296875 58.4686279296875 46.69995880126953 58.4686279296875 32.23431396484375 C 58.4686279296875 17.76867294311523 46.69995880126953 6 32.23431396484375 6 M 32.23431396484375 0 C 50.03682708740234 0 64.4686279296875 14.43180084228516 64.4686279296875 32.23431396484375 C 64.4686279296875 50.03682708740234 50.03682708740234 64.4686279296875 32.23431396484375 64.4686279296875 C 14.43180084228516 64.4686279296875 0 50.03682708740234 0 32.23431396484375 C 0 14.43180084228516 14.43180084228516 0 32.23431396484375 0 Z"/></g></g></g></svg>