<svg xmlns="http://www.w3.org/2000/svg" width="312.612" height="312.613" viewBox="0 0 312.612 312.613"><defs><style>.a{fill:#f4455a;}.b{fill:#00ccd1;}.c{fill:#1a2a3a;}.d{fill:#0aa5a5;}.e{fill:#294760;}.f{fill:#ef0b1e;}.g{fill:#eeeff1;}</style></defs><g transform="translate(-262.538 -300)"><path class="a" d="M731.261,931.261h31.261V900H731.261ZM700,993.784h31.261V962.523H700Zm0,31.261h31.261V993.784H700Zm93.784-31.261h31.261V962.523H793.784Zm0,31.261h31.261V993.784H793.784Zm-31.261-93.784h31.261V900H762.523Z" transform="translate(-343.678 -412.432)"/><rect class="b" width="31.261" height="50.018" transform="translate(356.322 362.522)"/><rect class="b" width="31.261" height="50.018" transform="translate(450.106 362.522)"/><rect class="c" width="31.275" height="156.016" transform="translate(293.793 362.813)"/><rect class="c" width="31.275" height="159.142" transform="translate(512.621 359.687)"/><rect class="d" width="187.88" height="31.261" transform="translate(324.748 331.239)"/><path class="c" d="M431.261,731.261H407.815A7.815,7.815,0,0,1,400,723.446V700h23.446a7.815,7.815,0,0,1,7.815,7.815Z" transform="translate(-137.462 -274.955)"/><path class="c" d="M1331.261,700h-23.446a7.815,7.815,0,0,0-7.815,7.815v23.446h23.446a7.815,7.815,0,0,0,7.815-7.815Z" transform="translate(-756.11 -274.955)"/><path class="a" d="M731.261,900v31.261A31.261,31.261,0,0,1,700,900Z" transform="translate(-343.678 -412.432)"/><path class="a" d="M1000,900v31.261A31.261,31.261,0,0,0,1031.261,900Z" transform="translate(-549.894 -412.432)"/><path class="d" d="M700.023,650.046h31.261a15.616,15.616,0,0,1-15.616,15.616h-.029a15.616,15.616,0,0,1-15.616-15.616" transform="translate(-343.694 -240.617)"/><path class="e" d="M731.284,615.662H700.023a15.616,15.616,0,0,1,15.616-15.616h.029a15.616,15.616,0,0,1,15.616,15.616" transform="translate(-343.694 -206.248)"/><path class="d" d="M1000.023,650.046h31.261a15.616,15.616,0,0,1-15.616,15.616h-.029a15.616,15.616,0,0,1-15.616-15.616" transform="translate(-549.91 -240.617)"/><path class="e" d="M1031.284,615.662h-31.261a15.616,15.616,0,0,1,15.616-15.616h.029a15.616,15.616,0,0,1,15.616,15.616" transform="translate(-549.91 -206.248)"/><path class="a" d="M881.261,715.654a15.631,15.631,0,1,1-15.631-15.631,15.631,15.631,0,0,1,15.631,15.631" transform="translate(-446.786 -274.971)"/><path class="f" d="M890.631,732.838a7.815,7.815,0,1,1-7.815-7.815,7.815,7.815,0,0,1,7.815,7.815" transform="translate(-463.971 -292.156)"/><path class="d" d="M531.261,431.261H500A31.261,31.261,0,0,1,531.261,400Z" transform="translate(-206.2 -68.739)"/><path class="d" d="M1200,431.261h31.261A31.261,31.261,0,0,0,1200,400Z" transform="translate(-687.372 -68.739)"/><rect class="d" width="187.88" height="31.261" transform="translate(324.748 518.807)"/><path class="d" d="M531.261,1000H500a31.261,31.261,0,0,0,31.261,31.261Z" transform="translate(-206.2 -481.171)"/><path class="d" d="M1200,1000h31.261A31.261,31.261,0,0,1,1200,1031.261Z" transform="translate(-687.372 -481.171)"/><path class="c" d="M631.261,331.261h31.261a31.261,31.261,0,1,0-62.523,0Z" transform="translate(-274.939)"/><path class="c" d="M1031.261,331.261h31.261a31.261,31.261,0,0,0-62.523,0Z" transform="translate(-549.894)"/><path class="g" d="M649.943,365.587h31.276A15.623,15.623,0,0,0,665.6,349.964h-.029a15.623,15.623,0,0,0-15.623,15.623" transform="translate(-309.269 -34.345)"/><path class="g" d="M1049.943,365.587h31.276a15.623,15.623,0,0,0-15.623-15.623h-.029a15.623,15.623,0,0,0-15.623,15.623" transform="translate(-584.224 -34.345)"/></g></svg>