<svg xmlns="http://www.w3.org/2000/svg" width="1119" height="713" viewBox="0 0 1119 713">
  <g id="lines" transform="translate(-247.5 -48.5)">
    <line id="Line_41" data-name="Line 41" x2="507" transform="translate(247.5 152.5)" fill="none" stroke="#fff" stroke-width="1"/>
    <line id="Line_51" data-name="Line 51" x2="507" transform="translate(859.5 654.5)" fill="none" stroke="#fff" stroke-width="1"/>
    <line id="Line_46" data-name="Line 46" x2="507" transform="translate(537.5 178.5)" fill="none" stroke="#fff" stroke-width="1"/>
    <line id="Line_43" data-name="Line 43" x2="821" transform="translate(545.5 327.5)" fill="none" stroke="#fff" stroke-width="1"/>
    <line id="Line_48" data-name="Line 48" x2="821" transform="translate(292.5 544.5)" fill="none" stroke="#fff" stroke-width="1"/>
    <rect id="Rectangle_252" data-name="Rectangle 252" width="25" height="25" transform="translate(755 139)" fill="#fff"/>
    <rect id="Rectangle_254" data-name="Rectangle 254" width="25" height="25" transform="translate(615 519)" fill="#fff"/>
    <rect id="Rectangle_255" data-name="Rectangle 255" width="25" height="25" rx="12.5" transform="translate(515 569)" fill="#fff"/>
    <path id="Rectangle_253" data-name="Rectangle 253" d="M0,0H0A25,25,0,0,1,25,25v0a0,0,0,0,1,0,0H0a0,0,0,0,1,0,0V0A0,0,0,0,1,0,0Z" transform="translate(755 425)" fill="#fff"/>
    <line id="Line_42" data-name="Line 42" y2="475" transform="translate(615.5 48.5)" fill="none" stroke="#fff" stroke-width="1"/>
    <line id="Line_49" data-name="Line 49" y2="475" transform="translate(379.5 281)" fill="none" stroke="#fff" stroke-width="1"/>
    <line id="Line_44" data-name="Line 44" y2="475" transform="translate(1080.5 286.5)" fill="none" stroke="#fff" stroke-width="1"/>
    <text id="_14_pt" data-name="14 pt" transform="translate(505 331)" fill="#fff" font-size="14" font-family="Roboto-Regular, Roboto"><tspan x="0" y="0">14 pt</tspan></text>
    <line id="Line_45" data-name="Line 45" y2="132" transform="translate(1162.5 48.5)" fill="none" stroke="#fff" stroke-width="1"/>
    <line id="Line_47" data-name="Line 47" y2="363" transform="translate(1187.5 59.5)" fill="none" stroke="#fff" stroke-width="1"/>
    <path id="Path_139" data-name="Path 139" d="M650,1175a12.5,12.5,0,0,0-25,0Z" transform="translate(583 -847)" fill="#fff"/>
    <text id="_25px" data-name="25px" transform="translate(1173 443)" fill="#fff" font-size="14" font-family="Roboto-Regular, Roboto"><tspan x="0" y="0">25px</tspan></text>
    <line id="Line_50" data-name="Line 50" y2="126" transform="translate(640.5 480.5)" fill="none" stroke="#fff" stroke-width="1"/>
    <path id="Rectangle_256" data-name="Rectangle 256" d="M0,0H18.5A6.5,6.5,0,0,1,25,6.5V25a0,0,0,0,1,0,0H6.5A6.5,6.5,0,0,1,0,18.5V0A0,0,0,0,1,0,0Z" transform="translate(1208 353)" fill="#fff"/>
  </g>
</svg>
