<svg xmlns="http://www.w3.org/2000/svg" width="249" height="160" viewBox="0 0 249 160">
  <g id="Group_26" data-name="Group 26" transform="translate(-965 -971)">
    <g id="logo" transform="translate(1014.737 1021.152)">
      <path id="Path_1" data-name="Path 1" d="M123.932,37.522l8.141,8.141L123.932,53.8l-8.141-8.135Zm21.947,16.5L123.932,75.973,101.988,54.028,80.042,75.973l-30.31-30.31L80.042,15.35,99.266,34.578,80.042,53.8,71.9,45.665,82.763,34.8l-2.722-2.722L66.463,45.663,80.042,59.242l43.89-43.892,43.9,43.889,2.722-2.72L148.605,34.573l19.223-19.227,30.311,30.313-8.365,8.365L167.828,32.077,165.111,34.8l21.946,21.944L167.828,75.971Zm-8.371-8.358L123.929,32.081,110.35,45.663l13.579,13.579Z" transform="translate(-49.732 -15.346)" fill="#ef0b1e"/>
    </g>
    <g id="Rectangle_20" data-name="Rectangle 20" transform="translate(965 971)" fill="none" stroke="#707070" stroke-width="1" stroke-dasharray="1 1">
      <rect width="249" height="160" stroke="none"/>
      <rect x="0.5" y="0.5" width="248" height="159" fill="none"/>
    </g>
  </g>
</svg>
