<svg id="Group_12" data-name="Group 12" xmlns="http://www.w3.org/2000/svg" width="248.452" height="160.487" viewBox="0 0 248.452 160.487">
  <path id="Path_1" data-name="Path 1" d="M123.932,37.522l8.141,8.141L123.932,53.8l-8.141-8.135Zm21.947,16.5L123.932,75.973,101.988,54.028,80.042,75.973l-30.31-30.31L80.042,15.35,99.266,34.578,80.042,53.8,71.9,45.665,82.763,34.8l-2.722-2.722L66.463,45.663,80.042,59.242l43.89-43.892,43.9,43.889,2.722-2.72L148.605,34.573l19.223-19.227,30.311,30.313-8.365,8.365L167.828,32.077,165.111,34.8l21.946,21.944L167.828,75.971Zm-8.371-8.358L123.929,32.081,110.35,45.663l13.579,13.579Z" transform="translate(0.257 34.27)" fill="#ef0b1e"/>
  <rect id="Rectangle_38" data-name="Rectangle 38" width="49.989" height="160.412" transform="translate(0 0.075)" fill="#00ccd1" opacity="0.43"/>
  <rect id="Rectangle_43" data-name="Rectangle 43" width="49.989" height="160.412" transform="translate(198.463 0.075)" fill="#00ccd1" opacity="0.43"/>
  <rect id="Rectangle_41" data-name="Rectangle 41" width="49.989" height="248.452" transform="translate(248.452) rotate(90)" fill="#00ccd1" opacity="0.426"/>
  <rect id="Rectangle_42" data-name="Rectangle 42" width="49.989" height="248.452" transform="translate(248.452 110.423) rotate(90)" fill="#00ccd1" opacity="0.43"/>
  <text id="X" transform="translate(18.456 27.776)" font-size="13" font-family="Spartan-Regular, Spartan"><tspan x="0" y="0">X</tspan></text>
  <g id="Rectangle_44" data-name="Rectangle 44" transform="translate(0 0.075)" fill="none" stroke="#000" stroke-width="0.5" stroke-dasharray="1">
    <rect width="49.989" height="49.989" stroke="none"/>
    <rect x="0.25" y="0.25" width="49.489" height="49.489" fill="none"/>
  </g>
</svg>
