<svg xmlns="http://www.w3.org/2000/svg" xmlns:xlink="http://www.w3.org/1999/xlink" width="343.39" height="87.39" viewBox="0 0 343.39 87.39">
  <defs>
    <clipPath id="clip-path">
      <rect id="Rectangle_2313" data-name="Rectangle 2313" width="343.39" height="61" fill="none"/>
    </clipPath>
  </defs>
  <g id="Group_396" data-name="Group 396" transform="translate(-653.598 -2128)">
    <g id="Group_523" data-name="Group 523" transform="translate(653.598 2154.39)">
      <path id="Path_1087" data-name="Path 1087" d="M66,31.065l8.132,7.994,8.131-7.994-8.131-8Zm-5.434,0L74.128,17.728,87.694,31.064,74.128,44.4ZM0,31.064,30.28,60.838,52.2,39.285,74.128,60.838l21.929-21.56,21.931,21.56L137.2,41.951,115.275,20.4l2.717-2.669,21.924,21.557,8.358-8.218L117.992,1.294,98.781,20.182,120.7,41.739l-2.716,2.67L74.133,1.3,30.285,44.409,16.719,31.072,30.285,17.735,33,20.4,22.15,31.072l8.133,8,19.21-18.887L30.283,1.292Z" transform="translate(0 -0.249)" fill="#ef0b1e"/>
      <g id="Group_519" data-name="Group 519">
        <g id="Group_518" data-name="Group 518" clip-path="url(#clip-path)">
          <path id="Path_1088" data-name="Path 1088" d="M209.463,26.006q-4.676,0-7.074-2.284t-2.4-6.766V1.295h5.612v14a6.844,6.844,0,0,0,.869,3.982,3.5,3.5,0,0,0,2.989,1.16,3.464,3.464,0,0,0,2.959-1.16,6.843,6.843,0,0,0,.87-3.982v-14h5.642V16.956q0,4.481-2.4,6.766t-7.074,2.284" transform="translate(-41.144 -0.266)"/>
          <rect id="Rectangle_2311" data-name="Rectangle 2311" width="5.642" height="24.241" transform="translate(183.475 1.029)"/>
          <path id="Path_1089" data-name="Path 1089" d="M240.732,28.8,252.774,0h4.574L245.306,28.8Z" transform="translate(-49.526 0)"/>
          <path id="Path_1090" data-name="Path 1090" d="M273.257,26.006q-4.677,0-7.075-2.284t-2.4-6.766V1.295H269.4v14a6.837,6.837,0,0,0,.87,3.982,3.5,3.5,0,0,0,2.989,1.16,3.463,3.463,0,0,0,2.959-1.16,6.842,6.842,0,0,0,.87-3.982v-14h5.641V16.956q0,4.481-2.4,6.766t-7.073,2.284" transform="translate(-54.268 -0.266)"/>
          <path id="Path_1091" data-name="Path 1091" d="M290.522,25.536l9.106-13.061-7.6-11.18h6.708l4.37,6.494,4.341-6.494h6.708l-7.6,11.18,9.12,13.061H308.7l-5.6-8.125-5.612,8.125Z" transform="translate(-59.769 -0.266)"/>
          <path id="Path_1092" data-name="Path 1092" d="M206.179,70.285a14.567,14.567,0,0,1-3.025-.3,14.141,14.141,0,0,1-2.58-.793,16.013,16.013,0,0,1-2.046-1.029,9.6,9.6,0,0,1-1.425-1.021l2.82-4.76q.584.427,1.3.9a13.074,13.074,0,0,0,1.548.867,10.657,10.657,0,0,0,1.739.647,6.84,6.84,0,0,0,1.828.249,4.123,4.123,0,0,0,1.512-.249,2.067,2.067,0,0,0,.979-.749,2.13,2.13,0,0,0,.343-1.235,2.3,2.3,0,0,0-.314-1.218,3.239,3.239,0,0,0-.958-.956,12.113,12.113,0,0,0-1.629-.91q-.987-.471-2.331-1.087a11.463,11.463,0,0,1-1.856-1.065,7.79,7.79,0,0,1-1.5-1.374,6.008,6.008,0,0,1-.994-1.7,5.6,5.6,0,0,1-.357-2.021,6.634,6.634,0,0,1,.585-2.732,7.6,7.6,0,0,1,1.652-2.35,7.824,7.824,0,0,1,2.565-1.653,8.739,8.739,0,0,1,3.325-.61,11.733,11.733,0,0,1,2.624.309,15.691,15.691,0,0,1,2.58.822,10.162,10.162,0,0,1,2.1,1.161l-2.28,4.51a9.369,9.369,0,0,0-1.505-.859A9.067,9.067,0,0,0,209.2,50.5a7.355,7.355,0,0,0-1.689-.2,3.828,3.828,0,0,0-1.476.257,2.138,2.138,0,0,0-.943.72,1.817,1.817,0,0,0-.328,1.08,1.589,1.589,0,0,0,.19.793,1.691,1.691,0,0,0,.577.587,6.9,6.9,0,0,0,.98.508q.591.257,1.351.609,1.812.765,3.208,1.513a11.644,11.644,0,0,1,2.346,1.616,5.868,5.868,0,0,1,1.446,2.013,6.72,6.72,0,0,1,.5,2.689,7.236,7.236,0,0,1-1.133,4.092,7.163,7.163,0,0,1-3.193,2.615,12,12,0,0,1-4.852.9" transform="translate(-40.55 -9.285)"/>
          <path id="Path_1093" data-name="Path 1093" d="M235.392,70.285a11.64,11.64,0,0,1-4.735-.971,12.082,12.082,0,0,1-3.873-2.695,12.891,12.891,0,0,1,0-17.822,12.107,12.107,0,0,1,3.873-2.695,12.046,12.046,0,0,1,9.471,0A12.086,12.086,0,0,1,244,48.8a12.889,12.889,0,0,1,0,17.822,12.061,12.061,0,0,1-3.872,2.695,11.642,11.642,0,0,1-4.735.971m-.014-5.465a5.94,5.94,0,0,0,2.477-.507,5.508,5.508,0,0,0,1.928-1.455A6.792,6.792,0,0,0,241.04,60.6a9.607,9.607,0,0,0,0-5.789,6.8,6.8,0,0,0-1.257-2.256,5.513,5.513,0,0,0-1.928-1.454,5.94,5.94,0,0,0-2.477-.507,5.842,5.842,0,0,0-2.455.507A5.527,5.527,0,0,0,231,52.559a6.807,6.807,0,0,0-1.257,2.256,9.624,9.624,0,0,0,0,5.789A6.8,6.8,0,0,0,231,62.858a5.522,5.522,0,0,0,1.922,1.455,5.842,5.842,0,0,0,2.455.507" transform="translate(-45.925 -9.285)"/>
          <path id="Path_1094" data-name="Path 1094" d="M259.205,69.929V45.688h5.642v19.26h8.227v4.981Z" transform="translate(-53.326 -9.399)"/>
          <path id="Path_1095" data-name="Path 1095" d="M289.67,70.4q-4.676,0-7.074-2.284t-2.4-6.766V45.688h5.612v14a6.844,6.844,0,0,0,.869,3.982,3.5,3.5,0,0,0,2.989,1.16,3.464,3.464,0,0,0,2.959-1.16,6.843,6.843,0,0,0,.87-3.982v-14h5.642V61.349q0,4.481-2.4,6.766T289.67,70.4" transform="translate(-57.645 -9.399)"/>
          <path id="Path_1096" data-name="Path 1096" d="M311.485,69.929V50.668h-5.671v-4.98h16.954v4.98H317.11V69.929Z" transform="translate(-62.915 -9.399)"/>
          <rect id="Rectangle_2312" data-name="Rectangle 2312" width="5.642" height="24.241" transform="translate(263.082 36.289)"/>
          <path id="Path_1097" data-name="Path 1097" d="M355.859,70.285a11.64,11.64,0,0,1-4.735-.971,12.083,12.083,0,0,1-3.873-2.695,12.891,12.891,0,0,1,0-17.822,12.109,12.109,0,0,1,3.873-2.695,12.046,12.046,0,0,1,9.471,0,12.086,12.086,0,0,1,3.872,2.695,12.889,12.889,0,0,1,0,17.822,12.061,12.061,0,0,1-3.872,2.695,11.642,11.642,0,0,1-4.735.971m-.014-5.465a5.937,5.937,0,0,0,2.477-.507,5.507,5.507,0,0,0,1.928-1.455,6.791,6.791,0,0,0,1.257-2.255,9.605,9.605,0,0,0,0-5.789,6.8,6.8,0,0,0-1.257-2.256,5.513,5.513,0,0,0-1.928-1.454,5.937,5.937,0,0,0-2.477-.507,5.843,5.843,0,0,0-2.455.507,5.527,5.527,0,0,0-1.922,1.454,6.791,6.791,0,0,0-1.257,2.256,9.606,9.606,0,0,0,0,5.789,6.78,6.78,0,0,0,1.257,2.255,5.522,5.522,0,0,0,1.922,1.455,5.842,5.842,0,0,0,2.455.507" transform="translate(-70.709 -9.285)"/>
          <path id="Path_1098" data-name="Path 1098" d="M379.672,69.929V45.688h5.642l9.47,14.823V45.688h5.641V69.929h-5.641L385.314,55.1V69.929Z" transform="translate(-78.11 -9.399)"/>
          <path id="Path_1099" data-name="Path 1099" d="M418.428,70.285a14.58,14.58,0,0,1-3.025-.3,14.152,14.152,0,0,1-2.579-.793,16.009,16.009,0,0,1-2.046-1.029,9.513,9.513,0,0,1-1.425-1.021l2.82-4.76q.584.427,1.3.9a13.084,13.084,0,0,0,1.548.867,10.661,10.661,0,0,0,1.74.647,6.841,6.841,0,0,0,1.828.249,4.126,4.126,0,0,0,1.512-.249,2.067,2.067,0,0,0,.979-.749,2.13,2.13,0,0,0,.343-1.235,2.3,2.3,0,0,0-.314-1.218,3.249,3.249,0,0,0-.958-.956,12.111,12.111,0,0,0-1.629-.91q-.986-.471-2.331-1.087a11.464,11.464,0,0,1-1.856-1.065,7.791,7.791,0,0,1-1.5-1.374,6.01,6.01,0,0,1-.994-1.7,5.6,5.6,0,0,1-.357-2.021,6.635,6.635,0,0,1,.585-2.732,7.6,7.6,0,0,1,1.652-2.35,7.823,7.823,0,0,1,2.565-1.653,8.739,8.739,0,0,1,3.325-.61,11.733,11.733,0,0,1,2.624.309,15.688,15.688,0,0,1,2.58.822,10.162,10.162,0,0,1,2.1,1.161l-2.28,4.51a9.345,9.345,0,0,0-1.506-.859,9.042,9.042,0,0,0-1.688-.581,7.356,7.356,0,0,0-1.689-.2,3.828,3.828,0,0,0-1.476.257,2.137,2.137,0,0,0-.943.72,1.818,1.818,0,0,0-.328,1.08,1.589,1.589,0,0,0,.19.793,1.691,1.691,0,0,0,.577.587,6.894,6.894,0,0,0,.98.508q.591.257,1.351.609,1.812.765,3.208,1.513a11.638,11.638,0,0,1,2.346,1.616,5.861,5.861,0,0,1,1.447,2.013,6.722,6.722,0,0,1,.5,2.689,7.236,7.236,0,0,1-1.133,4.092,7.163,7.163,0,0,1-3.193,2.615,12,12,0,0,1-4.852.9" transform="translate(-84.216 -9.285)"/>
        </g>
      </g>
    </g>
    <g id="Group_13" data-name="Group 13" transform="translate(654 2128.921)">
      <rect id="Rectangle_37" data-name="Rectangle 37" width="51.7" height="61.18" transform="translate(-0.254 24.898)" fill="#fff" opacity="0.694"/>
      <line id="Line_4" data-name="Line 4" y2="57.508" transform="translate(0)" fill="none" stroke="#000" stroke-width="0.5" stroke-dasharray="1 1"/>
      <line id="Line_6" data-name="Line 6" x1="49.008" transform="translate(1.492 15.726)" fill="none" stroke="#000" stroke-width="0.5" stroke-dasharray="1 1"/>
      <line id="Line_5" data-name="Line 5" y2="57.508" transform="translate(51.735)" fill="none" stroke="#000" stroke-width="0.5" stroke-dasharray="1 1"/>
      <text id="X_1_3" data-name="X =1/3" transform="translate(9.79 9.078)" font-size="10" font-family="Roboto-Bold, Roboto" font-weight="700"><tspan x="0" y="0">X =1/3</tspan></text>
    </g>
  </g>
</svg>
