<svg xmlns="http://www.w3.org/2000/svg" width="149.403" height="88.098" viewBox="0 0 149.403 88.098">
  <g id="Group_13" data-name="Group 13" transform="translate(0.25)">
    <path id="Path_1" data-name="Path 1" d="M123.932,37.522l8.141,8.141L123.932,53.8l-8.141-8.135Zm21.947,16.5L123.932,75.973,101.988,54.028,80.042,75.973l-30.31-30.31L80.042,15.35,99.266,34.578,80.042,53.8,71.9,45.665,82.763,34.8l-2.722-2.722L66.463,45.663,80.042,59.242l43.89-43.892,43.9,43.889,2.722-2.72L148.605,34.573l19.223-19.227,30.311,30.313-8.365,8.365L167.828,32.077,165.111,34.8l21.946,21.944L167.828,75.971Zm-8.371-8.358L123.929,32.081,110.35,45.663l13.579,13.579Z" transform="translate(-48.986 11.572)" fill="#ef0b1e"/>
    <rect id="Rectangle_37" data-name="Rectangle 37" width="49.989" height="61.18" transform="translate(0.746 26.918)" fill="#fff" opacity="0.694"/>
    <line id="Line_4" data-name="Line 4" y2="57.508" transform="translate(0)" fill="none" stroke="#000" stroke-width="0.5" stroke-dasharray="1 1"/>
    <line id="Line_6" data-name="Line 6" x1="47.751" transform="translate(1.492 15.726)" fill="none" stroke="#000" stroke-width="0.5" stroke-dasharray="1 1"/>
    <line id="Line_5" data-name="Line 5" y2="57.508" transform="translate(50.735)" fill="none" stroke="#000" stroke-width="0.5" stroke-dasharray="1 1"/>
    <text id="X_1_3" data-name="X =1/3" transform="translate(9.79 9.078)" font-size="8" font-family="Roboto-Light, Roboto" font-weight="300"><tspan x="0" y="0">X =1/3</tspan></text>
  </g>
</svg>
