<svg xmlns="http://www.w3.org/2000/svg" width="252" height="164" viewBox="0 0 252 164">
  <g id="Group_528" data-name="Group 528" transform="translate(-758 -2103)">
    <line id="Line_148" data-name="Line 148" x2="199.01" transform="translate(795.5 2154.5)" fill="none" stroke="#86eae4" stroke-width="1"/>
    <line id="Line_152" data-name="Line 152" x2="199.5" transform="translate(795.5 2103.5)" fill="none" stroke="#86eae4" stroke-width="1"/>
    <line id="Line_149" data-name="Line 149" x2="198" transform="translate(807.5 2215.5)" fill="none" stroke="#86eae4" stroke-width="1"/>
    <line id="Line_153" data-name="Line 153" x2="202" transform="translate(807.5 2266.5)" fill="none" stroke="#86eae4" stroke-width="1"/>
    <line id="Line_150" data-name="Line 150" y2="83" transform="translate(809.5 2138.5)" fill="none" stroke="#86eae4" stroke-width="1"/>
    <line id="Line_154" data-name="Line 154" y2="83" transform="translate(758.5 2138.5)" fill="none" stroke="#86eae4" stroke-width="1"/>
    <line id="Line_151" data-name="Line 151" y2="109" transform="translate(958.5 2130.5)" fill="none" stroke="#86eae4" stroke-width="1"/>
    <line id="Line_155" data-name="Line 155" y2="109" transform="translate(1009.5 2130.5)" fill="none" stroke="#86eae4" stroke-width="1"/>
    <g id="Group_12" data-name="Group 12" transform="translate(900 2106.224)">
      <rect id="Rectangle_38" data-name="Rectangle 38" width="51.99" height="51.99" transform="translate(-142 -2.925)" fill="#86eae4"/>
      <text id="X" transform="translate(-123.544 24.776)" font-size="13" font-family="Spartan-Regular, Spartan"><tspan x="0" y="0">X</tspan></text>
      <g id="Rectangle_44" data-name="Rectangle 44" transform="translate(-142 -2.925)" fill="none" stroke="#000" stroke-width="0.5" stroke-dasharray="1">
        <rect width="51.99" height="51.99" stroke="none"/>
        <rect x="0.25" y="0.25" width="51.49" height="51.49" fill="none"/>
      </g>
    </g>
    <g id="Group_525" data-name="Group 525" transform="translate(900 2217.926)">
      <rect id="Rectangle_38-2" data-name="Rectangle 38" width="51.99" height="51.99" transform="translate(-142 -2.925)" fill="#86eae4"/>
    </g>
    <g id="Group_526" data-name="Group 526" transform="translate(958.01 2215)">
      <rect id="Rectangle_38-3" data-name="Rectangle 38" width="51.99" height="51.99" fill="#86eae4"/>
    </g>
    <g id="Group_527" data-name="Group 527" transform="translate(958.01 2103)">
      <rect id="Rectangle_38-4" data-name="Rectangle 38" width="51.99" height="51.99" fill="#86eae4"/>
    </g>
    <g id="Group_524" data-name="Group 524" transform="translate(809.598 2154.39)">
      <path id="Path_1087" data-name="Path 1087" d="M66,31.065l8.132,7.994,8.131-7.994-8.131-8Zm-5.434,0L74.128,17.728,87.694,31.064,74.128,44.4ZM0,31.064,30.28,60.838,52.2,39.285,74.128,60.838l21.929-21.56,21.931,21.56L137.2,41.951,115.275,20.4l2.717-2.669,21.924,21.557,8.358-8.218L117.992,1.294,98.781,20.182,120.7,41.739l-2.716,2.67L74.133,1.3,30.285,44.409,16.719,31.072,30.285,17.735,33,20.4,22.15,31.072l8.133,8,19.21-18.887L30.283,1.292Z" transform="translate(0 -0.249)" fill="#ef0b1e"/>
    </g>
  </g>
</svg>
