<svg id="Group_532" data-name="Group 532" xmlns="http://www.w3.org/2000/svg" xmlns:xlink="http://www.w3.org/1999/xlink" width="342.264" height="60.8" viewBox="0 0 342.264 60.8">
  <defs>
    <clipPath id="clip-path">
      <rect id="Rectangle_2319" data-name="Rectangle 2319" width="342.264" height="60.8"/>
    </clipPath>
  </defs>
  <path id="Path_1114" data-name="Path 1114" d="M64.7,30.98l7.972,7.971L80.64,30.98l-7.971-7.972Zm-5.327,0,13.3-13.3,13.3,13.3-13.3,13.3ZM0,30.979,29.684,60.667,51.176,39.176,72.669,60.667l21.5-21.5,21.5,21.5L134.5,41.834,113.006,20.342l2.663-2.662,21.492,21.5,8.194-8.195L115.669,1.294,96.836,20.128l21.492,21.495-2.662,2.662L72.673,1.3,29.688,44.285l-13.3-13.3,13.3-13.3,2.663,2.662L21.714,30.986l7.973,7.972L48.518,20.125,29.687,1.292Z" transform="translate(0 -0.269)"/>
  <g id="Group_530" data-name="Group 530">
    <g id="Group_529" data-name="Group 529" clip-path="url(#clip-path)">
      <path id="Path_1115" data-name="Path 1115" d="M209.432,25.925q-4.661,0-7.051-2.277t-2.388-6.743V1.295h5.594V15.25a6.821,6.821,0,0,0,.866,3.969,3.49,3.49,0,0,0,2.979,1.157,3.453,3.453,0,0,0,2.95-1.157,6.82,6.82,0,0,0,.867-3.969V1.295h5.623v15.61q0,4.466-2.389,6.743t-7.051,2.277" transform="translate(-41.665 -0.27)"/>
      <rect id="Rectangle_2317" data-name="Rectangle 2317" width="5.623" height="24.162" transform="translate(182.873 1.025)"/>
      <path id="Path_1116" data-name="Path 1116" d="M240.732,28.7l12-28.7h4.559l-12,28.7Z" transform="translate(-50.152 0)"/>
      <path id="Path_1117" data-name="Path 1117" d="M273.226,25.925q-4.662,0-7.051-2.277t-2.388-6.743V1.295h5.594V15.25a6.814,6.814,0,0,0,.867,3.969,3.488,3.488,0,0,0,2.979,1.157,3.451,3.451,0,0,0,2.949-1.157,6.82,6.82,0,0,0,.867-3.969V1.295h5.622v15.61q0,4.466-2.388,6.743t-7.05,2.277" transform="translate(-54.955 -0.27)"/>
      <path id="Path_1118" data-name="Path 1118" d="M290.522,25.456,299.6,12.438,292.023,1.295h6.686l4.356,6.473,4.327-6.473h6.686L306.5,12.438l9.09,13.018h-6.948l-5.58-8.1-5.593,8.1Z" transform="translate(-60.525 -0.27)"/>
      <path id="Path_1119" data-name="Path 1119" d="M206.15,70.2a14.519,14.519,0,0,1-3.015-.3,14.094,14.094,0,0,1-2.571-.791,15.959,15.959,0,0,1-2.039-1.025,9.564,9.564,0,0,1-1.42-1.018l2.811-4.744q.582.425,1.3.894a13.03,13.03,0,0,0,1.543.864,10.623,10.623,0,0,0,1.734.644,6.818,6.818,0,0,0,1.822.249,4.109,4.109,0,0,0,1.507-.249,2.06,2.06,0,0,0,.976-.747,2.123,2.123,0,0,0,.342-1.231,2.287,2.287,0,0,0-.313-1.214,3.227,3.227,0,0,0-.955-.952,12.067,12.067,0,0,0-1.624-.907q-.983-.469-2.324-1.084a11.427,11.427,0,0,1-1.85-1.062,7.765,7.765,0,0,1-1.493-1.37,5.988,5.988,0,0,1-.991-1.691,5.583,5.583,0,0,1-.356-2.014,6.613,6.613,0,0,1,.583-2.723,7.579,7.579,0,0,1,1.647-2.343,7.8,7.8,0,0,1,2.556-1.647,8.71,8.71,0,0,1,3.314-.608,11.7,11.7,0,0,1,2.615.308,15.642,15.642,0,0,1,2.571.819,10.128,10.128,0,0,1,2.1,1.157l-2.272,4.5a9.338,9.338,0,0,0-1.5-.857,9.038,9.038,0,0,0-1.683-.579,7.331,7.331,0,0,0-1.683-.2,3.816,3.816,0,0,0-1.471.256,2.131,2.131,0,0,0-.94.717,1.812,1.812,0,0,0-.327,1.077,1.585,1.585,0,0,0,.189.791,1.685,1.685,0,0,0,.575.585,6.872,6.872,0,0,0,.977.506q.589.256,1.347.607,1.806.762,3.2,1.508a11.6,11.6,0,0,1,2.339,1.611,5.849,5.849,0,0,1,1.442,2.006,6.7,6.7,0,0,1,.5,2.68,7.213,7.213,0,0,1-1.13,4.079,7.14,7.14,0,0,1-3.182,2.606,11.962,11.962,0,0,1-4.836.9" transform="translate(-41.063 -9.403)"/>
      <path id="Path_1120" data-name="Path 1120" d="M235.352,70.2a11.6,11.6,0,0,1-4.72-.967,12.042,12.042,0,0,1-3.86-2.686,12.848,12.848,0,0,1,0-17.763,12.067,12.067,0,0,1,3.86-2.686,12.007,12.007,0,0,1,9.44,0,12.047,12.047,0,0,1,3.859,2.686,12.847,12.847,0,0,1,0,17.763,12.022,12.022,0,0,1-3.859,2.686,11.6,11.6,0,0,1-4.72.967m-.014-5.447a5.921,5.921,0,0,0,2.469-.505,5.49,5.49,0,0,0,1.922-1.45,6.771,6.771,0,0,0,1.252-2.248,9.575,9.575,0,0,0,0-5.77,6.782,6.782,0,0,0-1.252-2.248,5.5,5.5,0,0,0-1.922-1.449,5.921,5.921,0,0,0-2.469-.505,5.823,5.823,0,0,0-2.447.505,5.509,5.509,0,0,0-1.916,1.449,6.784,6.784,0,0,0-1.253,2.248,9.592,9.592,0,0,0,0,5.77,6.773,6.773,0,0,0,1.253,2.248,5.5,5.5,0,0,0,1.916,1.45,5.823,5.823,0,0,0,2.447.505" transform="translate(-46.507 -9.403)"/>
      <path id="Path_1121" data-name="Path 1121" d="M259.205,69.85V45.688h5.623v19.2h8.2V69.85Z" transform="translate(-54.001 -9.518)"/>
      <path id="Path_1122" data-name="Path 1122" d="M289.639,70.318q-4.661,0-7.051-2.277T280.2,61.3V45.688h5.594V59.643a6.822,6.822,0,0,0,.866,3.969,3.491,3.491,0,0,0,2.979,1.157,3.453,3.453,0,0,0,2.95-1.157,6.82,6.82,0,0,0,.867-3.969V45.688h5.623V61.3q0,4.466-2.389,6.743t-7.051,2.277" transform="translate(-58.375 -9.518)"/>
      <path id="Path_1123" data-name="Path 1123" d="M311.466,69.85v-19.2h-5.652V45.688h16.9v4.964h-5.638v19.2Z" transform="translate(-63.711 -9.518)"/>
      <rect id="Rectangle_2318" data-name="Rectangle 2318" width="5.623" height="24.162" transform="translate(262.219 36.17)"/>
      <path id="Path_1124" data-name="Path 1124" d="M355.819,70.2a11.6,11.6,0,0,1-4.72-.967,12.043,12.043,0,0,1-3.86-2.686,12.848,12.848,0,0,1,0-17.763A12.068,12.068,0,0,1,351.1,46.1a12.007,12.007,0,0,1,9.44,0,12.047,12.047,0,0,1,3.859,2.686,12.847,12.847,0,0,1,0,17.763,12.022,12.022,0,0,1-3.859,2.686,11.6,11.6,0,0,1-4.72.967m-.014-5.447a5.918,5.918,0,0,0,2.469-.505A5.49,5.49,0,0,0,360.2,62.8a6.771,6.771,0,0,0,1.252-2.248,9.576,9.576,0,0,0,0-5.77,6.783,6.783,0,0,0-1.252-2.248,5.5,5.5,0,0,0-1.922-1.449,5.918,5.918,0,0,0-2.469-.505,5.823,5.823,0,0,0-2.447.505,5.509,5.509,0,0,0-1.916,1.449,6.769,6.769,0,0,0-1.252,2.248,9.574,9.574,0,0,0,0,5.77,6.757,6.757,0,0,0,1.252,2.248,5.5,5.5,0,0,0,1.916,1.45,5.823,5.823,0,0,0,2.447.505" transform="translate(-71.604 -9.403)"/>
      <path id="Path_1125" data-name="Path 1125" d="M379.672,69.85V45.688H385.3l9.439,14.775V45.688h5.622V69.85h-5.622L385.3,55.074V69.85Z" transform="translate(-79.098 -9.518)"/>
      <path id="Path_1126" data-name="Path 1126" d="M418.4,70.2a14.532,14.532,0,0,1-3.015-.3,14.105,14.105,0,0,1-2.571-.791,15.959,15.959,0,0,1-2.039-1.025,9.481,9.481,0,0,1-1.42-1.018l2.811-4.744q.582.425,1.3.894a13.033,13.033,0,0,0,1.543.864,10.623,10.623,0,0,0,1.734.644,6.818,6.818,0,0,0,1.822.249,4.112,4.112,0,0,0,1.507-.249,2.06,2.06,0,0,0,.976-.747,2.123,2.123,0,0,0,.342-1.231,2.288,2.288,0,0,0-.313-1.214,3.238,3.238,0,0,0-.955-.952,12.07,12.07,0,0,0-1.624-.907q-.983-.469-2.324-1.084a11.43,11.43,0,0,1-1.85-1.062,7.766,7.766,0,0,1-1.493-1.37,5.989,5.989,0,0,1-.991-1.691,5.582,5.582,0,0,1-.356-2.014,6.613,6.613,0,0,1,.583-2.723,7.579,7.579,0,0,1,1.647-2.343,7.8,7.8,0,0,1,2.556-1.647,8.71,8.71,0,0,1,3.314-.608,11.7,11.7,0,0,1,2.615.308,15.642,15.642,0,0,1,2.571.819,10.127,10.127,0,0,1,2.1,1.157l-2.272,4.5a9.313,9.313,0,0,0-1.5-.857,9.011,9.011,0,0,0-1.682-.579,7.332,7.332,0,0,0-1.683-.2,3.816,3.816,0,0,0-1.471.256,2.131,2.131,0,0,0-.94.717,1.812,1.812,0,0,0-.327,1.077,1.585,1.585,0,0,0,.189.791,1.685,1.685,0,0,0,.575.585,6.875,6.875,0,0,0,.977.506q.589.256,1.347.607,1.806.762,3.2,1.508a11.6,11.6,0,0,1,2.338,1.611,5.841,5.841,0,0,1,1.442,2.006,6.7,6.7,0,0,1,.495,2.68,7.212,7.212,0,0,1-1.129,4.079,7.14,7.14,0,0,1-3.182,2.606,11.962,11.962,0,0,1-4.836.9" transform="translate(-85.282 -9.403)"/>
    </g>
  </g>
</svg>
