<svg xmlns="http://www.w3.org/2000/svg" width="569.5" height="435.906" viewBox="0 0 569.5 435.906">
  <g id="Group_52" data-name="Group 52" transform="translate(-527 -7150)">
    <g id="Group_51" data-name="Group 51" transform="translate(553.875 6545)">
      <line id="Line_59" data-name="Line 59" y2="75" transform="translate(262 949)" fill="none" stroke="#294760" stroke-miterlimit="10" stroke-width="2"/>
      <path id="Path_631" data-name="Path 631" d="M175,850H125a50,50,0,0,1,50-50Z" transform="translate(-63)" fill="#f4455a"/>
      <rect id="Rectangle_1962" data-name="Rectangle 1962" width="75" height="125" transform="translate(162 800)" fill="#eeeff1"/>
      <rect id="Rectangle_1963" data-name="Rectangle 1963" width="75" height="125" transform="translate(262 800)" fill="#eeeff1"/>
      <path id="Rectangle_1966" data-name="Rectangle 1966" d="M25,0H50a0,0,0,0,1,0,0V25A25,25,0,0,1,25,50H0a0,0,0,0,1,0,0V25A25,25,0,0,1,25,0Z" transform="translate(512 900) rotate(90)" fill="#eeeff1"/>
      <path id="Rectangle_1967" data-name="Rectangle 1967" d="M0,0H25A25,25,0,0,1,50,25V50a0,0,0,0,1,0,0H25A25,25,0,0,1,0,25V0A0,0,0,0,1,0,0Z" transform="translate(462 900) rotate(-90)" fill="#f4455a"/>
      <path id="Rectangle_1968" data-name="Rectangle 1968" d="M75,0h0a0,0,0,0,1,0,0V75a0,0,0,0,1,0,0H0a0,0,0,0,1,0,0v0A75,75,0,0,1,75,0Z" transform="translate(162 700)" fill="#eeeff1"/>
      <path id="Rectangle_1969" data-name="Rectangle 1969" d="M0,0H75a0,0,0,0,1,0,0V75a0,0,0,0,1,0,0h0A75,75,0,0,1,0,0V0A0,0,0,0,1,0,0Z" transform="translate(337 775) rotate(-180)" fill="#bfc0c1"/>
      <circle id="Ellipse_7" data-name="Ellipse 7" cx="12.5" cy="12.5" r="12.5" transform="translate(187 775)" fill="#00ccd1"/>
      <path id="Path_632" data-name="Path 632" d="M325,875v75a75,75,0,0,1-75-75Z" transform="translate(112 25)" fill="#eeeff1"/>
      <path id="Path_647" data-name="Path 647" d="M325,875v75a75,75,0,0,1-75-75Z" transform="translate(12 25)" fill="none" stroke="#00ccd1" stroke-width="2" stroke-dasharray="2 2"/>
      <path id="Path_633" data-name="Path 633" d="M250,875V800a75,75,0,0,1,75,75Z" transform="translate(112)" fill="#eeeff1"/>
      <path id="Path_648" data-name="Path 648" d="M250,875V800a74.965,74.965,0,0,1,75,75Z" transform="translate(12)" fill="none" stroke="#00ccd1" stroke-width="2" stroke-dasharray="2 2"/>
      <line id="Line_60" data-name="Line 60" y2="75" transform="translate(212 949)" fill="none" stroke="#294760" stroke-miterlimit="10" stroke-width="2"/>
      <line id="Line_61" data-name="Line 61" x2="150" transform="translate(162 1024)" fill="none" stroke="#294760" stroke-miterlimit="10" stroke-width="2"/>
      <g id="Group_45" data-name="Group 45" transform="translate(12 -50)">
        <path id="Rectangle_1970" data-name="Rectangle 1970" d="M12.5,0H25a0,0,0,0,1,0,0V12.5A12.5,12.5,0,0,1,12.5,25H0a0,0,0,0,1,0,0V12.5A12.5,12.5,0,0,1,12.5,0Z" transform="translate(250 700)" fill="#eeeff1"/>
        <path id="Rectangle_1971" data-name="Rectangle 1971" d="M0,0H12.5A12.5,12.5,0,0,1,25,12.5V25a0,0,0,0,1,0,0H12.5A12.5,12.5,0,0,1,0,12.5V0A0,0,0,0,1,0,0Z" transform="translate(250 725) rotate(-180)" fill="#f4455a"/>
      </g>
    </g>
    <g id="Group_50" data-name="Group 50" transform="translate(399.375 756.5)">
      <line id="Line_24" data-name="Line 24" y2="421.906" transform="translate(216.5 6407.5)" fill="none" stroke="#00ccd1" stroke-width="0.5"/>
      <line id="Line_39" data-name="Line 39" y2="421.906" transform="translate(191.5 6407.5)" fill="none" stroke="#00ccd1" stroke-width="0.5"/>
      <line id="Line_31" data-name="Line 31" y2="514.065" transform="translate(696.675 6438.5) rotate(90)" fill="none" stroke="#00ccd1" stroke-width="0.5"/>
      <line id="Line_38" data-name="Line 38" x1="514.515" transform="translate(182.609 6413.5)" fill="none" stroke="#00ccd1" stroke-width="0.5"/>
      <line id="Line_25" data-name="Line 25" y2="421.906" transform="translate(241.5 6407.5)" fill="none" stroke="#00ccd1" stroke-width="0.5"/>
      <line id="Line_32" data-name="Line 32" y2="514.065" transform="translate(696.675 6463.5) rotate(90)" fill="none" stroke="#00ccd1" stroke-width="0.5"/>
      <line id="Line_26" data-name="Line 26" y2="421.906" transform="translate(266.5 6407.5)" fill="none" stroke="#00ccd1" stroke-width="0.5"/>
      <line id="Line_33" data-name="Line 33" y2="514.065" transform="translate(696.675 6488.5) rotate(90)" fill="none" stroke="#00ccd1" stroke-width="0.5"/>
      <line id="Line_27" data-name="Line 27" y2="421.906" transform="translate(291.5 6407.5)" fill="none" stroke="#00ccd1" stroke-width="0.5"/>
      <line id="Line_34" data-name="Line 34" y2="514.065" transform="translate(696.675 6513.5) rotate(90)" fill="none" stroke="#00ccd1" stroke-width="0.5"/>
      <line id="Line_28" data-name="Line 28" y2="421.906" transform="translate(316.5 6407.5)" fill="none" stroke="#00ccd1" stroke-width="0.5"/>
      <line id="Line_35" data-name="Line 35" y2="514.065" transform="translate(696.675 6538.5) rotate(90)" fill="none" stroke="#00ccd1" stroke-width="0.5"/>
      <line id="Line_29" data-name="Line 29" y2="421.906" transform="translate(341.5 6407.5)" fill="none" stroke="#00ccd1" stroke-width="0.5"/>
      <line id="Line_36" data-name="Line 36" y2="514.065" transform="translate(696.675 6563.5) rotate(90)" fill="none" stroke="#00ccd1" stroke-width="0.5"/>
      <line id="Line_30" data-name="Line 30" y2="421.906" transform="translate(366.5 6407.5)" fill="none" stroke="#00ccd1" stroke-width="0.5"/>
      <path id="Path_634" data-name="Path 634" d="M0,0V421.906" transform="translate(391.5 6407.5)" fill="none" stroke="#00ccd1" stroke-width="0.5"/>
      <path id="Path_635" data-name="Path 635" d="M0,0V421.906" transform="translate(416.5 6407.5)" fill="none" stroke="#00ccd1" stroke-width="0.5"/>
      <path id="Path_636" data-name="Path 636" d="M0,0V421.906" transform="translate(441.5 6407.5)" fill="none" stroke="#00ccd1" stroke-width="0.5"/>
      <path id="Path_637" data-name="Path 637" d="M0,0V421.906" transform="translate(466.5 6407.5)" fill="none" stroke="#00ccd1" stroke-width="0.5"/>
      <path id="Path_638" data-name="Path 638" d="M0,0V421.906" transform="translate(491.5 6407.5)" fill="none" stroke="#00ccd1" stroke-width="0.5"/>
      <path id="Path_639" data-name="Path 639" d="M0,0V421.906" transform="translate(516.5 6407.5)" fill="none" stroke="#00ccd1" stroke-width="0.5"/>
      <path id="Path_640" data-name="Path 640" d="M0,0V421.906" transform="translate(541.5 6407.5)" fill="none" stroke="#00ccd1" stroke-width="0.5"/>
      <path id="Path_641" data-name="Path 641" d="M0,0V421.906" transform="translate(566.5 6407.5)" fill="none" stroke="#00ccd1" stroke-width="0.5"/>
      <path id="Path_642" data-name="Path 642" d="M0,0V421.906" transform="translate(591.5 6407.5)" fill="none" stroke="#00ccd1" stroke-width="0.5"/>
      <path id="Path_643" data-name="Path 643" d="M0,0V421.906" transform="translate(616.5 6407.5)" fill="none" stroke="#00ccd1" stroke-width="0.5"/>
      <path id="Path_644" data-name="Path 644" d="M0,0V421.906" transform="translate(641.5 6407.5)" fill="none" stroke="#00ccd1" stroke-width="0.5"/>
      <path id="Path_645" data-name="Path 645" d="M0,0V421.906" transform="translate(666.5 6407.5)" fill="none" stroke="#00ccd1" stroke-width="0.5"/>
      <path id="Path_646" data-name="Path 646" d="M0,0V421.906" transform="translate(691.5 6407.5)" fill="none" stroke="#00ccd1" stroke-width="0.5"/>
      <line id="Line_37" data-name="Line 37" y2="514.065" transform="translate(696.675 6588.5) rotate(90)" fill="none" stroke="#00ccd1" stroke-width="0.5"/>
      <line id="Line_62" data-name="Line 62" y2="514.065" transform="translate(696.675 6613.5) rotate(90)" fill="none" stroke="#00ccd1" stroke-width="0.5"/>
      <line id="Line_63" data-name="Line 63" y2="514.065" transform="translate(696.675 6638.5) rotate(90)" fill="none" stroke="#00ccd1" stroke-width="0.5"/>
      <line id="Line_64" data-name="Line 64" y2="514.065" transform="translate(696.675 6663.5) rotate(90)" fill="none" stroke="#00ccd1" stroke-width="0.5"/>
      <line id="Line_65" data-name="Line 65" y2="514.065" transform="translate(696.675 6688.5) rotate(90)" fill="none" stroke="#00ccd1" stroke-width="0.5"/>
      <line id="Line_66" data-name="Line 66" y2="514.065" transform="translate(696.675 6713.5) rotate(90)" fill="none" stroke="#00ccd1" stroke-width="0.5"/>
      <line id="Line_67" data-name="Line 67" y2="514.065" transform="translate(696.675 6738.5) rotate(90)" fill="none" stroke="#00ccd1" stroke-width="0.5"/>
      <line id="Line_68" data-name="Line 68" y2="514.065" transform="translate(696.675 6763.5) rotate(90)" fill="none" stroke="#00ccd1" stroke-width="0.5"/>
      <line id="Line_69" data-name="Line 69" y2="514.065" transform="translate(696.675 6788.5) rotate(90)" fill="none" stroke="#00ccd1" stroke-width="0.5"/>
      <line id="Line_70" data-name="Line 70" y2="514.065" transform="translate(696.675 6813.5) rotate(90)" fill="none" stroke="#00ccd1" stroke-width="0.5"/>
    </g>
    <rect id="Rectangle_1976" data-name="Rectangle 1976" width="25" height="25" transform="translate(591 7170)" fill="#bfc0c1"/>
    <text id="_25px" data-name="25px" transform="translate(604 7160)" font-size="10" font-family="Roboto-Regular, Roboto"><tspan x="-10.898" y="0">25px</tspan></text>
    <text id="square_25x25px_12_5px_corner_radius_" data-name="square 25x25px
12,5px  corner radius  " transform="translate(744 7206)" font-size="10" font-family="Roboto-Regular, Roboto"><tspan x="-35.466" y="0">square 25x25px</tspan><tspan x="-48.818" y="13" xml:space="preserve">12,5px  corner radius  </tspan></text>
    <text id="circle_25px" data-name="circle  25px" transform="translate(714 7336)" font-size="10" font-family="Roboto-Regular, Roboto"><tspan x="-25.33" y="0" xml:space="preserve">circle  25px</tspan></text>
    <text id="square_75x75px_75_px_corner_radius_" data-name="square 75x75px
75 px corner radius  " transform="translate(932 7279)" font-size="10" font-family="Roboto-Regular, Roboto"><tspan x="-35.466" y="0">square 75x75px</tspan><tspan x="-45.029" y="13" xml:space="preserve">75 px corner radius  </tspan></text>
    <text id="Rectangle_75x125px" data-name="Rectangle 75x125px" transform="translate(669 7460)" font-size="10" font-family="Roboto-Regular, Roboto"><tspan x="-45.161" y="0">Rectangle 75x125px</tspan></text>
    <text id="_2px_line" data-name="2px line" transform="translate(741 7541)" font-size="10" font-family="Roboto-Regular, Roboto"><tspan x="-17.163" y="0">2px line</tspan></text>
    <text id="square_50x50px_25_px_corner_radius_" data-name="square 50x50px
25 px corner radius  " transform="translate(1043 7380)" font-size="10" font-family="Roboto-Regular, Roboto"><tspan x="-35.466" y="0">square 50x50px</tspan><tspan x="-45.029" y="13" xml:space="preserve">25 px corner radius  </tspan></text>
    <text id="square_50x50px_50_px_corner_radius_" data-name="square 50x50px
50 px corner radius  " transform="translate(573 7383)" font-size="10" font-family="Roboto-Regular, Roboto"><tspan x="-35.466" y="0">square 50x50px</tspan><tspan x="-45.029" y="13" xml:space="preserve">50 px corner radius  </tspan></text>
    <text id="_25px-2" data-name="25px" transform="translate(573 7185)" font-size="10" font-family="Roboto-Regular, Roboto"><tspan x="-10.898" y="0">25px</tspan></text>
  </g>
</svg>
