<svg id="Group_361" data-name="Group 361" xmlns="http://www.w3.org/2000/svg" xmlns:xlink="http://www.w3.org/1999/xlink" width="186.051" height="165.684" viewBox="0 0 186.051 165.684">
  <defs>
    <clipPath id="clip-path">
      <rect id="Rectangle_2123" data-name="Rectangle 2123" width="186.051" height="165.684" fill="none"/>
    </clipPath>
    <clipPath id="clip-path-5">
      <rect id="Rectangle_2137" data-name="Rectangle 2137" width="8.569" height="6.413" transform="translate(80.61)" fill="none"/>
    </clipPath>
    <clipPath id="clip-path-7">
      <rect id="Rectangle_2139" data-name="Rectangle 2139" width="11.293" height="6.413" transform="translate(174.758 91.725)" fill="none"/>
    </clipPath>
    <clipPath id="clip-path-9">
      <rect id="Rectangle_2141" data-name="Rectangle 2141" width="3.288" height="6.413" transform="translate(4.241 148.004)" fill="none"/>
    </clipPath>
    <clipPath id="clip-path-11">
      <rect id="Rectangle_2143" data-name="Rectangle 2143" width="10.515" height="6.413" transform="translate(26.797 99.316)" fill="none"/>
    </clipPath>
  </defs>
  <line id="Line_130" data-name="Line 130" y2="42.693" transform="translate(142.498 37.033)" fill="none" stroke="#bfc0c1" stroke-miterlimit="10" stroke-width="0.368"/>
  <line id="Line_131" data-name="Line 131" x1="113.851" transform="translate(14.415 151.453)" fill="none" stroke="#bfc0c1" stroke-miterlimit="10" stroke-width="0.368"/>
  <g id="Group_330" data-name="Group 330">
    <g id="Group_329" data-name="Group 329" clip-path="url(#clip-path)">
      <line id="Line_132" data-name="Line 132" y2="85.389" transform="translate(156.729 80.295)" fill="none" stroke="#bfc0c1" stroke-miterlimit="10" stroke-width="0.368"/>
    </g>
  </g>
  <line id="Line_133" data-name="Line 133" x2="42.694" transform="translate(128.266 94.527)" fill="none" stroke="#bfc0c1" stroke-miterlimit="10" stroke-width="0.368"/>
  <line id="Line_134" data-name="Line 134" x2="56.925" transform="translate(42.878 122.99)" fill="none" stroke="#bfc0c1" stroke-miterlimit="10" stroke-width="0.368"/>
  <line id="Line_135" data-name="Line 135" y2="42.694" transform="translate(114.035 66.064)" fill="none" stroke="#bfc0c1" stroke-miterlimit="10" stroke-width="0.368"/>
  <g id="Group_332" data-name="Group 332">
    <g id="Group_331" data-name="Group 331" clip-path="url(#clip-path)">
      <line id="Line_136" data-name="Line 136" x2="128.082" transform="translate(0.184 80.295)" fill="none" stroke="#bfc0c1" stroke-miterlimit="10" stroke-width="0.368"/>
    </g>
  </g>
  <line id="Line_137" data-name="Line 137" y2="71.156" transform="translate(28.647 23.371)" fill="none" stroke="#bfc0c1" stroke-miterlimit="10" stroke-width="0.368"/>
  <g id="Group_334" data-name="Group 334">
    <g id="Group_333" data-name="Group 333" clip-path="url(#clip-path)">
      <line id="Line_138" data-name="Line 138" y2="85.388" transform="translate(0.184 9.139)" fill="none" stroke="#bfc0c1" stroke-miterlimit="10" stroke-width="0.368"/>
    </g>
  </g>
  <line id="Line_139" data-name="Line 139" y1="58.385" x2="0.157" transform="translate(85.415 9.139)" fill="none" stroke="#bfc0c1" stroke-miterlimit="10" stroke-width="0.285"/>
  <rect id="Rectangle_2126" data-name="Rectangle 2126" width="14.231" height="14.231" transform="translate(57.109 122.99)" fill="#7e7f7f"/>
  <rect id="Rectangle_2127" data-name="Rectangle 2127" width="14.231" height="14.231" transform="translate(57.109 66.064)" fill="#7e7f7f"/>
  <rect id="Rectangle_2128" data-name="Rectangle 2128" width="14.231" height="14.231" transform="translate(71.34 66.064)" fill="#bfc0c1"/>
  <rect id="Rectangle_2129" data-name="Rectangle 2129" width="14.231" height="28.424" transform="translate(114.035 37.563)" fill="#bfc0c1"/>
  <g id="Group_360" data-name="Group 360">
    <g id="Group_359" data-name="Group 359" clip-path="url(#clip-path)">
      <path id="Path_849" data-name="Path 849" d="M64.225,137.221H71.34v14.231H57.109v-7.115a7.116,7.116,0,0,1,7.116-7.116" fill="#7e7f7f"/>
      <rect id="Rectangle_2130" data-name="Rectangle 2130" width="14.231" height="14.231" transform="translate(71.34 137.221)" fill="#7e7f7f"/>
      <rect id="Rectangle_2131" data-name="Rectangle 2131" width="14.231" height="14.231" transform="translate(0.184 37.602)" fill="#7e7f7f"/>
      <path id="Path_850" data-name="Path 850" d="M7.3,51.834h7.116v14.23H.184V58.949A7.115,7.115,0,0,1,7.3,51.834" fill="#eeeff1"/>
      <rect id="Rectangle_2132" data-name="Rectangle 2132" width="14.231" height="14.231" transform="translate(14.454 51.755)" fill="#eeeff1"/>
      <path id="Path_851" data-name="Path 851" d="M57.109,94.527H71.34a14.231,14.231,0,0,1,14.232,14.231V122.99H57.109Z" fill="#bfc0c1"/>
      <path id="Path_852" data-name="Path 852" d="M114.035,66.064H99.8a14.231,14.231,0,0,1-14.232-14.23V37.6h28.463Z" fill="#7e7f7f"/>
      <path id="Path_853" data-name="Path 853" d="M57.109,65.987H42.879A14.231,14.231,0,0,1,28.647,51.756V37.524H42.879a14.231,14.231,0,0,1,14.23,14.232Z" fill="#7e7f7f"/>
      <path id="Path_854" data-name="Path 854" d="M28.647,51.834A14.23,14.23,0,0,0,14.421,37.6V66.064a14.23,14.23,0,0,0,14.226-14.23" fill="#7e7f7f"/>
      <path id="Path_855" data-name="Path 855" d="M71.337,51.831A14.231,14.231,0,0,0,85.568,37.6H57.107a14.23,14.23,0,0,0,14.23,14.226" fill="#bfc0c1"/>
      <path id="Path_856" data-name="Path 856" d="M142.5,51.834A14.231,14.231,0,0,0,128.272,37.6V66.064A14.23,14.23,0,0,0,142.5,51.834" fill="#7e7f7f"/>
      <path id="Path_857" data-name="Path 857" d="M99.8,51.828A14.231,14.231,0,0,0,114.034,37.6H85.572A14.231,14.231,0,0,0,99.8,51.828" fill="#eeeff1"/>
      <path id="Path_858" data-name="Path 858" d="M71.34,51.835A14.231,14.231,0,0,0,57.107,66.059l28.462.005A14.232,14.232,0,0,0,71.34,51.835" fill="#eeeff1"/>
      <path id="Path_859" data-name="Path 859" d="M71.34,108.762A14.232,14.232,0,0,0,85.575,94.537l-28.463-.005a14.232,14.232,0,0,0,14.228,14.23" fill="#eeeff1"/>
      <path id="Path_860" data-name="Path 860" d="M85.569,94.534a14.232,14.232,0,0,0-28.463-.007v0l28.463.006Z" fill="#7e7f7f"/>
      <path id="Path_861" data-name="Path 861" d="M78.453,94.549a7.116,7.116,0,1,0-14.231,0v0l14.231,0Z" fill="#eeeff1"/>
      <path id="Path_862" data-name="Path 862" d="M64.221,94.555a7.116,7.116,0,0,0,14.231,0v0l-14.231,0Z" fill="#bfc0c1"/>
      <path id="Path_863" data-name="Path 863" d="M114.035,122.99H99.8a28.462,28.462,0,0,0,28.462,28.463V137.221a14.231,14.231,0,0,1-14.231-14.231" fill="#eeeff1"/>
      <path id="Path_864" data-name="Path 864" d="M128.266,108.758V94.527A28.462,28.462,0,0,0,99.8,122.989h14.232a14.232,14.232,0,0,1,14.231-14.231" fill="#7e7f7f"/>
      <path id="Path_865" data-name="Path 865" d="M128.266,94.527v14.231A14.233,14.233,0,0,1,142.5,122.99h14.232a28.463,28.463,0,0,0-28.463-28.463" fill="#eeeff1"/>
      <path id="Path_866" data-name="Path 866" d="M128.266,137.221v14.231a28.462,28.462,0,0,0,28.463-28.462H142.5a14.231,14.231,0,0,1-14.231,14.231" fill="#bfc0c1"/>
      <rect id="Rectangle_2133" data-name="Rectangle 2133" width="14.231" height="14.231" transform="translate(142.498 137.221)" fill="#eeeff1"/>
      <rect id="Rectangle_2134" data-name="Rectangle 2134" width="14.23" height="14.231" transform="translate(142.523 108.759)" fill="#7e7f7f"/>
      <path id="Path_867" data-name="Path 867" d="M156.729,122.99h0v14.231H142.5a14.231,14.231,0,0,1,14.231-14.231" fill="#7e7f7f"/>
      <path id="Path_868" data-name="Path 868" d="M142.523,122.99a7.116,7.116,0,1,0,14.231,0Z" fill="#eeeff1"/>
      <path id="Path_869" data-name="Path 869" d="M156.753,122.99h0a7.115,7.115,0,0,0-14.23,0v.029h14.23Z" fill="#bfc0c1"/>
      <path id="Path_870" data-name="Path 870" d="M156.753,151.423h0a7.115,7.115,0,0,0-14.23,0v.029h14.23Z" fill="#7e7f7f"/>
      <rect id="Rectangle_2135" data-name="Rectangle 2135" width="14.231" height="14.231" transform="translate(142.498 94.527)" fill="#bfc0c1"/>
      <path id="Path_871" data-name="Path 871" d="M142.523,94.527a7.116,7.116,0,1,0,14.231,0Z" fill="#eeeff1"/>
      <path id="Path_872" data-name="Path 872" d="M85.572,137.221A14.231,14.231,0,0,0,71.341,122.99v14.231Z" fill="#7e7f7f"/>
      <path id="Path_873" data-name="Path 873" d="M71.34,137.221v14.231a14.231,14.231,0,0,0,14.231-14.231Z" fill="#bfc0c1"/>
      <g id="Group_340" data-name="Group 340" style="isolation: isolate">
        <g id="Group_339" data-name="Group 339">
          <g id="Group_338" data-name="Group 338" clip-path="url(#clip-path-5)">
            <g id="Group_337" data-name="Group 337" style="isolation: isolate">
              <g id="Group_336" data-name="Group 336">
                <g id="Group_335" data-name="Group 335" clip-path="url(#clip-path-5)">
                  <text id="_1_2" data-name="1/2" transform="translate(80.61 4.87)" font-size="5.693" font-family="Roboto-Light, Roboto" font-weight="300"><tspan x="0" y="0">1/2</tspan></text>
                </g>
              </g>
            </g>
          </g>
        </g>
      </g>
      <g id="Group_346" data-name="Group 346" style="isolation: isolate">
        <g id="Group_345" data-name="Group 345">
          <g id="Group_344" data-name="Group 344" clip-path="url(#clip-path-7)">
            <g id="Group_343" data-name="Group 343" style="isolation: isolate">
              <g id="Group_342" data-name="Group 342">
                <g id="Group_341" data-name="Group 341" clip-path="url(#clip-path-7)">
                  <text id="_14pt" data-name="14pt" transform="translate(174.759 96.595)" font-size="5.693" font-family="Roboto-Light, Roboto" font-weight="300"><tspan x="0" y="0">14pt</tspan></text>
                </g>
              </g>
            </g>
          </g>
        </g>
      </g>
      <g id="Group_352" data-name="Group 352" style="isolation: isolate">
        <g id="Group_351" data-name="Group 351">
          <g id="Group_350" data-name="Group 350" clip-path="url(#clip-path-9)">
            <g id="Group_349" data-name="Group 349" style="isolation: isolate">
              <g id="Group_348" data-name="Group 348">
                <g id="Group_347" data-name="Group 347" clip-path="url(#clip-path-9)">
                  <text id="T" transform="translate(4.241 152.874)" font-size="5.693" font-family="Roboto-Light, Roboto" font-weight="300"><tspan x="0" y="0">T</tspan></text>
                  <path id="Path_874" data-name="Path 874" d="M4.241,151.372Z" fill="none" stroke="#000" stroke-miterlimit="10" stroke-width="0.278"/>
                </g>
              </g>
            </g>
          </g>
        </g>
      </g>
      <g id="Group_358" data-name="Group 358" style="isolation: isolate">
        <g id="Group_357" data-name="Group 357">
          <g id="Group_356" data-name="Group 356" clip-path="url(#clip-path-11)">
            <g id="Group_355" data-name="Group 355" style="isolation: isolate">
              <g id="Group_354" data-name="Group 354">
                <g id="Group_353" data-name="Group 353" clip-path="url(#clip-path-11)">
                  <text id="_50_" data-name="50%" transform="translate(26.798 104.186)" font-size="5.693" font-family="Roboto-Light, Roboto" font-weight="300"><tspan x="0" y="0">50%</tspan></text>
                </g>
              </g>
            </g>
          </g>
        </g>
      </g>
    </g>
  </g>
</svg>
