<svg xmlns="http://www.w3.org/2000/svg" width="188.498" height="263.25" viewBox="0 0 188.498 263.25">
  <g id="Group_32" data-name="Group 32" transform="translate(-2593.66 -4467.42)">
    <rect id="Rectangle_97" data-name="Rectangle 97" width="37.7" height="37.7" transform="translate(2706.759 4579.894)" fill="#f4455a"/>
    <path id="Path_108" data-name="Path 108" d="M2778.232,4910.874h37.7v37.7h-37.7" transform="translate(-146.872 -293.28)" fill="#f4455a"/>
    <path id="Path_109" data-name="Path 109" d="M3038.582,4467.42v112.452h-37.7V4467.42" transform="translate(-294.123)" fill="#f4455a"/>
    <path id="Path_111" data-name="Path 111" d="M3149.907,4725.923h-37.7v-37.7" transform="translate(-367.748 -146.03)" fill="#1a2a3a"/>
    <path id="Path_113" data-name="Path 113" d="M2666.907,5022.133h75.4v75.4" transform="translate(-73.247 -366.863)" fill="#1a2a3a"/>
    <rect id="Rectangle_98" data-name="Rectangle 98" width="37.7" height="37.7" transform="translate(2669.06 4617.571)" fill="#00ccd1"/>
    <path id="Path_114" data-name="Path 114" d="M2889.557,5059.833v-37.7h37.7v37.7" transform="translate(-220.498 -366.863)" fill="#00ccd1"/>
    <path id="Path_115" data-name="Path 115" d="M3019.732,4929.658l-18.85,18.85v-37.7h37.7Z" transform="translate(-294.123 -293.237)" fill="#f4455a"/>
    <path id="Path_116" data-name="Path 116" d="M3019.732,4929.658l18.85-18.85v37.7h-37.7Z" transform="translate(-294.123 -293.237)" fill="#1a2a3a"/>
    <path id="Path_117" data-name="Path 117" d="M3149.907,4910.809l-18.85,18.85-18.85,18.85v-37.7h37.7" transform="translate(-367.748 -293.237)" fill="#1a2a3a"/>
    <path id="Path_118" data-name="Path 118" d="M3000.882,5059.833v-37.7h37.7l-18.85,18.85-18.85,18.85" transform="translate(-294.123 -366.863)" fill="#1a2a3a"/>
    <path id="Path_119" data-name="Path 119" d="M2908.407,4818.4l18.85-18.85v37.7h-37.7Z" transform="translate(-220.498 -219.655)" fill="#00ccd1"/>
    <path id="Path_120" data-name="Path 120" d="M2908.407,4818.4l-18.85,18.85v-37.7h37.7Z" transform="translate(-220.498 -219.655)" fill="#1a2a3a"/>
    <path id="Path_121" data-name="Path 121" d="M2778.182,4837.248l18.85-18.85,18.85-18.85v37.7h-37.7" transform="translate(-146.839 -219.655)" fill="#1a2a3a"/>
    <path id="Path_122" data-name="Path 122" d="M2927.257,4688.224v37.7h-37.7l18.85-18.85,18.85-18.85" transform="translate(-220.498 -146.03)" fill="#1a2a3a"/>
    <path id="Path_123" data-name="Path 123" d="M2927.478,4688.03l-18.85,18.85-18.85,18.85v-37.7" transform="translate(-220.643 -145.901)" fill="#bfc0c1"/>
    <path id="Path_124" data-name="Path 124" d="M2778.262,4799.695h37.7l-18.85,18.85-18.85,18.85" transform="translate(-146.892 -219.752)" fill="#bfc0c1"/>
    <path id="Path_125" data-name="Path 125" d="M2778.349,4725.923l18.85-18.85,18.85-18.85" transform="translate(-146.949 -146.03)" fill="#bfc0c1"/>
    <path id="Path_126" data-name="Path 126" d="M2816.048,4688.224v37.7h-37.7" transform="translate(-146.949 -146.03)" fill="#bfc0c1"/>
  </g>
</svg>
