<svg xmlns="http://www.w3.org/2000/svg" width="240.463" height="253.754" viewBox="0 0 240.463 253.754">
  <g id="Group_33" data-name="Group 33" transform="translate(2814.85 -4720.588)">
    <path id="Path_46" data-name="Path 46" d="M-2767.6,5235.654l0-46.723,1,.138v46.585" transform="translate(-28.613 -261.312)" fill="#0aa5a5"/>
    <g id="Group_8" data-name="Group 8" transform="translate(-2796.207 4897.897) rotate(45)">
      <path id="Path_47" data-name="Path 47" d="M-2796.207,5181.932a13.173,13.173,0,0,0-17.847-3.068,13.164,13.164,0,0,0-3.227,3.046l.024.03h21.044Z" transform="translate(2817.281 -5160.866)" fill="#00ccd1"/>
      <path id="Path_48" data-name="Path 48" d="M-2767.583,5160.5a13.172,13.172,0,0,0,3.069-17.847,13.157,13.157,0,0,0-3.047-3.227l-.03.024V5160.5Z" transform="translate(2788.665 -5139.43)" fill="#0aa5a5"/>
      <path id="Path_49" data-name="Path 49" d="M-2767.6,5189.129a13.174,13.174,0,0,0,17.847,3.068,13.18,13.18,0,0,0,3.227-3.047l-.024-.03h-21.044Z" transform="translate(2788.668 -5168.046)" fill="#f4455a"/>
      <path id="Path_50" data-name="Path 50" d="M-2774.785,5189.12a13.172,13.172,0,0,0-3.068,17.847,13.163,13.163,0,0,0,3.046,3.228l.03-.024v-21.043Z" transform="translate(2795.848 -5168.046)" fill="#eeeff1"/>
    </g>
    <path id="Path_51" data-name="Path 51" d="M-2627.6,5235.654l0-46.723,1,.138v46.585" transform="translate(-109.238 -261.312)" fill="#0aa5a5"/>
    <g id="Group_9" data-name="Group 9" transform="translate(-2744.546 4898.913) rotate(30)">
      <path id="Path_52" data-name="Path 52" d="M-2656.207,5181.932a13.172,13.172,0,0,0-17.847-3.068,13.159,13.159,0,0,0-3.227,3.046l.024.03h21.044Z" transform="translate(2677.281 -5160.866)" fill="#00ccd1"/>
      <path id="Path_53" data-name="Path 53" d="M-2627.583,5160.5a13.172,13.172,0,0,0,3.068-17.847,13.152,13.152,0,0,0-3.046-3.227l-.031.024V5160.5Z" transform="translate(2648.665 -5139.43)" fill="#0aa5a5"/>
      <path id="Path_54" data-name="Path 54" d="M-2627.6,5189.129a13.174,13.174,0,0,0,17.847,3.068,13.18,13.18,0,0,0,3.227-3.047l-.024-.03h-21.044Z" transform="translate(2648.668 -5168.046)" fill="#f4455a"/>
      <path id="Path_55" data-name="Path 55" d="M-2634.785,5189.12a13.172,13.172,0,0,0-3.068,17.847,13.163,13.163,0,0,0,3.046,3.228l.03-.024v-21.043Z" transform="translate(2655.848 -5168.046)" fill="#eeeff1"/>
    </g>
    <path id="Path_56" data-name="Path 56" d="M-2287.6,5235.654l0-46.723,1,.138v46.585" transform="translate(-305.041 -261.312)" fill="#0aa5a5"/>
    <g id="Group_10" data-name="Group 10" transform="translate(-2600.349 4898.913) rotate(30)">
      <path id="Path_57" data-name="Path 57" d="M-2316.207,5181.932a13.172,13.172,0,0,0-17.847-3.068,13.161,13.161,0,0,0-3.227,3.046l.024.03h21.044Z" transform="translate(2337.281 -5160.866)" fill="#00ccd1"/>
      <path id="Path_58" data-name="Path 58" d="M-2287.583,5160.5a13.172,13.172,0,0,0,3.068-17.847,13.152,13.152,0,0,0-3.046-3.227l-.031.024V5160.5Z" transform="translate(2308.665 -5139.43)" fill="#0aa5a5"/>
      <path id="Path_59" data-name="Path 59" d="M-2287.6,5189.129a13.174,13.174,0,0,0,17.847,3.068,13.18,13.18,0,0,0,3.227-3.047l-.024-.03h-21.044Z" transform="translate(2308.668 -5168.046)" fill="#f4455a"/>
      <path id="Path_60" data-name="Path 60" d="M-2294.785,5189.12a13.172,13.172,0,0,0-3.068,17.847,13.163,13.163,0,0,0,3.046,3.228l.03-.024v-21.043Z" transform="translate(2315.848 -5168.046)" fill="#eeeff1"/>
    </g>
    <g id="Group_11" data-name="Group 11" transform="translate(-2715.011 4858.579)">
      <path id="Path_61" data-name="Path 61" d="M-2523.116,5078.589a45.913,45.913,0,0,0-36.424-51.55,45.882,45.882,0,0,0-15.462-.445c-.007.044-.01.089-.016.134l51.866,51.866Z" transform="translate(2575.493 -5026.141)" fill="#0aa5a5"/>
      <path id="Path_62" data-name="Path 62" d="M-2575.685,5027.473a45.912,45.912,0,0,0,36.441,51.417,45.861,45.861,0,0,0,15.426.449Z" transform="translate(2576.138 -5026.908)" fill="#00ccd1"/>
    </g>
    <g id="Group_12" data-name="Group 12" transform="translate(-2715.018 4808.317)">
      <path id="Path_63" data-name="Path 63" d="M-2523.134,4960.079a45.914,45.914,0,0,0-36.424-51.551,45.9,45.9,0,0,0-15.462-.446c-.006.045-.01.089-.016.134l51.866,51.866Z" transform="translate(2575.512 -4907.63)" fill="#0aa5a5"/>
      <path id="Path_64" data-name="Path 64" d="M-2575.7,4908.963a45.911,45.911,0,0,0,36.44,51.416,45.875,45.875,0,0,0,15.426.45Z" transform="translate(2576.156 -4908.398)" fill="#00ccd1"/>
    </g>
    <g id="Group_13" data-name="Group 13" transform="translate(-2659.927 4857.844)">
      <path id="Path_65" data-name="Path 65" d="M-2445.784,5076.857a45.913,45.913,0,0,1,36.424-51.55,45.873,45.873,0,0,1,15.462-.446c.006.045.01.09.016.134l-51.866,51.866Z" transform="translate(2446.256 -5024.409)" fill="#0aa5a5"/>
      <path id="Path_66" data-name="Path 66" d="M-2393.139,5025.741a45.911,45.911,0,0,1-36.44,51.416,45.875,45.875,0,0,1-15.426.45Z" transform="translate(2445.536 -5025.176)" fill="#eeeff1"/>
    </g>
    <g id="Group_14" data-name="Group 14" transform="translate(-2660.653 4808.317)">
      <path id="Path_67" data-name="Path 67" d="M-2447.5,4960.079a45.914,45.914,0,0,1,36.425-51.551,45.893,45.893,0,0,1,15.461-.446c.006.045.01.089.016.134l-51.866,51.866Z" transform="translate(2447.969 -4907.63)" fill="#0aa5a5"/>
      <path id="Path_68" data-name="Path 68" d="M-2394.853,4908.963a45.911,45.911,0,0,1-36.44,51.416,45.875,45.875,0,0,1-15.426.45Z" transform="translate(2447.249 -4908.398)" fill="#eeeff1"/>
    </g>
    <path id="Path_69" data-name="Path 69" d="M-2451.235,5072.968V4907.819h1.469v165.149" transform="translate(-210.803 -99.421)" fill="#0aa5a5"/>
    <g id="Group_35" data-name="Group 35" transform="translate(-4602.306 4705.727) rotate(-60)">
      <path id="Path_131" data-name="Path 131" d="M876.282,1799.71c0,.055,0,.109,0,.164a37.185,37.185,0,0,0,74.37,0c0-.055,0-.109,0-.164Z" transform="translate(0 -86.393)" fill="#f4455a"/>
      <path id="Path_132" data-name="Path 132" d="M913.47,1676.3a37.184,37.184,0,0,0-37.183,37.022h74.366A37.184,37.184,0,0,0,913.47,1676.3Z" transform="translate(-0.005)" fill="#ef0b1e"/>
    </g>
  </g>
</svg>
