<svg xmlns="http://www.w3.org/2000/svg" width="173.905" height="81.545" viewBox="0 0 173.905 81.545">
  <g id="Group_1" data-name="Group 1" transform="translate(-805.104 267.761)">
    <line id="Line_1" data-name="Line 1" y1="12.254" x2="12.254" transform="translate(843.134 -267.042)" fill="none" stroke="#00ccd1" stroke-width="1"/>
    <line id="Line_2" data-name="Line 2" x1="16.826" y1="16.826" transform="translate(837.464 -267.042)" fill="none" stroke="#00ccd1" stroke-width="1"/>
    <line id="Line_7" data-name="Line 7" y1="11.522" x2="11.522" transform="translate(889.588 -267.407)" fill="none" stroke="#00ccd1" stroke-width="1"/>
    <line id="Line_8" data-name="Line 8" x1="16.826" y1="16.826" transform="translate(882.821 -267.042)" fill="none" stroke="#00ccd1" stroke-width="1"/>
    <line id="Line_9" data-name="Line 9" y1="18.838" x2="18.838" transform="translate(927.446 -267.042)" fill="none" stroke="#00ccd1" stroke-width="1"/>
    <line id="Line_10" data-name="Line 10" x1="16.826" y1="16.826" transform="translate(928.361 -267.042)" fill="none" stroke="#00ccd1" stroke-width="1"/>
    <path id="Path_1" data-name="Path 1" d="M126.508,38.292l8.424,8.424-8.424,8.418-8.424-8.418Zm22.709,17.072L126.508,78.078,103.8,55.371,81.094,78.078,49.732,46.716,81.094,15.351l19.891,19.895L81.094,55.137l-8.423-8.419L83.91,35.478l-2.816-2.816L67.043,46.716l14.05,14.05,45.414-45.415,45.42,45.412,2.816-2.815L152.038,35.241l19.89-19.895,31.363,31.365-8.656,8.656L171.928,32.657l-2.812,2.816L191.824,58.18l-19.9,19.9Zm-8.662-8.648L126.5,32.662l-14.05,14.054,14.05,14.05Z" transform="translate(765.214 -273.51)" fill="#eeeff1" stroke="#00ccd1" stroke-width="1"/>
    <g id="Rectangle_4" data-name="Rectangle 4" transform="translate(814.897 -226.859) rotate(-45)" fill="none" stroke="#00ccd1" stroke-width="1">
      <rect width="44.625" height="44.625" stroke="none"/>
      <rect x="0.5" y="0.5" width="43.625" height="43.625" fill="none"/>
    </g>
    <g id="Rectangle_5" data-name="Rectangle 5" transform="translate(860.254 -226.859) rotate(-45)" fill="none" stroke="#00ccd1" stroke-width="1">
      <rect width="44.625" height="44.625" stroke="none"/>
      <rect x="0.5" y="0.5" width="43.625" height="43.625" fill="none"/>
    </g>
    <g id="Rectangle_6" data-name="Rectangle 6" transform="translate(905.793 -226.859) rotate(-45)" fill="none" stroke="#00ccd1" stroke-width="1">
      <rect width="44.625" height="44.625" stroke="none"/>
      <rect x="0.5" y="0.5" width="43.625" height="43.625" fill="none"/>
    </g>
    <line id="Line_3" data-name="Line 3" x1="18.289" y2="18.289" transform="translate(805.458 -235.584)" fill="none" stroke="#00ccd1" stroke-width="1"/>
    <line id="Line_4" data-name="Line 4" x1="13.9" y2="13.9" transform="translate(837.647 -200.652)" fill="none" stroke="#00ccd1" stroke-width="1"/>
    <line id="Line_5" data-name="Line 5" x1="14.448" y1="14.448" transform="translate(805.458 -236.499)" fill="none" stroke="#00ccd1" stroke-width="1"/>
    <line id="Line_6" data-name="Line 6" x2="14.448" y2="14.448" transform="translate(840.939 -201.201)" fill="none" stroke="#00ccd1" stroke-width="1"/>
    <line id="Line_11" data-name="Line 11" x2="15.546" y2="15.546" transform="translate(963.11 -232.475)" fill="none" stroke="#00ccd1" stroke-width="1"/>
    <line id="Line_12" data-name="Line 12" y1="17.74" x2="17.74" transform="translate(960.915 -236.865)" fill="none" stroke="#00ccd1" stroke-width="1"/>
    <line id="Line_13" data-name="Line 13" x2="16.826" y2="16.826" transform="translate(929.275 -203.578)" fill="none" stroke="#00ccd1" stroke-width="1"/>
    <line id="Line_14" data-name="Line 14" x1="16.826" y2="16.826" transform="translate(928.544 -203.578)" fill="none" stroke="#00ccd1" stroke-width="1"/>
    <line id="Line_15" data-name="Line 15" x2="16.826" y2="16.826" transform="translate(883.918 -203.396)" fill="none" stroke="#00ccd1" stroke-width="1"/>
    <line id="Line_16" data-name="Line 16" x1="16.826" y2="16.826" transform="translate(883.004 -203.578)" fill="none" stroke="#00ccd1" stroke-width="1"/>
    <g id="Path_1-2" data-name="Path 1" transform="translate(883.247 -226.708) rotate(-45)" fill="none">
      <path d="M0,0H12.071V12.071H0Z" stroke="none"/>
      <path d="M 0.9999990463256836 0.9999990463256836 L 0.9999990463256836 11.07079982757568 L 11.07079982757568 11.07079982757568 L 11.07079982757568 8.801619529724121 L 11.07079982757568 0.9999990463256836 L 0.9999990463256836 0.9999990463256836 M -9.5367431640625e-07 -9.5367431640625e-07 L 12.07079982757568 -9.5367431640625e-07 L 12.07079982757568 8.801619529724121 L 12.07079982757568 12.07079982757568 L -9.5367431640625e-07 12.07079982757568 L -9.5367431640625e-07 -9.5367431640625e-07 Z" stroke="none" fill="#00ccd1"/>
    </g>
  </g>
</svg>
