<svg xmlns="http://www.w3.org/2000/svg" width="205" height="63.663" viewBox="0 0 205 63.663">
  <g id="Group_551" data-name="Group 551" transform="translate(-1028.5 -876.349)">
    <g id="Group_550" data-name="Group 550">
      <g id="Group_549" data-name="Group 549">
        <g id="Group_365" data-name="Group 365" transform="translate(861.272 876.349)">
          <g id="Group_363" data-name="Group 363" transform="translate(0 0)">
            <g id="Group_366" data-name="Group 366">
              <path id="Path_876" data-name="Path 876" d="M208.33,27.044q-4.881,0-7.382-2.384t-2.5-7.06V1.254H204.3V15.866a7.142,7.142,0,0,0,.907,4.156,3.656,3.656,0,0,0,3.12,1.211,3.615,3.615,0,0,0,3.088-1.211,7.14,7.14,0,0,0,.908-4.156V1.254h5.888V17.6q0,4.676-2.5,7.06t-7.382,2.384" transform="translate(-28.551 -0.181)" fill="#eeeff1"/>
              <rect id="Rectangle_2145" data-name="Rectangle 2145" width="5.888" height="25.299" transform="translate(195.597 1.074)" fill="#eeeff1"/>
              <path id="Path_877" data-name="Path 877" d="M237.891,30.052,250.46,0h4.774L242.665,30.052Z" transform="translate(-34.226 0)" fill="#eeeff1"/>
              <path id="Path_878" data-name="Path 878" d="M270.1,27.044q-4.881,0-7.382-2.384t-2.5-7.06V1.254h5.858V15.866a7.141,7.141,0,0,0,.907,4.156,3.656,3.656,0,0,0,3.12,1.211,3.615,3.615,0,0,0,3.088-1.211,7.14,7.14,0,0,0,.908-4.156V1.254h5.888V17.6q0,4.676-2.5,7.06T270.1,27.044" transform="translate(-37.437 -0.181)" fill="#eeeff1"/>
              <path id="Path_879" data-name="Path 879" d="M286.1,26.553l9.5-13.631L287.672,1.254h7l4.561,6.777,4.531-6.777h7l-7.932,11.668,9.518,13.631h-7.275l-5.842-8.479-5.857,8.479Z" transform="translate(-41.162 -0.181)" fill="#eeeff1"/>
              <path id="Path_880" data-name="Path 880" d="M205.121,69.95a15.216,15.216,0,0,1-3.157-.314,14.836,14.836,0,0,1-2.692-.828,16.616,16.616,0,0,1-2.135-1.074,9.923,9.923,0,0,1-1.487-1.066l2.943-4.968q.61.446,1.358.936a13.592,13.592,0,0,0,1.616.9,11.042,11.042,0,0,0,1.815.675,7.143,7.143,0,0,0,1.907.26,4.313,4.313,0,0,0,1.579-.26,2.16,2.16,0,0,0,1.022-.782,2.224,2.224,0,0,0,.358-1.288,2.4,2.4,0,0,0-.327-1.273,3.4,3.4,0,0,0-1-1,12.771,12.771,0,0,0-1.7-.95q-1.03-.491-2.433-1.134a11.97,11.97,0,0,1-1.937-1.112,8.073,8.073,0,0,1-1.563-1.434,6.224,6.224,0,0,1-1.038-1.77,5.835,5.835,0,0,1-.374-2.109,6.918,6.918,0,0,1,.61-2.852,7.937,7.937,0,0,1,1.724-2.453,8.177,8.177,0,0,1,2.677-1.725,9.126,9.126,0,0,1,3.469-.636,12.283,12.283,0,0,1,2.739.322,16.43,16.43,0,0,1,2.692.859,10.586,10.586,0,0,1,2.2,1.211L211.6,50.8a9.729,9.729,0,0,0-1.571-.9,9.431,9.431,0,0,0-1.761-.605,7.663,7.663,0,0,0-1.763-.215,3.98,3.98,0,0,0-1.54.268,2.22,2.22,0,0,0-.984.751,1.9,1.9,0,0,0-.343,1.128,1.67,1.67,0,0,0,.2.829,1.766,1.766,0,0,0,.6.612,7.136,7.136,0,0,0,1.022.53q.618.268,1.411.636,1.89.8,3.348,1.579a12.176,12.176,0,0,1,2.448,1.687,6.121,6.121,0,0,1,1.51,2.1,7.026,7.026,0,0,1,.518,2.806,7.56,7.56,0,0,1-1.181,4.27,7.476,7.476,0,0,1-3.333,2.728,12.522,12.522,0,0,1-5.064.943" transform="translate(-28.148 -6.287)" fill="#eeeff1"/>
              <path id="Path_881" data-name="Path 881" d="M233.639,69.95a12.135,12.135,0,0,1-4.942-1.013,12.6,12.6,0,0,1-4.043-2.813,13.453,13.453,0,0,1,0-18.6,12.622,12.622,0,0,1,4.043-2.813,12.574,12.574,0,0,1,9.884,0,12.618,12.618,0,0,1,4.042,2.813,13.451,13.451,0,0,1,0,18.6,12.591,12.591,0,0,1-4.042,2.813,12.137,12.137,0,0,1-4.942,1.013m-.015-5.7a6.2,6.2,0,0,0,2.586-.529,5.741,5.741,0,0,0,2.013-1.519,7.081,7.081,0,0,0,1.312-2.353,10.027,10.027,0,0,0,0-6.041,7.089,7.089,0,0,0-1.312-2.354,5.738,5.738,0,0,0-2.013-1.518,6.2,6.2,0,0,0-2.586-.529,6.093,6.093,0,0,0-2.562.529,5.752,5.752,0,0,0-2.006,1.518,7.074,7.074,0,0,0-1.312,2.354,10.027,10.027,0,0,0,0,6.041,7.066,7.066,0,0,0,1.312,2.353,5.755,5.755,0,0,0,2.006,1.519,6.093,6.093,0,0,0,2.562.529" transform="translate(-31.788 -6.287)" fill="#eeeff1"/>
              <path id="Path_882" data-name="Path 882" d="M255.778,69.537v-25.3h5.888v20.1h8.587v5.2Z" transform="translate(-36.799 -6.365)" fill="#eeeff1"/>
              <path id="Path_883" data-name="Path 883" d="M285.99,70.027q-4.881,0-7.382-2.384t-2.5-7.06V44.237h5.858V58.849A7.142,7.142,0,0,0,282.87,63a3.656,3.656,0,0,0,3.12,1.211A3.615,3.615,0,0,0,289.078,63a7.14,7.14,0,0,0,.908-4.156V44.237h5.888V60.582q0,4.676-2.5,7.06t-7.382,2.384" transform="translate(-39.724 -6.365)" fill="#eeeff1"/>
              <path id="Path_884" data-name="Path 884" d="M306.826,69.537v-20.1h-5.918v-5.2H318.6v5.2h-5.9v20.1Z" transform="translate(-43.292 -6.365)" fill="#eeeff1"/>
              <rect id="Rectangle_2146" data-name="Rectangle 2146" width="5.888" height="25.299" transform="translate(278.679 37.873)" fill="#eeeff1"/>
              <path id="Path_885" data-name="Path 885" d="M350.28,69.95a12.135,12.135,0,0,1-4.942-1.013,12.6,12.6,0,0,1-4.043-2.813,13.453,13.453,0,0,1,0-18.6,12.622,12.622,0,0,1,4.043-2.813,12.574,12.574,0,0,1,9.884,0,12.618,12.618,0,0,1,4.042,2.813,13.451,13.451,0,0,1,0,18.6,12.592,12.592,0,0,1-4.042,2.813,12.137,12.137,0,0,1-4.942,1.013m-.015-5.7a6.2,6.2,0,0,0,2.586-.529,5.74,5.74,0,0,0,2.013-1.519,7.081,7.081,0,0,0,1.312-2.353,10.027,10.027,0,0,0,0-6.041,7.09,7.09,0,0,0-1.312-2.354,5.737,5.737,0,0,0-2.013-1.518,6.2,6.2,0,0,0-2.586-.529,6.093,6.093,0,0,0-2.562.529,5.752,5.752,0,0,0-2.006,1.518,7.074,7.074,0,0,0-1.312,2.354,10.027,10.027,0,0,0,0,6.041A7.066,7.066,0,0,0,345.7,62.2a5.755,5.755,0,0,0,2.006,1.519,6.093,6.093,0,0,0,2.562.529" transform="translate(-48.569 -6.287)" fill="#eeeff1"/>
              <path id="Path_886" data-name="Path 886" d="M372.42,69.537v-25.3h5.888l9.884,15.471V44.237h5.888v25.3h-5.888l-9.884-15.471V69.537Z" transform="translate(-53.581 -6.365)" fill="#eeeff1"/>
              <path id="Path_887" data-name="Path 887" d="M410.629,69.95a15.216,15.216,0,0,1-3.157-.314,14.837,14.837,0,0,1-2.692-.828,16.616,16.616,0,0,1-2.135-1.074,9.92,9.92,0,0,1-1.487-1.066L404.1,61.7q.61.446,1.358.936a13.591,13.591,0,0,0,1.616.9,11.042,11.042,0,0,0,1.815.675,7.143,7.143,0,0,0,1.907.26,4.313,4.313,0,0,0,1.579-.26,2.16,2.16,0,0,0,1.022-.782,2.224,2.224,0,0,0,.358-1.288,2.4,2.4,0,0,0-.327-1.273,3.4,3.4,0,0,0-1-1,12.768,12.768,0,0,0-1.7-.95q-1.03-.491-2.433-1.134a11.97,11.97,0,0,1-1.937-1.112,8.073,8.073,0,0,1-1.563-1.434,6.223,6.223,0,0,1-1.038-1.77,5.834,5.834,0,0,1-.374-2.109,6.917,6.917,0,0,1,.61-2.852,7.937,7.937,0,0,1,1.724-2.453,8.178,8.178,0,0,1,2.677-1.725,9.126,9.126,0,0,1,3.469-.636,12.283,12.283,0,0,1,2.739.322,16.43,16.43,0,0,1,2.692.859,10.585,10.585,0,0,1,2.2,1.211l-2.38,4.707a9.73,9.73,0,0,0-1.571-.9,9.43,9.43,0,0,0-1.761-.605,7.663,7.663,0,0,0-1.763-.215,3.98,3.98,0,0,0-1.54.268,2.22,2.22,0,0,0-.984.751,1.9,1.9,0,0,0-.343,1.128,1.67,1.67,0,0,0,.2.829,1.767,1.767,0,0,0,.6.612,7.132,7.132,0,0,0,1.022.53q.618.268,1.411.636,1.89.8,3.348,1.579A12.177,12.177,0,0,1,418.18,57.1a6.119,6.119,0,0,1,1.51,2.1,7.025,7.025,0,0,1,.518,2.806,7.56,7.56,0,0,1-1.181,4.27,7.475,7.475,0,0,1-3.333,2.728,12.522,12.522,0,0,1-5.064.943" transform="translate(-57.715 -6.287)" fill="#eeeff1"/>
            </g>
          </g>
        </g>
        <line id="Line_140" data-name="Line 140" x2="121.723" transform="translate(1028.5 877.5)" fill="none" stroke="#00ccd1" stroke-width="1"/>
        <line id="Line_141" data-name="Line 141" x2="121.723" transform="translate(1028.5 902.5)" fill="none" stroke="#00ccd1" stroke-width="1"/>
        <line id="Line_142" data-name="Line 142" x2="203" transform="translate(1030.5 913.5)" fill="none" stroke="#00ccd1" stroke-width="1"/>
        <line id="Line_143" data-name="Line 143" x2="203" transform="translate(1030.5 939.5)" fill="none" stroke="#00ccd1" stroke-width="1"/>
      </g>
    </g>
  </g>
</svg>
