<svg xmlns="http://www.w3.org/2000/svg" width="153.559" height="62.732" viewBox="0 0 153.559 62.732">
  <path id="Path_1" data-name="Path 1" d="M126.508,38.292l8.424,8.424-8.424,8.418-8.424-8.418Zm22.709,17.072L126.508,78.078,103.8,55.371,81.094,78.078,49.732,46.716,81.094,15.351l19.891,19.895L81.094,55.137l-8.423-8.419L83.91,35.478l-2.816-2.816L67.043,46.716l14.05,14.05,45.414-45.415,45.42,45.412,2.816-2.815L152.038,35.241l19.89-19.895,31.363,31.365-8.656,8.656L171.928,32.657l-2.812,2.816L191.824,58.18l-19.9,19.9Zm-8.662-8.648L126.5,32.662l-14.05,14.054,14.05,14.05Z" transform="translate(-49.732 -15.346)" fill="#ef0b1e"/>
</svg>
