<svg id="Group_295" data-name="Group 295" xmlns="http://www.w3.org/2000/svg" xmlns:xlink="http://www.w3.org/1999/xlink" width="186.05" height="165.685" viewBox="0 0 186.05 165.685">
  <defs>
    <clipPath id="clip-path">
      <rect id="Rectangle_2079" data-name="Rectangle 2079" width="186.05" height="165.685" fill="none"/>
    </clipPath>
    <clipPath id="clip-path-5">
      <rect id="Rectangle_2093" data-name="Rectangle 2093" width="8.569" height="6.414" transform="translate(80.609)" fill="none"/>
    </clipPath>
    <clipPath id="clip-path-7">
      <rect id="Rectangle_2095" data-name="Rectangle 2095" width="11.293" height="6.413" transform="translate(174.757 91.726)" fill="none"/>
    </clipPath>
    <clipPath id="clip-path-9">
      <rect id="Rectangle_2097" data-name="Rectangle 2097" width="3.288" height="6.413" transform="translate(4.24 148.005)" fill="none"/>
    </clipPath>
    <clipPath id="clip-path-11">
      <rect id="Rectangle_2099" data-name="Rectangle 2099" width="10.515" height="6.413" transform="translate(26.799 99.317)" fill="none"/>
    </clipPath>
  </defs>
  <line id="Line_110" data-name="Line 110" y2="42.694" transform="translate(142.498 37.034)" fill="none" stroke="#0aa5a5" stroke-miterlimit="10" stroke-width="0.368"/>
  <line id="Line_111" data-name="Line 111" x1="113.851" transform="translate(14.415 151.454)" fill="none" stroke="#0aa5a5" stroke-miterlimit="10" stroke-width="0.368"/>
  <g id="Group_264" data-name="Group 264">
    <g id="Group_263" data-name="Group 263" clip-path="url(#clip-path)">
      <line id="Line_112" data-name="Line 112" y2="85.389" transform="translate(156.729 80.296)" fill="none" stroke="#0aa5a5" stroke-miterlimit="10" stroke-width="0.368"/>
    </g>
  </g>
  <line id="Line_113" data-name="Line 113" x2="42.694" transform="translate(128.266 94.528)" fill="none" stroke="#0aa5a5" stroke-miterlimit="10" stroke-width="0.368"/>
  <line id="Line_114" data-name="Line 114" x2="56.926" transform="translate(42.878 122.991)" fill="none" stroke="#0aa5a5" stroke-miterlimit="10" stroke-width="0.368"/>
  <line id="Line_115" data-name="Line 115" y2="42.693" transform="translate(114.035 66.066)" fill="none" stroke="#0aa5a5" stroke-miterlimit="10" stroke-width="0.368"/>
  <g id="Group_266" data-name="Group 266">
    <g id="Group_265" data-name="Group 265" clip-path="url(#clip-path)">
      <line id="Line_116" data-name="Line 116" x2="128.082" transform="translate(0.184 80.296)" fill="none" stroke="#0aa5a5" stroke-miterlimit="10" stroke-width="0.368"/>
    </g>
  </g>
  <line id="Line_117" data-name="Line 117" y2="71.156" transform="translate(28.646 23.371)" fill="none" stroke="#0aa5a5" stroke-miterlimit="10" stroke-width="0.368"/>
  <g id="Group_268" data-name="Group 268">
    <g id="Group_267" data-name="Group 267" clip-path="url(#clip-path)">
      <line id="Line_118" data-name="Line 118" y2="85.388" transform="translate(0.184 9.14)" fill="none" stroke="#0aa5a5" stroke-miterlimit="10" stroke-width="0.368"/>
    </g>
  </g>
  <line id="Line_119" data-name="Line 119" y1="58.385" x2="0.157" transform="translate(85.415 9.14)" fill="none" stroke="#0aa5a5" stroke-miterlimit="10" stroke-width="0.285"/>
  <rect id="Rectangle_2082" data-name="Rectangle 2082" width="14.231" height="14.231" transform="translate(57.109 122.991)" fill="#00ccd1"/>
  <rect id="Rectangle_2083" data-name="Rectangle 2083" width="14.231" height="14.23" transform="translate(57.109 66.066)" fill="#0aa5a5"/>
  <rect id="Rectangle_2084" data-name="Rectangle 2084" width="14.231" height="14.23" transform="translate(71.34 66.066)" fill="#00ccd1"/>
  <rect id="Rectangle_2085" data-name="Rectangle 2085" width="14.231" height="28.424" transform="translate(114.035 37.564)" fill="#0aa5a5"/>
  <g id="Group_294" data-name="Group 294">
    <g id="Group_293" data-name="Group 293" clip-path="url(#clip-path)">
      <path id="Path_797" data-name="Path 797" d="M64.225,137.222H71.34v14.231H57.109v-7.115a7.116,7.116,0,0,1,7.116-7.116" fill="#00ccd1"/>
      <rect id="Rectangle_2086" data-name="Rectangle 2086" width="14.231" height="14.231" transform="translate(71.34 137.222)" fill="#00ccd1"/>
      <rect id="Rectangle_2087" data-name="Rectangle 2087" width="14.231" height="14.231" transform="translate(0.184 37.603)" fill="#0aa5a5"/>
      <path id="Path_798" data-name="Path 798" d="M7.3,51.834h7.116V66.065H.185V58.949A7.114,7.114,0,0,1,7.3,51.834" fill="#00ccd1"/>
      <rect id="Rectangle_2088" data-name="Rectangle 2088" width="14.231" height="14.231" transform="translate(14.454 51.756)" fill="#00ccd1"/>
      <path id="Path_799" data-name="Path 799" d="M57.109,94.528H71.34a14.231,14.231,0,0,1,14.232,14.231v14.232H57.109Z" fill="#0aa5a5"/>
      <path id="Path_800" data-name="Path 800" d="M114.035,66.066H99.8A14.232,14.232,0,0,1,85.572,51.835V37.6h28.463Z" fill="#00ccd1"/>
      <path id="Path_801" data-name="Path 801" d="M57.109,65.988H42.878A14.231,14.231,0,0,1,28.646,51.757V37.525H42.878A14.231,14.231,0,0,1,57.109,51.757Z" fill="#86eae4"/>
      <path id="Path_802" data-name="Path 802" d="M28.646,51.834A14.23,14.23,0,0,0,14.42,37.6V66.065A14.231,14.231,0,0,0,28.646,51.834" fill="#0aa5a5"/>
      <path id="Path_803" data-name="Path 803" d="M71.338,51.831A14.23,14.23,0,0,0,85.569,37.6H57.107A14.231,14.231,0,0,0,71.338,51.831" fill="#86eae4"/>
      <path id="Path_804" data-name="Path 804" d="M142.5,51.834A14.231,14.231,0,0,0,128.272,37.6V66.065A14.231,14.231,0,0,0,142.5,51.834" fill="#86eae4"/>
      <path id="Path_805" data-name="Path 805" d="M99.8,51.829A14.231,14.231,0,0,0,114.034,37.6H85.572A14.231,14.231,0,0,0,99.8,51.829" fill="#0aa5a5"/>
      <path id="Path_806" data-name="Path 806" d="M71.34,51.837A14.231,14.231,0,0,0,57.106,66.06l28.463.006A14.231,14.231,0,0,0,71.34,51.837" fill="#0aa5a5"/>
      <path id="Path_807" data-name="Path 807" d="M71.34,108.763A14.233,14.233,0,0,0,85.575,94.538l-28.463-.005a14.232,14.232,0,0,0,14.228,14.23" fill="#86eae4"/>
      <path id="Path_808" data-name="Path 808" d="M85.569,94.535a14.232,14.232,0,0,0-28.463-.007v0l28.463.006Z" fill="#00ccd1"/>
      <path id="Path_809" data-name="Path 809" d="M78.453,94.55a7.116,7.116,0,0,0-14.231,0v0l14.231,0Z" fill="#0aa5a5"/>
      <path id="Path_810" data-name="Path 810" d="M64.221,94.556a7.116,7.116,0,0,0,14.231,0v0l-14.231,0Z" fill="#00ccd1"/>
      <path id="Path_811" data-name="Path 811" d="M114.035,122.991H99.8a28.462,28.462,0,0,0,28.462,28.463V137.222a14.23,14.23,0,0,1-14.231-14.231" fill="#0aa5a5"/>
      <path id="Path_812" data-name="Path 812" d="M128.266,108.759V94.528A28.462,28.462,0,0,0,99.8,122.99h14.232a14.231,14.231,0,0,1,14.231-14.231" fill="#86eae4"/>
      <path id="Path_813" data-name="Path 813" d="M128.266,94.528v14.231A14.233,14.233,0,0,1,142.5,122.991h14.232a28.463,28.463,0,0,0-28.463-28.463" fill="#0aa5a5"/>
      <path id="Path_814" data-name="Path 814" d="M128.266,137.222v14.231a28.462,28.462,0,0,0,28.463-28.462H142.5a14.231,14.231,0,0,1-14.231,14.231" fill="#00ccd1"/>
      <rect id="Rectangle_2089" data-name="Rectangle 2089" width="14.231" height="14.231" transform="translate(142.498 137.222)" fill="#0aa5a5"/>
      <rect id="Rectangle_2090" data-name="Rectangle 2090" width="14.231" height="14.23" transform="translate(142.522 108.761)" fill="#00ccd1"/>
      <path id="Path_815" data-name="Path 815" d="M156.729,122.991h0v14.231H142.5a14.231,14.231,0,0,1,14.231-14.231" fill="#86eae4"/>
      <path id="Path_816" data-name="Path 816" d="M142.523,122.991a7.116,7.116,0,1,0,14.231,0Z" fill="#00ccd1"/>
      <path id="Path_817" data-name="Path 817" d="M156.754,122.991h0a7.116,7.116,0,0,0-14.231,0v.029h14.231Z" fill="#0aa5a5"/>
      <path id="Path_818" data-name="Path 818" d="M156.754,151.424h0a7.116,7.116,0,0,0-14.231,0v.029h14.231Z" fill="#86eae4"/>
      <rect id="Rectangle_2091" data-name="Rectangle 2091" width="14.231" height="14.231" transform="translate(142.498 94.528)" fill="#0aa5a5"/>
      <path id="Path_819" data-name="Path 819" d="M142.523,94.528a7.116,7.116,0,1,0,14.231,0Z" fill="#00ccd1"/>
      <path id="Path_820" data-name="Path 820" d="M85.572,137.222a14.231,14.231,0,0,0-14.231-14.231v14.231Z" fill="#0aa5a5"/>
      <path id="Path_821" data-name="Path 821" d="M71.34,137.222v14.231a14.23,14.23,0,0,0,14.231-14.231Z" fill="#86eae4"/>
      <g id="Group_274" data-name="Group 274" style="isolation: isolate">
        <g id="Group_273" data-name="Group 273">
          <g id="Group_272" data-name="Group 272" clip-path="url(#clip-path-5)">
            <g id="Group_271" data-name="Group 271" style="isolation: isolate">
              <g id="Group_270" data-name="Group 270">
                <g id="Group_269" data-name="Group 269" clip-path="url(#clip-path-5)">
                  <text id="_1_2" data-name="1/2" transform="translate(80.609 4.871)" font-size="5.693" font-family="Roboto-Light, Roboto" font-weight="300"><tspan x="0" y="0">1/2</tspan></text>
                </g>
              </g>
            </g>
          </g>
        </g>
      </g>
      <g id="Group_280" data-name="Group 280" style="isolation: isolate">
        <g id="Group_279" data-name="Group 279">
          <g id="Group_278" data-name="Group 278" clip-path="url(#clip-path-7)">
            <g id="Group_277" data-name="Group 277" style="isolation: isolate">
              <g id="Group_276" data-name="Group 276">
                <g id="Group_275" data-name="Group 275" clip-path="url(#clip-path-7)">
                  <text id="_14pt" data-name="14pt" transform="translate(174.758 96.596)" font-size="5.693" font-family="Roboto-Light, Roboto" font-weight="300"><tspan x="0" y="0">14pt</tspan></text>
                </g>
              </g>
            </g>
          </g>
        </g>
      </g>
      <g id="Group_286" data-name="Group 286" style="isolation: isolate">
        <g id="Group_285" data-name="Group 285">
          <g id="Group_284" data-name="Group 284" clip-path="url(#clip-path-9)">
            <g id="Group_283" data-name="Group 283" style="isolation: isolate">
              <g id="Group_282" data-name="Group 282">
                <g id="Group_281" data-name="Group 281" clip-path="url(#clip-path-9)">
                  <text id="T" transform="translate(4.24 152.875)" font-size="5.693" font-family="Roboto-Light, Roboto" font-weight="300"><tspan x="0" y="0">T</tspan></text>
                  <path id="Path_822" data-name="Path 822" d="M4.24,151.372Z" fill="none" stroke="#000" stroke-miterlimit="10" stroke-width="0.278"/>
                </g>
              </g>
            </g>
          </g>
        </g>
      </g>
      <g id="Group_292" data-name="Group 292" style="isolation: isolate">
        <g id="Group_291" data-name="Group 291">
          <g id="Group_290" data-name="Group 290" clip-path="url(#clip-path-11)">
            <g id="Group_289" data-name="Group 289" style="isolation: isolate">
              <g id="Group_288" data-name="Group 288">
                <g id="Group_287" data-name="Group 287" clip-path="url(#clip-path-11)">
                  <text id="_50_" data-name="50%" transform="translate(26.799 104.187)" font-size="5.693" font-family="Roboto-Light, Roboto" font-weight="300"><tspan x="0" y="0">50%</tspan></text>
                </g>
              </g>
            </g>
          </g>
        </g>
      </g>
    </g>
  </g>
</svg>
