<svg xmlns="http://www.w3.org/2000/svg" width="265.015" height="343" viewBox="0 0 265.015 343">
  <g id="Group_87" data-name="Group 87" transform="translate(-433.109 -6678)">
    <g id="Group_43" data-name="Group 43" transform="translate(317 6009)">
      <line id="Line_59" data-name="Line 59" y2="75" transform="translate(275 925)" fill="none" stroke="#1a2a3a" stroke-miterlimit="10" stroke-width="2"/>
      <path id="Path_631" data-name="Path 631" d="M175,850H125a50,50,0,0,1,50-50Z" fill="#f4455a"/>
      <rect id="Rectangle_1962" data-name="Rectangle 1962" width="75" height="125" transform="translate(175 800)" fill="#eeeff1"/>
      <rect id="Rectangle_1963" data-name="Rectangle 1963" width="75" height="125" transform="translate(250 800)" fill="#bfc0c1"/>
      <path id="Rectangle_1966" data-name="Rectangle 1966" d="M25,0H50a0,0,0,0,1,0,0V25A25,25,0,0,1,25,50H0a0,0,0,0,1,0,0V25A25,25,0,0,1,25,0Z" transform="translate(375 900) rotate(90)" fill="#ef0b1e"/>
      <path id="Rectangle_1967" data-name="Rectangle 1967" d="M0,0H25A25,25,0,0,1,50,25V50a0,0,0,0,1,0,0H25A25,25,0,0,1,0,25V0A0,0,0,0,1,0,0Z" transform="translate(325 900) rotate(-90)" fill="#f4455a"/>
      <path id="Rectangle_1968" data-name="Rectangle 1968" d="M75,0h0a0,0,0,0,1,0,0V75a0,0,0,0,1,0,0H0a0,0,0,0,1,0,0v0A75,75,0,0,1,75,0Z" transform="translate(175 725)" fill="#eeeff1"/>
      <path id="Rectangle_1969" data-name="Rectangle 1969" d="M0,0H75a0,0,0,0,1,0,0V75a0,0,0,0,1,0,0h0A75,75,0,0,1,0,0V0A0,0,0,0,1,0,0Z" transform="translate(325 800) rotate(-180)" fill="#bfc0c1"/>
      <circle id="Ellipse_7" data-name="Ellipse 7" cx="12.5" cy="12.5" r="12.5" transform="translate(200 775)" fill="#00ccd1"/>
      <path id="Path_632" data-name="Path 632" d="M325,875v75a75,75,0,0,1-75-75Z" fill="#86eae4"/>
      <path id="Path_633" data-name="Path 633" d="M250,875V800a75,75,0,0,1,75,75Z" fill="#00ccd1"/>
      <line id="Line_60" data-name="Line 60" y2="75" transform="translate(225 925)" fill="none" stroke="#1a2a3a" stroke-miterlimit="10" stroke-width="2"/>
      <line id="Line_61" data-name="Line 61" x2="150" transform="translate(175 1000)" fill="none" stroke="#1a2a3a" stroke-miterlimit="10" stroke-width="2"/>
      <g id="Group_45" data-name="Group 45">
        <path id="Rectangle_1970" data-name="Rectangle 1970" d="M12.5,0H25a0,0,0,0,1,0,0V12.5A12.5,12.5,0,0,1,12.5,25H0a0,0,0,0,1,0,0V12.5A12.5,12.5,0,0,1,12.5,0Z" transform="translate(250 700)" fill="#ef0b1e"/>
        <path id="Rectangle_1971" data-name="Rectangle 1971" d="M0,0H12.5A12.5,12.5,0,0,1,25,12.5V25a0,0,0,0,1,0,0H12.5A12.5,12.5,0,0,1,0,12.5V0A0,0,0,0,1,0,0Z" transform="translate(250 725) rotate(-180)" fill="#f4455a"/>
      </g>
    </g>
    <g id="Group_44" data-name="Group 44" transform="translate(250.5 270.5)">
      <line id="Line_24" data-name="Line 24" y2="343" transform="translate(216.5 6407.5)" fill="none" stroke="#00ccd1" stroke-width="0.5"/>
      <line id="Line_39" data-name="Line 39" y2="343" transform="translate(191.5 6407.5)" fill="none" stroke="#00ccd1" stroke-width="0.5"/>
      <line id="Line_31" data-name="Line 31" y2="265.015" transform="translate(447.625 6438.5) rotate(90)" fill="none" stroke="#00ccd1" stroke-width="0.5"/>
      <line id="Line_38" data-name="Line 38" y2="265.015" transform="translate(447.625 6413.5) rotate(90)" fill="none" stroke="#00ccd1" stroke-width="0.5"/>
      <line id="Line_25" data-name="Line 25" y2="343" transform="translate(241.5 6407.5)" fill="none" stroke="#00ccd1" stroke-width="0.5"/>
      <line id="Line_32" data-name="Line 32" y2="265.015" transform="translate(447.625 6463.5) rotate(90)" fill="none" stroke="#00ccd1" stroke-width="0.5"/>
      <line id="Line_26" data-name="Line 26" y2="343" transform="translate(266.5 6407.5)" fill="none" stroke="#00ccd1" stroke-width="0.5"/>
      <line id="Line_33" data-name="Line 33" y2="265.015" transform="translate(447.625 6488.5) rotate(90)" fill="none" stroke="#00ccd1" stroke-width="0.5"/>
      <line id="Line_27" data-name="Line 27" y2="343" transform="translate(291.5 6407.5)" fill="none" stroke="#00ccd1" stroke-width="0.5"/>
      <line id="Line_34" data-name="Line 34" y2="265.015" transform="translate(447.625 6513.5) rotate(90)" fill="none" stroke="#00ccd1" stroke-width="0.5"/>
      <line id="Line_28" data-name="Line 28" y2="343" transform="translate(316.5 6407.5)" fill="none" stroke="#00ccd1" stroke-width="0.5"/>
      <line id="Line_35" data-name="Line 35" y2="265.015" transform="translate(447.625 6538.5) rotate(90)" fill="none" stroke="#00ccd1" stroke-width="0.5"/>
      <line id="Line_29" data-name="Line 29" y2="343" transform="translate(341.5 6407.5)" fill="none" stroke="#00ccd1" stroke-width="0.5"/>
      <line id="Line_36" data-name="Line 36" y2="265.015" transform="translate(447.625 6563.5) rotate(90)" fill="none" stroke="#00ccd1" stroke-width="0.5"/>
      <line id="Line_30" data-name="Line 30" y2="343" transform="translate(366.5 6407.5)" fill="none" stroke="#00ccd1" stroke-width="0.5"/>
      <path id="Path_634" data-name="Path 634" d="M0,0V343" transform="translate(391.5 6407.5)" fill="none" stroke="#00ccd1" stroke-width="0.5"/>
      <path id="Path_635" data-name="Path 635" d="M0,0V343" transform="translate(416.5 6407.5)" fill="none" stroke="#00ccd1" stroke-width="0.5"/>
      <path id="Path_636" data-name="Path 636" d="M0,0V343" transform="translate(441.5 6407.5)" fill="none" stroke="#00ccd1" stroke-width="0.5"/>
      <line id="Line_37" data-name="Line 37" y2="265.015" transform="translate(447.625 6588.5) rotate(90)" fill="none" stroke="#00ccd1" stroke-width="0.5"/>
      <line id="Line_62" data-name="Line 62" y2="265.015" transform="translate(447.625 6613.5) rotate(90)" fill="none" stroke="#00ccd1" stroke-width="0.5"/>
      <line id="Line_63" data-name="Line 63" y2="265.015" transform="translate(447.625 6638.5) rotate(90)" fill="none" stroke="#00ccd1" stroke-width="0.5"/>
      <line id="Line_64" data-name="Line 64" y2="265.015" transform="translate(447.625 6663.5) rotate(90)" fill="none" stroke="#00ccd1" stroke-width="0.5"/>
      <line id="Line_65" data-name="Line 65" y2="265.015" transform="translate(447.625 6688.5) rotate(90)" fill="none" stroke="#00ccd1" stroke-width="0.5"/>
      <line id="Line_66" data-name="Line 66" y2="265.015" transform="translate(447.625 6713.5) rotate(90)" fill="none" stroke="#00ccd1" stroke-width="0.5"/>
      <line id="Line_67" data-name="Line 67" y2="265.015" transform="translate(447.625 6738.5) rotate(90)" fill="none" stroke="#00ccd1" stroke-width="0.5"/>
    </g>
  </g>
</svg>
