<svg xmlns="http://www.w3.org/2000/svg" width="200" height="175" viewBox="0 0 200 175">
  <g id="Group_24" data-name="Group 24" transform="translate(-1000 -1125)">
    <g id="Group_21" data-name="Group 21">
      <rect id="Rectangle_106" data-name="Rectangle 106" width="50" height="50" transform="translate(1100 1175)" fill="#a7a9ac"/>
      <path id="Path_43" data-name="Path 43" d="M1050,1225a49.982,49.982,0,0,0,50,50v-50Z" fill="#eeeff1"/>
      <path id="Path_44" data-name="Path 44" d="M1100,1275a49.982,49.982,0,0,0,50-50h-50Z" fill="#a7a9ac"/>
    </g>
    <g id="Group_22" data-name="Group 22">
      <path id="Path_45" data-name="Path 45" d="M1050,1175h50v-50A50,50,0,0,0,1050,1175Z" fill="#ef0b1e"/>
      <path id="Path_46" data-name="Path 46" d="M1100,1125v50h50A50,50,0,0,0,1100,1125Z" fill="#00a1a3"/>
    </g>
    <path id="Path_47" data-name="Path 47" d="M1050,1225v-50a50,50,0,0,0-50,50Z" fill="#ef0b1e"/>
    <path id="Path_48" data-name="Path 48" d="M1000,1225v50a50,50,0,0,0,50-50Z" fill="#f4455a"/>
    <path id="Path_49" data-name="Path 49" d="M1200,1225v50a50,50,0,0,1-50-50Z" fill="#86eae4"/>
    <path id="Path_50" data-name="Path 50" d="M1150,1225v-50a50,50,0,0,1,50,50Z" fill="#00ccd1"/>
    <path id="Path_51" data-name="Path 51" d="M1148.893,1300h-49.447a49.447,49.447,0,0,1,49.447-49.446Z" fill="#294760"/>
    <path id="Path_52" data-name="Path 52" d="M1050,1300v-49.446A49.446,49.446,0,0,1,1099.446,1300Z" fill="#1a2a3a"/>
    <rect id="Rectangle_107" data-name="Rectangle 107" width="50" height="50" transform="translate(1050 1175)" fill="#eeeff1"/>
    <circle id="Ellipse_3" data-name="Ellipse 3" cx="12.5" cy="12.5" r="12.5" transform="translate(1062.5 1187.5)"/>
    <circle id="Ellipse_4" data-name="Ellipse 4" cx="12.5" cy="12.5" r="12.5" transform="translate(1112.5 1187.5)"/>
    <g id="Group_23" data-name="Group 23">
      <path id="Path_53" data-name="Path 53" d="M1100,1225v25a25,25,0,0,0,25-25Z" fill="#f4455a"/>
      <path id="Path_54" data-name="Path 54" d="M1075,1225a25,25,0,0,0,25,25v-25Z" fill="#ef0b1e"/>
    </g>
  </g>
</svg>
