<svg xmlns="http://www.w3.org/2000/svg" width="23" height="22" viewBox="0 0 23 22">
  <g id="Group_61" data-name="Group 61" transform="translate(0.333 -0.334)">
    <g id="Group_63" data-name="Group 63" transform="translate(0 0)">
      <g id="Rectangle_280" data-name="Rectangle 280">
        <rect id="Rectangle_1961" data-name="Rectangle 1961" width="23" height="22" transform="translate(-0.333 0.334)" fill="#bfc0c1"/>
      </g>
      <g id="iconfinder_201-LinkedIn_192159" data-name="iconfinder 201-LinkedIn 192159" transform="translate(3.78 4.354)">
        <g id="Path_19" data-name="Path 19">
          <path id="Path_630" data-name="Path 630" d="M2311.159,1555.856v-5.721a1.7,1.7,0,0,0-1.65-1.531,1.8,1.8,0,0,0-1.751,1.455v5.8h-3.051l.05-9.451h2.951l-.024,1.192a2.965,2.965,0,0,1,2.934-1.553c2.317,0,3.367,1.332,3.563,3.822v5.994Zm-10.191-10.794a1.69,1.69,0,1,1-.415-3.354,1.709,1.709,0,0,1,.415,0,1.69,1.69,0,1,1,0,3.354Zm1.882,10.805h-3.75v-9.439l3.75-.024Z" transform="translate(-2299.07 -1541.695)" fill="#fff"/>
        </g>
      </g>
    </g>
  </g>
</svg>
