<svg xmlns="http://www.w3.org/2000/svg" width="205.511" height="46.811" viewBox="0 0 205.511 46.811">
  <g id="Group_393" data-name="Group 393" transform="translate(0 -1.097)">
    <path id="Path_893" data-name="Path 893" d="M51.006,24.5l6.284,6.284L63.575,24.5,57.29,18.217Zm-4.2,0L57.29,14.017,67.775,24.5,57.29,34.986ZM0,24.5,23.4,47.908,40.346,30.964,57.29,47.908,74.238,30.959,91.189,47.908,106.037,33.06,89.092,16.117l2.1-2.1,16.944,16.947,6.459-6.459L91.191,1.1,76.344,15.948,93.288,32.893l-2.1,2.1L57.294,1.1,23.405,34.993,12.921,24.508,23.405,14.024l2.1,2.1L17.12,24.508,23.4,30.792,38.251,15.945,23.4,1.1Z" fill="#ef0b1e"/>
    <g id="Group_369" data-name="Group 369" transform="translate(130.223 11.938)">
      <g id="Group_391" data-name="Group 391" transform="translate(0 0)">
        <path id="Path_894" data-name="Path 894" d="M163.937,10.969a3.984,3.984,0,0,1-2.851-.921,3.593,3.593,0,0,1-.966-2.726V1.011h2.261V6.653a2.756,2.756,0,0,0,.35,1.6,1.411,1.411,0,0,0,1.2.467,1.4,1.4,0,0,0,1.192-.467,2.755,2.755,0,0,0,.351-1.6V1.011h2.273V7.322a3.594,3.594,0,0,1-.966,2.726,3.984,3.984,0,0,1-2.851.921" transform="translate(-159.196 -0.597)"/>
        <rect id="Rectangle_2148" data-name="Rectangle 2148" width="2.273" height="9.768" transform="translate(10.848 0.415)"/>
        <path id="Path_895" data-name="Path 895" d="M191.947,11.6,196.8,0h1.843l-4.853,11.6Z" transform="translate(-177.984 0)"/>
        <path id="Path_896" data-name="Path 896" d="M213.776,10.969a3.982,3.982,0,0,1-2.85-.921,3.593,3.593,0,0,1-.966-2.726V1.011h2.261V6.653a2.756,2.756,0,0,0,.35,1.6,1.41,1.41,0,0,0,1.2.467,1.4,1.4,0,0,0,1.193-.467,2.758,2.758,0,0,0,.351-1.6V1.011h2.273V7.322a3.593,3.593,0,0,1-.966,2.726,3.983,3.983,0,0,1-2.851.921" transform="translate(-188.617 -0.597)"/>
        <path id="Path_897" data-name="Path 897" d="M230.846,10.78l3.669-5.263-3.062-4.505h2.7l1.761,2.617,1.749-2.617h2.7l-3.062,4.505,3.674,5.263h-2.809l-2.256-3.274-2.261,3.274Z" transform="translate(-200.946 -0.597)"/>
        <path id="Path_898" data-name="Path 898" d="M161.52,45.4a5.9,5.9,0,0,1-1.219-.121,5.756,5.756,0,0,1-1.039-.32,6.417,6.417,0,0,1-.824-.415,3.851,3.851,0,0,1-.575-.412L159,42.211c.157.114.332.235.524.361a5.234,5.234,0,0,0,.624.35,4.3,4.3,0,0,0,.7.261,2.756,2.756,0,0,0,.736.1,1.664,1.664,0,0,0,.61-.1.833.833,0,0,0,.395-.3.855.855,0,0,0,.138-.5.928.928,0,0,0-.126-.492,1.306,1.306,0,0,0-.386-.385,4.88,4.88,0,0,0-.656-.367q-.4-.189-.939-.438a4.612,4.612,0,0,1-.748-.429,3.118,3.118,0,0,1-.6-.553,2.414,2.414,0,0,1-.4-.684,2.253,2.253,0,0,1-.144-.814,2.671,2.671,0,0,1,.236-1.1,3.075,3.075,0,0,1,.666-.948,3.164,3.164,0,0,1,1.034-.666,3.528,3.528,0,0,1,1.34-.245,4.751,4.751,0,0,1,1.057.124,6.387,6.387,0,0,1,1.039.332,4.094,4.094,0,0,1,.848.468L164.023,38a3.829,3.829,0,0,0-.606-.347,3.659,3.659,0,0,0-.68-.234,2.952,2.952,0,0,0-.68-.083,1.537,1.537,0,0,0-.6.1.854.854,0,0,0-.379.29.733.733,0,0,0-.133.435.644.644,0,0,0,.077.32.684.684,0,0,0,.232.237,2.824,2.824,0,0,0,.395.2q.238.1.544.245.731.308,1.293.61a4.674,4.674,0,0,1,.945.651,2.365,2.365,0,0,1,.583.811,2.714,2.714,0,0,1,.2,1.084,2.922,2.922,0,0,1-.456,1.649,2.886,2.886,0,0,1-1.287,1.054,4.832,4.832,0,0,1-1.955.364" transform="translate(-157.863 -20.815)"/>
        <path id="Path_899" data-name="Path 899" d="M183.177,45.4a4.69,4.69,0,0,1-1.908-.391,4.873,4.873,0,0,1-1.56-1.086,5.194,5.194,0,0,1,0-7.182,4.873,4.873,0,0,1,1.56-1.086,4.859,4.859,0,0,1,3.817,0,4.867,4.867,0,0,1,1.56,1.086,5.193,5.193,0,0,1,0,7.182,4.867,4.867,0,0,1-1.56,1.086,4.69,4.69,0,0,1-1.908.391m-.006-2.2a2.4,2.4,0,0,0,1-.2,2.224,2.224,0,0,0,.777-.587,2.744,2.744,0,0,0,.506-.908,3.872,3.872,0,0,0,0-2.333,2.76,2.76,0,0,0-.506-.909,2.225,2.225,0,0,0-.777-.585,2.388,2.388,0,0,0-1-.2,2.349,2.349,0,0,0-.989.2,2.232,2.232,0,0,0-.775.585,2.753,2.753,0,0,0-.506.909,3.88,3.88,0,0,0,0,2.333,2.737,2.737,0,0,0,.506.908,2.23,2.23,0,0,0,.775.587,2.355,2.355,0,0,0,.989.2" transform="translate(-169.914 -20.815)"/>
        <path id="Path_900" data-name="Path 900" d="M206.38,45.462V35.693h2.273v7.762h3.316v2.007Z" transform="translate(-186.504 -21.07)"/>
        <path id="Path_901" data-name="Path 901" d="M226.6,45.651a3.983,3.983,0,0,1-2.85-.921A3.593,3.593,0,0,1,222.783,42V35.693h2.261v5.642a2.754,2.754,0,0,0,.35,1.6,1.409,1.409,0,0,0,1.2.467,1.394,1.394,0,0,0,1.193-.467,2.757,2.757,0,0,0,.351-1.6V35.693h2.273V42a3.593,3.593,0,0,1-.966,2.726,3.983,3.983,0,0,1-2.851.921" transform="translate(-196.187 -21.07)"/>
        <path id="Path_902" data-name="Path 902" d="M245.079,45.462V37.7h-2.285V35.693h6.832V37.7h-2.28v7.761Z" transform="translate(-207.999 -21.07)"/>
        <rect id="Rectangle_2149" data-name="Rectangle 2149" width="2.273" height="9.768" transform="translate(42.927 14.623)"/>
        <path id="Path_903" data-name="Path 903" d="M277.291,45.4a4.689,4.689,0,0,1-1.908-.391,4.871,4.871,0,0,1-1.561-1.086,5.195,5.195,0,0,1,0-7.182,4.87,4.87,0,0,1,1.561-1.086,4.858,4.858,0,0,1,3.816,0,4.869,4.869,0,0,1,1.56,1.086,5.193,5.193,0,0,1,0,7.182,4.869,4.869,0,0,1-1.56,1.086,4.688,4.688,0,0,1-1.908.391m-.006-2.2a2.393,2.393,0,0,0,1-.2,2.216,2.216,0,0,0,.777-.587,2.73,2.73,0,0,0,.506-.908,3.863,3.863,0,0,0,0-2.333,2.746,2.746,0,0,0-.506-.909,2.218,2.218,0,0,0-.777-.585,2.387,2.387,0,0,0-1-.2,2.351,2.351,0,0,0-.989.2,2.226,2.226,0,0,0-.774.585,2.739,2.739,0,0,0-.506.909,3.872,3.872,0,0,0,0,2.333,2.723,2.723,0,0,0,.506.908,2.225,2.225,0,0,0,.774.587,2.357,2.357,0,0,0,.989.2" transform="translate(-225.471 -20.815)"/>
        <path id="Path_904" data-name="Path 904" d="M300.494,45.462V35.693h2.273l3.816,5.974V35.693h2.273v9.768h-2.273l-3.816-5.974v5.974Z" transform="translate(-242.061 -21.07)"/>
        <path id="Path_905" data-name="Path 905" d="M327.34,45.4a5.9,5.9,0,0,1-1.219-.121,5.745,5.745,0,0,1-1.039-.32,6.424,6.424,0,0,1-.824-.415,3.843,3.843,0,0,1-.574-.412l1.137-1.918q.235.171.524.361a5.238,5.238,0,0,0,.624.35,4.285,4.285,0,0,0,.7.261,2.756,2.756,0,0,0,.736.1,1.664,1.664,0,0,0,.61-.1.83.83,0,0,0,.395-.3.856.856,0,0,0,.138-.5.924.924,0,0,0-.127-.492,1.3,1.3,0,0,0-.386-.385,4.931,4.931,0,0,0-.656-.367q-.4-.189-.939-.438a4.634,4.634,0,0,1-.748-.429,3.116,3.116,0,0,1-.6-.553,2.425,2.425,0,0,1-.4-.684,2.262,2.262,0,0,1-.144-.814,2.664,2.664,0,0,1,.236-1.1,3.08,3.08,0,0,1,.665-.948,3.17,3.17,0,0,1,1.034-.666,3.526,3.526,0,0,1,1.339-.245,4.755,4.755,0,0,1,1.057.124,6.386,6.386,0,0,1,1.039.332,4.094,4.094,0,0,1,.848.468L329.843,38a3.792,3.792,0,0,0-.606-.347,3.647,3.647,0,0,0-.68-.234,2.953,2.953,0,0,0-.681-.083,1.535,1.535,0,0,0-.595.1.856.856,0,0,0-.38.29.732.732,0,0,0-.132.435.64.64,0,0,0,.077.32.68.68,0,0,0,.232.237,2.8,2.8,0,0,0,.395.2q.238.1.544.245.731.308,1.293.61a4.668,4.668,0,0,1,.945.651,2.365,2.365,0,0,1,.583.811,2.713,2.713,0,0,1,.2,1.084,2.919,2.919,0,0,1-.456,1.649,2.885,2.885,0,0,1-1.287,1.054,4.834,4.834,0,0,1-1.955.364" transform="translate(-255.75 -20.815)"/>
      </g>
    </g>
  </g>
</svg>
