<svg xmlns="http://www.w3.org/2000/svg" width="238" height="126" viewBox="0 0 238 126">
  <g id="Group_28" data-name="Group 28" transform="translate(-643.05 -1663)">
    <rect id="Rectangle_84" data-name="Rectangle 84" width="238" height="126" transform="translate(643.05 1663)" fill="#294760"/>
    <g id="logo" transform="translate(706.174 1703.727)">
      <path id="Path_1" data-name="Path 1" d="M105.107,31.9l6.076,6.076-6.076,6.072-6.076-6.072Zm16.379,12.313L105.107,60.592,88.73,44.215,72.352,60.592l-22.62-22.62,22.62-22.622L86.7,29.7,72.352,44.045l-6.075-6.073,8.106-8.106-2.031-2.031L62.218,37.972,72.352,48.106l32.755-32.756L137.867,48.1l2.031-2.03L123.521,29.7l14.346-14.349,22.621,22.622-6.243,6.243L137.867,27.832l-2.028,2.031L152.217,46.24l-14.35,14.35Zm-6.247-6.237L105.105,27.835,94.971,37.972l10.134,10.134Z" transform="translate(-49.732 -15.346)"/>
    </g>
  </g>
</svg>
