<svg xmlns="http://www.w3.org/2000/svg" width="114.284" height="46.687" viewBox="0 0 114.284 46.687">
  <path id="Path_1" data-name="Path 1" d="M106.871,32.423l6.27,6.269-6.27,6.265L100.6,38.692Zm16.9,12.706-16.9,16.9-16.9-16.9-16.9,16.9L49.732,38.692,73.073,15.349l14.8,14.806-14.8,14.8L66.8,38.693l8.364-8.364-2.1-2.1L62.616,38.692,73.073,49.149l33.8-33.8,33.8,33.8,2.1-2.095-16.9-16.9,14.8-14.806,23.342,23.343-6.442,6.442-16.9-16.9-2.092,2.1,16.9,16.9L140.674,62.032Zm-6.446-6.436L106.869,28.233,96.412,38.692l10.457,10.457Z" transform="translate(-49.732 -15.346)" fill="#fff"/>
</svg>
