<svg xmlns="http://www.w3.org/2000/svg" width="178.718" height="133.849" viewBox="0 0 178.718 133.849">
  <g id="Group_442" data-name="Group 442" transform="translate(-988.119 -1368)">
    <g id="Group_367" data-name="Group 367" transform="translate(988.59 1428)">
      <path id="Path_875" data-name="Path 875" d="M78.986,37.6l9.732,9.732L98.451,37.6l-9.733-9.733Zm-6.5,0L88.718,21.367,104.955,37.6,88.718,53.839ZM0,37.6,36.24,73.849l26.239-26.24,26.239,26.24L114.965,47.6l26.248,26.246,22.992-22.992-26.24-26.24,3.251-3.25,26.24,26.242,10-10L141.216,1.363,118.224,24.355,144.464,50.6l-3.251,3.25L88.725,1.37,36.246,53.848,20.01,37.612,36.246,21.375l3.25,3.252L26.51,37.612l9.733,9.733L59.235,24.352,36.243,1.36Z" fill="#ef0b1e"/>
    </g>
    <text id="Logo_without_wordmark" data-name="Logo without 
wordmark" transform="translate(1077 1385)" font-size="16" font-family="Roboto-Bold, Roboto" font-weight="700"><tspan x="-48.813" y="0">Logo without </tspan><tspan x="-36.234" y="20">wordmark</tspan></text>
    <path id="Path_891" data-name="Path 891" d="M403.619,4807.244v-76.466h23.718" transform="translate(585 -3342)" fill="none" stroke="#7e7f7f" stroke-width="1"/>
    <path id="Path_892" data-name="Path 892" d="M427.338,4807.244v-76.466H403.619" transform="translate(739 -3342)" fill="none" stroke="#7e7f7f" stroke-width="1"/>
  </g>
</svg>
