<svg xmlns="http://www.w3.org/2000/svg" width="243.841" height="42.824" viewBox="0 0 243.841 42.824">
  <g id="Group_392" data-name="Group 392" transform="translate(0 0)">
    <path id="Path_893" data-name="Path 893" d="M45.488,21.97l5.6,5.6,5.605-5.6-5.605-5.605Zm-3.746,0,9.35-9.349,9.351,9.349L51.093,31.32ZM0,21.969,20.87,42.844,35.982,27.733,51.093,42.844,66.208,27.729,81.325,42.844,94.566,29.6,79.455,14.492l1.872-1.872L96.438,27.733l5.761-5.761L81.327,1.1,68.085,14.341,83.2,29.453l-1.872,1.873L51.1,1.1,20.873,31.326l-9.35-9.351,9.35-9.35L22.746,14.5l-7.478,7.479,5.605,5.6L34.113,14.339,20.873,1.1Z" transform="translate(0 -0.314)" fill="#ef0b1e"/>
    <g id="Group_369" data-name="Group 369" transform="translate(112.674 0)">
      <g id="Group_391" data-name="Group 391">
        <path id="Path_894" data-name="Path 894" d="M166.77,18.36a6.941,6.941,0,0,1-4.966-1.6,6.259,6.259,0,0,1-1.682-4.749v-11h3.94v9.83a4.8,4.8,0,0,0,.61,2.8,2.459,2.459,0,0,0,2.1.814,2.43,2.43,0,0,0,2.077-.814,4.8,4.8,0,0,0,.612-2.8V1.011h3.96v11a6.262,6.262,0,0,1-1.682,4.749,6.941,6.941,0,0,1-4.966,1.6" transform="translate(-158.509 -0.29)" fill="#ef0b1e"/>
        <rect id="Rectangle_2148" data-name="Rectangle 2148" width="3.961" height="17.019" transform="translate(18.9 0.722)" fill="#ef0b1e"/>
        <path id="Path_895" data-name="Path 895" d="M191.947,20.216,200.4,0h3.211l-8.455,20.215Z" transform="translate(-167.62 0)" fill="#ef0b1e"/>
        <path id="Path_896" data-name="Path 896" d="M216.608,18.36a6.938,6.938,0,0,1-4.966-1.6,6.259,6.259,0,0,1-1.682-4.749v-11h3.94v9.83a4.8,4.8,0,0,0,.61,2.8,2.457,2.457,0,0,0,2.1.814,2.431,2.431,0,0,0,2.078-.814,4.806,4.806,0,0,0,.611-2.8V1.011h3.96v11a6.259,6.259,0,0,1-1.682,4.749,6.939,6.939,0,0,1-4.966,1.6" transform="translate(-172.776 -0.29)" fill="#ef0b1e"/>
        <path id="Path_897" data-name="Path 897" d="M230.846,18.03l6.392-9.169L231.9,1.012h4.709l3.068,4.559,3.048-4.559h4.71L242.1,8.861l6.4,9.169h-4.893l-3.931-5.7-3.94,5.7Z" transform="translate(-178.755 -0.29)" fill="#ef0b1e"/>
        <path id="Path_898" data-name="Path 898" d="M164.235,52.918a10.285,10.285,0,0,1-2.124-.211,10.029,10.029,0,0,1-1.811-.557,11.18,11.18,0,0,1-1.435-.722,6.71,6.71,0,0,1-1-.717l1.981-3.341c.273.2.578.409.914.628a9.116,9.116,0,0,0,1.086.61,7.49,7.49,0,0,0,1.221.454,4.8,4.8,0,0,0,1.283.175,2.9,2.9,0,0,0,1.062-.175,1.452,1.452,0,0,0,.688-.527,1.491,1.491,0,0,0,.241-.866,1.616,1.616,0,0,0-.22-.856,2.275,2.275,0,0,0-.673-.67,8.5,8.5,0,0,0-1.143-.64q-.693-.33-1.637-.763a8.036,8.036,0,0,1-1.3-.748,5.432,5.432,0,0,1-1.052-.964,4.205,4.205,0,0,1-.7-1.191,3.926,3.926,0,0,1-.251-1.419,4.653,4.653,0,0,1,.41-1.918,5.357,5.357,0,0,1,1.16-1.651,5.512,5.512,0,0,1,1.8-1.16,6.147,6.147,0,0,1,2.334-.428,8.277,8.277,0,0,1,1.841.216,11.125,11.125,0,0,1,1.811.578,7.132,7.132,0,0,1,1.478.815l-1.6,3.166a6.672,6.672,0,0,0-1.056-.6,6.375,6.375,0,0,0-1.186-.407,5.143,5.143,0,0,0-1.185-.145,2.678,2.678,0,0,0-1.037.181,1.489,1.489,0,0,0-.661.5,1.276,1.276,0,0,0-.231.758,1.122,1.122,0,0,0,.133.557,1.19,1.19,0,0,0,.4.413,4.918,4.918,0,0,0,.688.356q.415.18.949.428,1.273.536,2.253,1.063a8.144,8.144,0,0,1,1.646,1.134,4.12,4.12,0,0,1,1.016,1.413,4.727,4.727,0,0,1,.349,1.888,5.091,5.091,0,0,1-.8,2.872,5.028,5.028,0,0,1-2.243,1.836,8.418,8.418,0,0,1-3.406.635" transform="translate(-157.863 -10.094)" fill="#ef0b1e"/>
        <path id="Path_899" data-name="Path 899" d="M186.813,52.918a8.171,8.171,0,0,1-3.325-.681,8.491,8.491,0,0,1-2.719-1.892,9.05,9.05,0,0,1,0-12.512,8.491,8.491,0,0,1,2.719-1.892,8.465,8.465,0,0,1,6.649,0,8.48,8.48,0,0,1,2.718,1.892,9.047,9.047,0,0,1,0,12.512,8.479,8.479,0,0,1-2.718,1.892,8.171,8.171,0,0,1-3.325.681m-.01-3.836a4.172,4.172,0,0,0,1.739-.356A3.874,3.874,0,0,0,189.9,47.7a4.781,4.781,0,0,0,.882-1.582,6.746,6.746,0,0,0,0-4.064,4.81,4.81,0,0,0-.882-1.584,3.877,3.877,0,0,0-1.354-1.02A4.161,4.161,0,0,0,186.8,39.1a4.093,4.093,0,0,0-1.724.356,3.888,3.888,0,0,0-1.35,1.02,4.8,4.8,0,0,0-.882,1.584,6.76,6.76,0,0,0,0,4.064,4.769,4.769,0,0,0,.882,1.582,3.885,3.885,0,0,0,1.35,1.022,4.1,4.1,0,0,0,1.724.356" transform="translate(-163.707 -10.094)" fill="#ef0b1e"/>
        <path id="Path_900" data-name="Path 900" d="M206.38,52.712V35.693h3.961V49.216h5.776v3.5Z" transform="translate(-171.751 -10.218)" fill="#ef0b1e"/>
        <path id="Path_901" data-name="Path 901" d="M229.431,53.042a6.939,6.939,0,0,1-4.966-1.6,6.26,6.26,0,0,1-1.682-4.749v-11h3.94v9.83a4.8,4.8,0,0,0,.61,2.8,2.455,2.455,0,0,0,2.1.814,2.429,2.429,0,0,0,2.078-.814,4.8,4.8,0,0,0,.611-2.8v-9.83h3.96v11a6.26,6.26,0,0,1-1.682,4.749,6.939,6.939,0,0,1-4.966,1.6" transform="translate(-176.447 -10.217)" fill="#ef0b1e"/>
        <path id="Path_902" data-name="Path 902" d="M246.775,52.712V39.19h-3.981v-3.5h11.9v3.5h-3.972V52.712Z" transform="translate(-182.175 -10.218)" fill="#ef0b1e"/>
        <rect id="Rectangle_2149" data-name="Rectangle 2149" width="3.961" height="17.019" transform="translate(74.788 25.476)" fill="#ef0b1e"/>
        <path id="Path_903" data-name="Path 903" d="M280.928,52.918a8.169,8.169,0,0,1-3.325-.681,8.486,8.486,0,0,1-2.719-1.892,9.05,9.05,0,0,1,0-12.512,8.486,8.486,0,0,1,2.719-1.892,8.463,8.463,0,0,1,6.649,0,8.482,8.482,0,0,1,2.719,1.892,9.047,9.047,0,0,1,0,12.512,8.482,8.482,0,0,1-2.719,1.892,8.168,8.168,0,0,1-3.324.681m-.011-3.836a4.169,4.169,0,0,0,1.739-.356,3.861,3.861,0,0,0,1.354-1.022,4.756,4.756,0,0,0,.882-1.582,6.732,6.732,0,0,0,0-4.064,4.785,4.785,0,0,0-.882-1.584,3.864,3.864,0,0,0-1.354-1.02,4.158,4.158,0,0,0-1.739-.356,4.1,4.1,0,0,0-1.724.356,3.879,3.879,0,0,0-1.349,1.02,4.772,4.772,0,0,0-.882,1.584,6.745,6.745,0,0,0,0,4.064,4.744,4.744,0,0,0,.882,1.582,3.876,3.876,0,0,0,1.349,1.022,4.106,4.106,0,0,0,1.724.356" transform="translate(-190.647 -10.094)" fill="#ef0b1e"/>
        <path id="Path_904" data-name="Path 904" d="M300.494,52.712V35.693h3.961L311.1,46.1V35.693h3.961V52.712H311.1L304.455,42.3V52.712Z" transform="translate(-198.692 -10.218)" fill="#ef0b1e"/>
        <path id="Path_905" data-name="Path 905" d="M330.055,52.918a10.275,10.275,0,0,1-2.124-.211,10.012,10.012,0,0,1-1.811-.557,11.193,11.193,0,0,1-1.436-.722,6.7,6.7,0,0,1-1-.717l1.981-3.341q.409.3.913.628a9.124,9.124,0,0,0,1.087.61,7.467,7.467,0,0,0,1.221.454,4.8,4.8,0,0,0,1.283.175,2.9,2.9,0,0,0,1.062-.175,1.446,1.446,0,0,0,.687-.527,1.491,1.491,0,0,0,.241-.866,1.61,1.61,0,0,0-.221-.856,2.264,2.264,0,0,0-.672-.67,8.6,8.6,0,0,0-1.143-.64q-.693-.33-1.637-.763a8.073,8.073,0,0,1-1.3-.748,5.429,5.429,0,0,1-1.051-.964,4.224,4.224,0,0,1-.7-1.191,3.94,3.94,0,0,1-.251-1.419,4.642,4.642,0,0,1,.41-1.918,5.367,5.367,0,0,1,1.159-1.651,5.524,5.524,0,0,1,1.8-1.16,6.143,6.143,0,0,1,2.333-.428,8.284,8.284,0,0,1,1.842.216,11.124,11.124,0,0,1,1.811.578,7.132,7.132,0,0,1,1.478.815l-1.6,3.166a6.607,6.607,0,0,0-1.056-.6,6.35,6.35,0,0,0-1.185-.407,5.144,5.144,0,0,0-1.186-.145,2.674,2.674,0,0,0-1.036.181,1.491,1.491,0,0,0-.662.5,1.276,1.276,0,0,0-.231.758,1.115,1.115,0,0,0,.133.557,1.184,1.184,0,0,0,.4.413,4.878,4.878,0,0,0,.688.356q.415.18.949.428,1.273.536,2.253,1.063a8.13,8.13,0,0,1,1.647,1.134,4.121,4.121,0,0,1,1.016,1.413,4.728,4.728,0,0,1,.348,1.888,5.085,5.085,0,0,1-.8,2.872,5.026,5.026,0,0,1-2.242,1.836,8.422,8.422,0,0,1-3.406.635" transform="translate(-205.33 -10.094)" fill="#ef0b1e"/>
      </g>
    </g>
  </g>
</svg>
