<svg xmlns="http://www.w3.org/2000/svg" width="45.246" height="110.756" viewBox="0 0 45.246 110.756">
  <g id="logo" transform="translate(0 110.756) rotate(-90)">
    <path id="Path_1" data-name="Path 1" d="M55.375,16.55l6.076,6.076L55.375,28.7,49.3,22.626ZM71.755,28.863,55.375,45.246,39,28.869,22.62,45.246,0,22.626,22.62,0,36.967,14.352,22.62,28.7l-6.075-6.073,8.106-8.106L22.62,12.489,12.486,22.626,22.62,32.76,55.375,0l32.76,32.754,2.031-2.03L73.789,14.349,88.135,0l22.621,22.622-6.243,6.243L88.135,12.486l-2.028,2.031,16.378,16.377-14.35,14.35Zm-6.247-6.237L55.373,12.489,45.239,22.626,55.373,32.76Z"/>
  </g>
</svg>
