<svg xmlns="http://www.w3.org/2000/svg" width="272.285" height="64" viewBox="0 0 272.285 64">
  <g id="Group_394" data-name="Group 394" transform="translate(-353 -3255.185)">
    <g id="Group_390" data-name="Group 390" transform="translate(353 3260.164)">
      <path id="Path_893" data-name="Path 893" d="M53.979,25.867l6.65,6.65,6.651-6.65-6.651-6.651Zm-4.445,0,11.1-11.094,11.1,11.094-11.1,11.1ZM0,25.865,24.765,50.636,42.7,32.7,60.629,50.636,78.565,32.7,96.5,50.636l15.713-15.713L94.285,16.992l2.222-2.222L114.438,32.7l6.836-6.836L96.507,1.1,80.794,16.813,98.726,34.746,96.5,36.969,60.633,1.1,24.77,36.969l-11.1-11.1,11.1-11.1L26.991,17l-8.874,8.875,6.651,6.65L40.481,16.811,24.769,1.1Z" transform="translate(0 -1.097)" fill="#ef0b1e"/>
    </g>
    <text id="UI_UX_SOLUTIONS" data-name="UI/UX
SOLUTIONS" transform="translate(487.285 3279.185)" font-size="25" font-family="Silom"><tspan x="0" y="0">UI/UX</tspan><tspan x="0" y="32">SOLUTIONS</tspan></text>
  </g>
</svg>
