<svg xmlns="http://www.w3.org/2000/svg" xmlns:xlink="http://www.w3.org/1999/xlink" width="440.647" height="126.8" viewBox="0 0 440.647 126.8">
  <defs>
    <clipPath id="clip-path">
      <rect id="Rectangle_2313" data-name="Rectangle 2313" width="432.334" height="76.8" fill="none"/>
    </clipPath>
  </defs>
  <g id="Group_549" data-name="Group 549" transform="translate(-627 -1140)">
    <g id="Group_439" data-name="Group 439" transform="translate(52.381 14)">
      <text id="Main_logo" data-name="Main logo" transform="translate(760 1143)" font-size="16" font-family="Roboto-Bold, Roboto" font-weight="700"><tspan x="0" y="0">Main logo</tspan></text>
      <path id="Path_889" data-name="Path 889" d="M534.766,4807.244v-76.466H393.619" transform="translate(480 -3594)" fill="none" stroke="#7e7f7f" stroke-width="1"/>
      <path id="Path_890" data-name="Path 890" d="M403.619,4807.244v-76.466H544.766" transform="translate(173 -3594)" fill="none" stroke="#7e7f7f" stroke-width="1"/>
    </g>
    <g id="Group_518" data-name="Group 518" transform="translate(627 1190)">
      <path id="Path_1087" data-name="Path 1087" d="M81.722,38.792l10.07,10.069,10.069-10.069L91.792,28.722Zm-6.729,0,16.8-16.8,16.8,16.8-16.8,16.8ZM0,38.791l37.495,37.5L64.643,49.145,91.792,76.292l27.155-27.155L146.1,76.292,169.894,52.5l-27.15-27.148,3.364-3.362,27.148,27.152,10.35-10.351-37.5-37.5-23.789,23.79,27.148,27.151L146.1,55.6,91.8,1.3,37.5,55.6,20.7,38.8,37.5,22l3.364,3.363L27.428,38.8,37.5,48.87,61.286,25.081,37.5,1.292Z" fill="#ef0b1e"/>
      <g id="Group_519" data-name="Group 519">
        <g id="Group_518-2" data-name="Group 518" clip-path="url(#clip-path)">
          <path id="Path_1088" data-name="Path 1088" d="M211.916,32.407q-5.888,0-8.906-2.876t-3.017-8.518V1.295h7.066V18.922q0,3.552,1.094,5.013a4.409,4.409,0,0,0,3.763,1.461,4.362,4.362,0,0,0,3.726-1.461q1.095-1.461,1.1-5.013V1.295h7.1V21.013q0,5.641-3.018,8.518t-8.906,2.876"/>
          <rect id="Rectangle_2311" data-name="Rectangle 2311" width="7.103" height="30.52" transform="translate(230.998 1.295)"/>
          <path id="Path_1089" data-name="Path 1089" d="M240.732,36.254,255.893,0h5.759L246.49,36.254Z"/>
          <path id="Path_1090" data-name="Path 1090" d="M275.71,32.407q-5.889,0-8.907-2.876t-3.017-8.518V1.295h7.066V18.922q0,3.552,1.1,5.013A4.406,4.406,0,0,0,275.71,25.4a4.36,4.36,0,0,0,3.725-1.461q1.1-1.461,1.1-5.013V1.295h7.1V21.013q0,5.641-3.017,8.518t-8.9,2.876"/>
          <path id="Path_1091" data-name="Path 1091" d="M290.522,31.815l11.464-16.444L292.418,1.295h8.445l5.5,8.176,5.466-8.176h8.445l-9.568,14.076L322.19,31.815h-8.777l-7.048-10.229L299.3,31.815Z"/>
          <path id="Path_1092" data-name="Path 1092" d="M208.53,76.8a18.34,18.34,0,0,1-3.808-.379,17.8,17.8,0,0,1-3.248-1,20.161,20.161,0,0,1-2.576-1.295,12.083,12.083,0,0,1-1.794-1.286l3.551-5.993q.735.537,1.638,1.129a16.463,16.463,0,0,0,1.949,1.091,13.419,13.419,0,0,0,2.19.814,8.612,8.612,0,0,0,2.3.314,5.191,5.191,0,0,0,1.9-.314,2.6,2.6,0,0,0,1.233-.943,2.682,2.682,0,0,0,.432-1.555,2.89,2.89,0,0,0-.4-1.534,4.077,4.077,0,0,0-1.206-1.2A15.245,15.245,0,0,0,208.65,63.5q-1.242-.593-2.935-1.369a14.434,14.434,0,0,1-2.337-1.341,9.808,9.808,0,0,1-1.886-1.73,7.564,7.564,0,0,1-1.252-2.136,7.051,7.051,0,0,1-.45-2.544,8.353,8.353,0,0,1,.736-3.44,9.574,9.574,0,0,1,2.08-2.959,9.85,9.85,0,0,1,3.229-2.081,11,11,0,0,1,4.186-.768,14.773,14.773,0,0,1,3.3.389,19.757,19.757,0,0,1,3.248,1.035,12.793,12.793,0,0,1,2.649,1.462l-2.87,5.678a11.8,11.8,0,0,0-1.9-1.082,11.415,11.415,0,0,0-2.126-.731,9.26,9.26,0,0,0-2.126-.258,4.82,4.82,0,0,0-1.858.323,2.692,2.692,0,0,0-1.187.906,2.288,2.288,0,0,0-.413,1.36,2,2,0,0,0,.239,1,2.128,2.128,0,0,0,.726.739,8.679,8.679,0,0,0,1.234.639q.744.324,1.7.767,2.282.963,4.039,1.9a14.659,14.659,0,0,1,2.954,2.035,7.388,7.388,0,0,1,1.821,2.534,8.461,8.461,0,0,1,.626,3.385,9.111,9.111,0,0,1-1.427,5.152,9.019,9.019,0,0,1-4.02,3.292A15.11,15.11,0,0,1,208.53,76.8"/>
          <path id="Path_1093" data-name="Path 1093" d="M238.542,76.8a14.655,14.655,0,0,1-5.962-1.222,15.211,15.211,0,0,1-4.876-3.393,16.229,16.229,0,0,1,0-22.438,15.243,15.243,0,0,1,4.876-3.393,15.166,15.166,0,0,1,11.924,0,15.217,15.217,0,0,1,4.875,3.393,16.227,16.227,0,0,1,0,22.438,15.185,15.185,0,0,1-4.875,3.393,14.658,14.658,0,0,1-5.962,1.222m-.018-6.881a7.479,7.479,0,0,0,3.119-.638,6.935,6.935,0,0,0,2.428-1.832,8.552,8.552,0,0,0,1.582-2.839,12.095,12.095,0,0,0,0-7.288,8.567,8.567,0,0,0-1.582-2.84,6.941,6.941,0,0,0-2.428-1.83,7.479,7.479,0,0,0-3.119-.638,7.355,7.355,0,0,0-3.091.638,6.958,6.958,0,0,0-2.42,1.83,8.569,8.569,0,0,0-1.583,2.84,12.116,12.116,0,0,0,0,7.288,8.555,8.555,0,0,0,1.583,2.839,6.952,6.952,0,0,0,2.42,1.832,7.355,7.355,0,0,0,3.091.638"/>
          <path id="Path_1094" data-name="Path 1094" d="M259.205,76.208V45.688h7.1V69.937h10.358v6.271Z"/>
          <path id="Path_1095" data-name="Path 1095" d="M292.123,76.8q-5.887,0-8.906-2.876T280.2,65.406V45.688h7.066V63.315q0,3.552,1.094,5.013a4.409,4.409,0,0,0,3.763,1.461,4.362,4.362,0,0,0,3.726-1.461q1.1-1.461,1.1-5.013V45.688h7.1V65.406q0,5.642-3.018,8.518T292.123,76.8"/>
          <path id="Path_1096" data-name="Path 1096" d="M312.954,76.208V51.958h-7.14v-6.27h21.345v6.27h-7.122v24.25Z"/>
          <rect id="Rectangle_2312" data-name="Rectangle 2312" width="7.103" height="30.52" transform="translate(331.224 45.688)"/>
          <path id="Path_1097" data-name="Path 1097" d="M359.009,76.8a14.655,14.655,0,0,1-5.962-1.222,15.212,15.212,0,0,1-4.876-3.393,16.229,16.229,0,0,1,0-22.438,15.243,15.243,0,0,1,4.876-3.393,15.166,15.166,0,0,1,11.924,0,15.217,15.217,0,0,1,4.875,3.393,16.227,16.227,0,0,1,0,22.438,15.186,15.186,0,0,1-4.875,3.393,14.658,14.658,0,0,1-5.962,1.222m-.018-6.881a7.475,7.475,0,0,0,3.119-.638,6.935,6.935,0,0,0,2.428-1.832,8.552,8.552,0,0,0,1.582-2.839,12.095,12.095,0,0,0,0-7.288,8.567,8.567,0,0,0-1.582-2.84,6.941,6.941,0,0,0-2.428-1.83,7.475,7.475,0,0,0-3.119-.638,7.355,7.355,0,0,0-3.091.638,6.959,6.959,0,0,0-2.42,1.83,8.549,8.549,0,0,0-1.582,2.84,12.095,12.095,0,0,0,0,7.288,8.535,8.535,0,0,0,1.582,2.839,6.952,6.952,0,0,0,2.42,1.832,7.355,7.355,0,0,0,3.091.638"/>
          <path id="Path_1098" data-name="Path 1098" d="M379.672,76.208V45.688h7.1L398.7,64.351V45.688h7.1v30.52h-7.1L386.775,57.544V76.208Z"/>
          <path id="Path_1099" data-name="Path 1099" d="M420.779,76.8a18.357,18.357,0,0,1-3.809-.379,17.817,17.817,0,0,1-3.247-1,20.159,20.159,0,0,1-2.576-1.295,11.977,11.977,0,0,1-1.794-1.286l3.551-5.993q.735.537,1.638,1.129a16.463,16.463,0,0,0,1.949,1.091,13.419,13.419,0,0,0,2.19.814,8.612,8.612,0,0,0,2.3.314,5.2,5.2,0,0,0,1.9-.314,2.6,2.6,0,0,0,1.233-.943,2.682,2.682,0,0,0,.432-1.555,2.89,2.89,0,0,0-.395-1.534,4.09,4.09,0,0,0-1.206-1.2A15.245,15.245,0,0,0,420.9,63.5q-1.242-.593-2.935-1.369a14.435,14.435,0,0,1-2.337-1.341,9.808,9.808,0,0,1-1.886-1.73,7.565,7.565,0,0,1-1.252-2.136,7.051,7.051,0,0,1-.45-2.544,8.353,8.353,0,0,1,.736-3.44,9.574,9.574,0,0,1,2.08-2.959,9.85,9.85,0,0,1,3.229-2.081,11,11,0,0,1,4.186-.768,14.773,14.773,0,0,1,3.3.389,19.757,19.757,0,0,1,3.248,1.035,12.793,12.793,0,0,1,2.649,1.462L428.6,53.7a11.764,11.764,0,0,0-1.9-1.082,11.382,11.382,0,0,0-2.125-.731,9.261,9.261,0,0,0-2.126-.258,4.82,4.82,0,0,0-1.858.323,2.692,2.692,0,0,0-1.187.906,2.288,2.288,0,0,0-.413,1.36,2,2,0,0,0,.239,1,2.129,2.129,0,0,0,.726.739,8.681,8.681,0,0,0,1.234.639q.744.324,1.7.767,2.281.963,4.039,1.9a14.65,14.65,0,0,1,2.953,2.035,7.378,7.378,0,0,1,1.822,2.534,8.461,8.461,0,0,1,.625,3.385,9.11,9.11,0,0,1-1.426,5.152,9.019,9.019,0,0,1-4.02,3.292,15.11,15.11,0,0,1-6.109,1.138"/>
        </g>
      </g>
    </g>
  </g>
</svg>
