<svg xmlns="http://www.w3.org/2000/svg" width="265.015" height="343" viewBox="0 0 265.015 343">
  <g id="Group_88" data-name="Group 88" transform="translate(-914.109 -6678)">
    <g id="Group_47" data-name="Group 47" transform="translate(-127 6684.012)">
      <path id="Path_63" data-name="Path 63" d="M1100.031,49.988a25,25,0,0,1,24.992-25v50A25,25,0,0,1,1100.031,49.988Z" fill="#eeeff1"/>
      <rect id="Rectangle_158" data-name="Rectangle 158" width="25" height="25" transform="translate(1125 275) rotate(-180)" fill="#00ccd1"/>
      <rect id="Rectangle_1973" data-name="Rectangle 1973" width="25" height="25" rx="12.5" transform="translate(1100 275) rotate(-180)" fill="#294760"/>
      <rect id="Rectangle_159" data-name="Rectangle 159" width="50" height="50" transform="translate(1250 175) rotate(-180)" fill="#00ccd1"/>
      <rect id="Rectangle_163" data-name="Rectangle 163" width="50.023" height="49.703" transform="translate(1200.023 324.703) rotate(-180)" fill="#1a2a3a"/>
      <rect id="Rectangle_164" data-name="Rectangle 164" width="50.011" height="50.047" transform="translate(1250 275) rotate(-180)" fill="#1a2a3a"/>
      <rect id="Rectangle_165" data-name="Rectangle 165" width="50" height="50" transform="translate(1225 125) rotate(-180)" fill="#00ccd1"/>
      <rect id="Rectangle_167" data-name="Rectangle 167" width="99.977" height="50" transform="translate(1224.977 75) rotate(-180)" fill="#1a2a3a"/>
      <path id="Path_65" data-name="Path 65" d="M1224.977,25h0V75h0A24.978,24.978,0,0,1,1200,50.023v-.046A24.978,24.978,0,0,1,1224.977,25Z" fill="#00ccd1"/>
      <path id="Path_66" data-name="Path 66" d="M1150.023,224.953h0v50h0a24.821,24.821,0,0,1-24.663-24.977v-.046A24.822,24.822,0,0,1,1150.023,224.953Z" fill="#00ccd1"/>
      <rect id="Rectangle_168" data-name="Rectangle 168" width="25.023" height="25" transform="translate(1224.977 25)" fill="#ef0b1e"/>
      <rect id="Rectangle_1972" data-name="Rectangle 1972" width="25.023" height="25" transform="translate(1224.977 50)" fill="#f4455a"/>
      <path id="Path_68" data-name="Path 68" d="M1075.012,50.012h-.047A24.976,24.976,0,0,0,1050,74.255V24.988h50v50h-.012A24.976,24.976,0,0,0,1075.012,50.012Z" fill="#00ccd1"/>
      <rect id="Rectangle_171" data-name="Rectangle 171" width="50" height="50" transform="translate(1300 75) rotate(-180)" fill="#00ccd1"/>
      <rect id="Rectangle_172" data-name="Rectangle 172" width="50.337" height="50" transform="translate(1200 274.953) rotate(-180)" fill="#00ccd1"/>
      <rect id="Rectangle_173" data-name="Rectangle 173" width="50" height="50" transform="translate(1300 225) rotate(-180)" fill="#00ccd1"/>
      <path id="Rectangle_174" data-name="Rectangle 174" d="M12.5,0H50a0,0,0,0,1,0,0V37.5A12.5,12.5,0,0,1,37.5,50H0a0,0,0,0,1,0,0V12.5A12.5,12.5,0,0,1,12.5,0Z" transform="translate(1300 150) rotate(-180)" fill="#1a2a3a"/>
      <path id="Rectangle_175" data-name="Rectangle 175" d="M0,0H50a0,0,0,0,1,0,0V50a0,0,0,0,1,0,0h0A50,50,0,0,1,0,0V0A0,0,0,0,1,0,0Z" transform="translate(1200 175)" fill="#00ccd1"/>
      <path id="Rectangle_177" data-name="Rectangle 177" d="M0,0H12.5A12.5,12.5,0,0,1,25,12.5V25a0,0,0,0,1,0,0H12.5A12.5,12.5,0,0,1,0,12.5V0A0,0,0,0,1,0,0Z" transform="translate(1075 174.953) rotate(-90)" fill="#f4455a"/>
      <path id="Path_69" data-name="Path 69" d="M1249.988,175.012h50a24.976,24.976,0,0,1-24.976,24.976h-.047A24.977,24.977,0,0,1,1249.988,175.012Z" fill="#0aa5a5"/>
      <path id="Path_70" data-name="Path 70" d="M1299.988,174.988h-50a24.977,24.977,0,0,1,24.977-24.976h.047A24.976,24.976,0,0,1,1299.988,174.988Z" fill="#00ccd1"/>
      <path id="Path_71" data-name="Path 71" d="M1299.988,74.988h-50a24.977,24.977,0,0,1,24.977-24.976h.047A24.976,24.976,0,0,1,1299.988,74.988Z" fill="#0aa5a5"/>
      <path id="Path_72" data-name="Path 72" d="M1249.988,75.012h50a24.976,24.976,0,0,1-24.976,24.976h-.047A24.977,24.977,0,0,1,1249.988,75.012Z" fill="#294760"/>
      <path id="Path_76" data-name="Path 76" d="M1125.031,25a25,25,0,0,1,0,50h-.008V25Z" fill="#00ccd1"/>
      <path id="Path_77" data-name="Path 77" d="M1125,37.5a12.5,12.5,0,0,1,0,25h-.008v-25Z" fill="#0aa5a5"/>
      <path id="Path_78" data-name="Path 78" d="M1124.984,62.5a12.5,12.5,0,0,1,0-25h.008v25Z" fill="#bfc0c1"/>
      <circle id="Ellipse_5" data-name="Ellipse 5" cx="25" cy="25" r="25" transform="translate(1050 75)" fill="#f4455a"/>
      <circle id="Ellipse_6" data-name="Ellipse 6" cx="12.5" cy="12.5" r="12.5" transform="translate(1062.5 87.5)" fill="#ef0b1e"/>
      <path id="Path_79" data-name="Path 79" d="M1075,124.953v25h25v-25Zm6.25,12.5a6.25,6.25,0,1,1,6.25,6.25A6.25,6.25,0,0,1,1081.25,137.453Z" fill="#f4455a"/>
      <rect id="Rectangle_178" data-name="Rectangle 178" width="74.5" height="50" transform="translate(1175 125) rotate(-180)" fill="#0aa5a5"/>
      <path id="Rectangle_179" data-name="Rectangle 179" d="M12.5,0H50a0,0,0,0,1,0,0V37.5A12.5,12.5,0,0,1,37.5,50H0a0,0,0,0,1,0,0V12.5A12.5,12.5,0,0,1,12.5,0Z" transform="translate(1150 125) rotate(-180)" fill="#00ccd1"/>
      <path id="Rectangle_181" data-name="Rectangle 181" d="M0,0H50a0,0,0,0,1,0,0V50a0,0,0,0,1,0,0h0A50,50,0,0,1,0,0V0A0,0,0,0,1,0,0Z" transform="translate(1225 124.953) rotate(-180)" fill="#0aa5a5"/>
      <rect id="Rectangle_182" data-name="Rectangle 182" width="49.852" height="100" transform="translate(1299.875 325) rotate(-180)" fill="#ef0b1e"/>
      <path id="Path_80" data-name="Path 80" d="M1250.023,324.976h0V274.953h0a24.989,24.989,0,0,1,24.988,24.989v.046A24.989,24.989,0,0,1,1250.023,324.976Z" fill="#c01823"/>
      <path id="Path_81" data-name="Path 81" d="M1250,274.953h0v50.023h0a24.989,24.989,0,0,1-24.989-24.988v-.046A24.989,24.989,0,0,1,1250,274.953Z" fill="#bfc0c1"/>
      <path id="Path_82" data-name="Path 82" d="M1150,225h50a50,50,0,0,0-100,0Z" fill="#ef0b1e"/>
    </g>
    <g id="Group_46" data-name="Group 46" transform="translate(731.5 270.5)">
      <line id="Line_24" data-name="Line 24" y2="343" transform="translate(216.5 6407.5)" fill="none" stroke="#bfc0c1" stroke-width="0.5"/>
      <line id="Line_39" data-name="Line 39" y2="343" transform="translate(191.5 6407.5)" fill="none" stroke="#bfc0c1" stroke-width="0.5"/>
      <line id="Line_31" data-name="Line 31" y2="265.015" transform="translate(447.625 6438.5) rotate(90)" fill="none" stroke="#bfc0c1" stroke-width="0.5"/>
      <line id="Line_38" data-name="Line 38" y2="265.015" transform="translate(447.625 6413.5) rotate(90)" fill="none" stroke="#bfc0c1" stroke-width="0.5"/>
      <line id="Line_25" data-name="Line 25" y2="343" transform="translate(241.5 6407.5)" fill="none" stroke="#bfc0c1" stroke-width="0.5"/>
      <line id="Line_32" data-name="Line 32" y2="265.015" transform="translate(447.625 6463.5) rotate(90)" fill="none" stroke="#bfc0c1" stroke-width="0.5"/>
      <line id="Line_26" data-name="Line 26" y2="343" transform="translate(266.5 6407.5)" fill="none" stroke="#bfc0c1" stroke-width="0.5"/>
      <line id="Line_33" data-name="Line 33" y2="265.015" transform="translate(447.625 6488.5) rotate(90)" fill="none" stroke="#bfc0c1" stroke-width="0.5"/>
      <line id="Line_27" data-name="Line 27" y2="343" transform="translate(291.5 6407.5)" fill="none" stroke="#bfc0c1" stroke-width="0.5"/>
      <line id="Line_34" data-name="Line 34" y2="265.015" transform="translate(447.625 6513.5) rotate(90)" fill="none" stroke="#bfc0c1" stroke-width="0.5"/>
      <line id="Line_28" data-name="Line 28" y2="343" transform="translate(316.5 6407.5)" fill="none" stroke="#bfc0c1" stroke-width="0.5"/>
      <line id="Line_35" data-name="Line 35" y2="265.015" transform="translate(447.625 6538.5) rotate(90)" fill="none" stroke="#bfc0c1" stroke-width="0.5"/>
      <line id="Line_29" data-name="Line 29" y2="343" transform="translate(341.5 6407.5)" fill="none" stroke="#bfc0c1" stroke-width="0.5"/>
      <line id="Line_36" data-name="Line 36" y2="265.015" transform="translate(447.625 6563.5) rotate(90)" fill="none" stroke="#bfc0c1" stroke-width="0.5"/>
      <line id="Line_30" data-name="Line 30" y2="343" transform="translate(366.5 6407.5)" fill="none" stroke="#bfc0c1" stroke-width="0.5"/>
      <path id="Path_634" data-name="Path 634" d="M0,0V343" transform="translate(391.5 6407.5)" fill="none" stroke="#bfc0c1" stroke-width="0.5"/>
      <path id="Path_635" data-name="Path 635" d="M0,0V343" transform="translate(416.5 6407.5)" fill="none" stroke="#bfc0c1" stroke-width="0.5"/>
      <path id="Path_636" data-name="Path 636" d="M0,0V343" transform="translate(441.5 6407.5)" fill="none" stroke="#bfc0c1" stroke-width="0.5"/>
      <line id="Line_37" data-name="Line 37" y2="265.015" transform="translate(447.625 6588.5) rotate(90)" fill="none" stroke="#bfc0c1" stroke-width="0.5"/>
      <line id="Line_62" data-name="Line 62" y2="265.015" transform="translate(447.625 6613.5) rotate(90)" fill="none" stroke="#bfc0c1" stroke-width="0.5"/>
      <line id="Line_63" data-name="Line 63" y2="265.015" transform="translate(447.625 6638.5) rotate(90)" fill="none" stroke="#bfc0c1" stroke-width="0.5"/>
      <line id="Line_64" data-name="Line 64" y2="265.015" transform="translate(447.625 6663.5) rotate(90)" fill="none" stroke="#bfc0c1" stroke-width="0.5"/>
      <line id="Line_65" data-name="Line 65" y2="265.015" transform="translate(447.625 6688.5) rotate(90)" fill="none" stroke="#bfc0c1" stroke-width="0.5"/>
      <line id="Line_66" data-name="Line 66" y2="265.015" transform="translate(447.625 6713.5) rotate(90)" fill="none" stroke="#bfc0c1" stroke-width="0.5"/>
      <line id="Line_67" data-name="Line 67" y2="265.015" transform="translate(447.625 6738.5) rotate(90)" fill="none" stroke="#bfc0c1" stroke-width="0.5"/>
    </g>
  </g>
</svg>
