<svg xmlns="http://www.w3.org/2000/svg" xmlns:xlink="http://www.w3.org/1999/xlink" width="355" height="310" viewBox="0 0 355 310">
  <defs>
    <clipPath id="clip-path">
      <rect id="Rectangle_2278" data-name="Rectangle 2278" width="355" height="310" transform="translate(-0.464)" fill="none"/>
    </clipPath>
  </defs>
  <g id="Group_494" data-name="Group 494" transform="translate(0.464)">
    <line id="Line_197" data-name="Line 197" x2="66" transform="translate(44.536 155)" fill="none" stroke="#7e7f7f" stroke-miterlimit="10" stroke-width="0.65"/>
    <line id="Line_198" data-name="Line 198" y1="44" transform="translate(332.536 89)" fill="none" stroke="#7e7f7f" stroke-miterlimit="10" stroke-width="0.65"/>
    <g id="Group_489" data-name="Group 489">
      <g id="Group_488" data-name="Group 488" clip-path="url(#clip-path)">
        <line id="Line_199" data-name="Line 199" x2="89" transform="translate(265.536 111)" fill="none" stroke="#7e7f7f" stroke-miterlimit="10" stroke-width="0.65"/>
        <line id="Line_200" data-name="Line 200" y2="66" transform="translate(66.536)" fill="none" stroke="#7e7f7f" stroke-miterlimit="10" stroke-width="0.65"/>
        <line id="Line_201" data-name="Line 201" y2="177" transform="translate(66.536 133)" fill="none" stroke="#7e7f7f" stroke-miterlimit="10" stroke-width="0.65"/>
        <line id="Line_202" data-name="Line 202" y2="66" transform="translate(199.536 244)" fill="none" stroke="#7e7f7f" stroke-miterlimit="10" stroke-width="0.65"/>
      </g>
    </g>
    <line id="Line_203" data-name="Line 203" x2="67" transform="translate(265.536 244)" fill="none" stroke="#7e7f7f" stroke-miterlimit="10" stroke-width="0.65"/>
    <g id="Group_491" data-name="Group 491">
      <g id="Group_490" data-name="Group 490" clip-path="url(#clip-path)">
        <line id="Line_204" data-name="Line 204" x2="355" transform="translate(-0.464 199)" fill="none" stroke="#7e7f7f" stroke-miterlimit="10" stroke-width="0.65"/>
      </g>
    </g>
    <line id="Line_205" data-name="Line 205" y2="44" transform="translate(110.536 22)" fill="none" stroke="#7e7f7f" stroke-miterlimit="10" stroke-width="0.65"/>
    <line id="Line_206" data-name="Line 206" x1="66" transform="translate(44.536 111)" fill="none" stroke="#7e7f7f" stroke-miterlimit="10" stroke-width="0.65"/>
    <line id="Line_207" data-name="Line 207" x2="288" transform="translate(44.536 44)" fill="none" stroke="#7e7f7f" stroke-miterlimit="10" stroke-width="0.65"/>
    <rect id="Rectangle_2280" data-name="Rectangle 2280" width="199" height="22" transform="translate(66.536 44)" fill="#7e7f7f"/>
    <rect id="Rectangle_2281" data-name="Rectangle 2281" width="199" height="22" transform="translate(66.536 89)" fill="#7e7f7f"/>
    <rect id="Rectangle_2282" data-name="Rectangle 2282" width="23" height="23" transform="translate(265.536 66)" fill="#7e7f7f"/>
    <g id="Group_493" data-name="Group 493">
      <g id="Group_492" data-name="Group 492" clip-path="url(#clip-path)">
        <path id="Path_1063" data-name="Path 1063" d="M300,72.159h22.159V61.079A11.08,11.08,0,0,0,311.079,50H300Z" transform="translate(-34.098 -5.683)" fill="#7e7f7f" fill-rule="evenodd"/>
        <path id="Path_1064" data-name="Path 1064" d="M122.159,147.159H100V136.079A11.08,11.08,0,0,1,111.079,125h11.079Z" transform="translate(-11.366 -14.207)" fill="#ef0b1e" fill-rule="evenodd"/>
        <path id="Path_1065" data-name="Path 1065" d="M300,100h22.159v11.079a11.08,11.08,0,0,1-11.079,11.079H300Z" transform="translate(-34.098 -11.366)" fill="#7e7f7f" fill-rule="evenodd"/>
        <path id="Path_1066" data-name="Path 1066" d="M122.159,200H100v11.079a11.08,11.08,0,0,0,11.079,11.079h11.079Z" transform="translate(-11.366 -22.732)" fill="#ef0b1e" fill-rule="evenodd"/>
        <rect id="Rectangle_2283" data-name="Rectangle 2283" width="222" height="22" transform="translate(110.536 111)" fill="#ef0b1e"/>
        <rect id="Rectangle_2284" data-name="Rectangle 2284" width="222" height="22" transform="translate(110.536 177)" fill="#ef0b1e"/>
        <rect id="Rectangle_2285" data-name="Rectangle 2285" width="22" height="44" transform="translate(88.536 133)" fill="#ef0b1e"/>
        <path id="Path_1067" data-name="Path 1067" d="M318.63,150a22.155,22.155,0,0,0-22.159,22.159H125V150Z" transform="translate(-14.207 -17.049)" fill="#c90a21" fill-rule="evenodd"/>
        <path id="Path_1068" data-name="Path 1068" d="M318.63,197.159H125V175H296.472a22.155,22.155,0,0,0,22.159,22.159" transform="translate(-14.207 -19.89)" fill="#f4455a" fill-rule="evenodd"/>
        <rect id="Rectangle_2286" data-name="Rectangle 2286" width="23" height="22" transform="translate(132.536 155)" fill="#42779b"/>
        <rect id="Rectangle_2287" data-name="Rectangle 2287" width="22" height="22" transform="translate(155.536 155)" fill="#091d2d"/>
        <path id="Path_1069" data-name="Path 1069" d="M197.159,222.159h0A22.158,22.158,0,0,1,175,200h22.159Z" transform="translate(-19.89 -22.732)" fill="#091d2d" fill-rule="evenodd"/>
        <path id="Path_1070" data-name="Path 1070" d="M150,222.159h0A22.158,22.158,0,0,0,172.159,200H150Z" transform="translate(-17.049 -22.732)" fill="#42779b" fill-rule="evenodd"/>
        <path id="Path_1071" data-name="Path 1071" d="M97.159,247.159H75V236.079A11.08,11.08,0,0,1,86.079,225H97.159Z" transform="translate(-8.524 -25.573)" fill="#0aa5a5" fill-rule="evenodd"/>
        <path id="Path_1072" data-name="Path 1072" d="M97.159,300H75v11.079a11.08,11.08,0,0,0,11.079,11.079H97.159Z" transform="translate(-8.524 -34.098)" fill="#0aa5a5" fill-rule="evenodd"/>
        <rect id="Rectangle_2288" data-name="Rectangle 2288" width="266" height="23" transform="translate(88.536 199)" fill="#0aa5a5"/>
        <rect id="Rectangle_2289" data-name="Rectangle 2289" width="266" height="22" transform="translate(88.536 266)" fill="#0aa5a5"/>
        <rect id="Rectangle_2290" data-name="Rectangle 2290" width="22" height="44" transform="translate(66.536 222)" fill="#0aa5a5"/>
        <path id="Path_1073" data-name="Path 1073" d="M343.744,250a22.155,22.155,0,0,0-22.159,22.159H100V250Z" transform="translate(-11.366 -28.415)" fill="#00ccd1" fill-rule="evenodd"/>
        <path id="Path_1074" data-name="Path 1074" d="M343.744,297.159H100V275H321.585a22.155,22.155,0,0,0,22.159,22.159" transform="translate(-11.366 -31.256)" fill="#86eae4" fill-rule="evenodd"/>
        <rect id="Rectangle_2291" data-name="Rectangle 2291" width="22" height="22" transform="translate(110.536 244)" fill="#1e3b51"/>
        <rect id="Rectangle_2292" data-name="Rectangle 2292" width="23" height="22" transform="translate(132.536 244)" fill="#091d2d"/>
        <path id="Path_1075" data-name="Path 1075" d="M172.159,322.159h0A22.158,22.158,0,0,1,150,300h22.159Z" transform="translate(-17.049 -34.098)" fill="#091d2d" fill-rule="evenodd"/>
        <path id="Path_1076" data-name="Path 1076" d="M125,322.159h0A22.158,22.158,0,0,0,147.159,300H125Z" transform="translate(-14.207 -34.098)" fill="#1e3b51" fill-rule="evenodd"/>
        <path id="Path_1077" data-name="Path 1077" d="M112.5,75a11.079,11.079,0,1,1,0,22.159H278.689V75Z" transform="translate(-12.787 -8.524)" fill="#eeeff1" fill-rule="evenodd"/>
      </g>
    </g>
  </g>
</svg>
