<svg xmlns="http://www.w3.org/2000/svg" width="196.943" height="63.783" viewBox="0 0 196.943 63.783">
  <g id="Group_541" data-name="Group 541" transform="translate(-352.999 -6353.727)">
    <path id="Path_1164" data-name="Path 1164" d="M38.291,238.863l4.2,4.2-4.2,4.2-4.2-4.2Zm11.327,7.762L38.291,257.953,26.967,246.628,15.641,257.953,0,242.309l15.642-15.643,9.924,9.924-9.924,9.923-4.2-4.2,5.6-5.6-1.4-1.4-7.007,7.008,7.007,7.008,22.65-22.651,22.654,22.651,1.4-1.4L51.026,236.591l9.924-9.924L76.592,242.31l-4.318,4.318L60.95,235.3l-1.4,1.4,11.325,11.325-9.924,9.924Zm-4.32-3.562-7.007-7.008-7.008,7.008,7.008,7.008Z" transform="translate(353 6127.061)" fill="#1e3b51"/>
    <path id="Path_1165" data-name="Path 1165" d="M7.434,316.059a7.759,7.759,0,0,1-5.553-1.794A7,7,0,0,1,0,308.954v-12.3H4.406V307.65a5.367,5.367,0,0,0,.682,3.126,2.748,2.748,0,0,0,2.346.911,2.72,2.72,0,0,0,2.323-.911,5.372,5.372,0,0,0,.683-3.126V296.659H14.87v12.3a7,7,0,0,1-1.882,5.311,7.759,7.759,0,0,1-5.553,1.794" transform="translate(353 6101.45)"/>
    <path id="Path_1166" data-name="Path 1166" d="M33.543,315.859a11.433,11.433,0,0,1-2.375-.237A11.131,11.131,0,0,1,29.143,315a12.653,12.653,0,0,1-1.607-.808,7.477,7.477,0,0,1-1.119-.8l2.214-3.736q.458.334,1.022.7a10.141,10.141,0,0,0,1.216.68,8.338,8.338,0,0,0,1.365.508,5.384,5.384,0,0,0,1.434.2,3.242,3.242,0,0,0,1.188-.2,1.625,1.625,0,0,0,.769-.588,1.678,1.678,0,0,0,.269-.97,1.8,1.8,0,0,0-.247-.957,2.555,2.555,0,0,0-.751-.749,9.548,9.548,0,0,0-1.28-.715q-.774-.369-1.83-.853a8.995,8.995,0,0,1-1.457-.836,6.077,6.077,0,0,1-1.177-1.079,4.707,4.707,0,0,1-.78-1.332,4.379,4.379,0,0,1-.282-1.586,5.209,5.209,0,0,1,.459-2.146,5.973,5.973,0,0,1,1.3-1.845,6.146,6.146,0,0,1,2.014-1.3,6.86,6.86,0,0,1,2.609-.479,9.239,9.239,0,0,1,2.06.242,12.392,12.392,0,0,1,2.025.646,8.022,8.022,0,0,1,1.652.911l-1.791,3.541a7.326,7.326,0,0,0-1.181-.675,7.116,7.116,0,0,0-1.325-.455,5.743,5.743,0,0,0-1.326-.162,3,3,0,0,0-1.158.2,1.669,1.669,0,0,0-.74.564,1.429,1.429,0,0,0-.257.848,1.257,1.257,0,0,0,.148.623,1.336,1.336,0,0,0,.453.461,5.527,5.527,0,0,0,.769.4q.464.2,1.061.479,1.423.6,2.519,1.188a9.128,9.128,0,0,1,1.841,1.269,4.608,4.608,0,0,1,1.136,1.58,5.284,5.284,0,0,1,.389,2.11,5.69,5.69,0,0,1-.889,3.213,5.63,5.63,0,0,1-2.507,2.053,9.425,9.425,0,0,1-3.81.71" transform="translate(343.333 6101.649)"/>
    <path id="Path_1167" data-name="Path 1167" d="M54.41,315.69V296.659H65.3v3.91h-6.46V304.2h6.184v3.9H58.838v3.679H65.3v3.91Z" transform="translate(333.091 6101.45)"/>
    <path id="Path_1168" data-name="Path 1168" d="M78.44,315.691V296.66h7.01a7.857,7.857,0,0,1,3.42.7,5.2,5.2,0,0,1,2.254,2.013,6.029,6.029,0,0,1,.8,3.183,6.783,6.783,0,0,1-.452,2.532,5.3,5.3,0,0,1-1.331,1.949,6.135,6.135,0,0,1-2.129,1.262l6.151,7.394h-5.6l-5.278-6.874h-.413v6.874Zm4.428-10.554h1.158a4.887,4.887,0,0,0,1.778-.283,2.269,2.269,0,0,0,1.1-.836,2.336,2.336,0,0,0,.373-1.337,2.161,2.161,0,0,0-.838-1.834,3.934,3.934,0,0,0-2.41-.635H82.868Z" transform="translate(324.298 6101.449)"/>
    <path id="Path_1169" data-name="Path 1169" d="M119.438,315.859a11.43,11.43,0,0,1-2.375-.237,11.116,11.116,0,0,1-2.025-.623,12.569,12.569,0,0,1-1.607-.808,7.4,7.4,0,0,1-1.118-.8l2.214-3.736q.458.334,1.021.7a10.291,10.291,0,0,0,1.216.68,8.345,8.345,0,0,0,1.366.508,5.38,5.38,0,0,0,1.434.2,3.241,3.241,0,0,0,1.187-.2,1.627,1.627,0,0,0,.77-.588,1.677,1.677,0,0,0,.269-.97,1.8,1.8,0,0,0-.247-.957,2.539,2.539,0,0,0-.751-.749,9.537,9.537,0,0,0-1.279-.715q-.774-.369-1.831-.853a8.995,8.995,0,0,1-1.456-.836,6.11,6.11,0,0,1-1.176-1.079,4.708,4.708,0,0,1-.781-1.332,4.392,4.392,0,0,1-.281-1.586,5.2,5.2,0,0,1,.459-2.146,5.971,5.971,0,0,1,1.3-1.845,6.16,6.16,0,0,1,2.014-1.3,6.863,6.863,0,0,1,2.61-.479,9.233,9.233,0,0,1,2.06.242,12.372,12.372,0,0,1,2.025.646,8.005,8.005,0,0,1,1.652.911l-1.79,3.541a7.353,7.353,0,0,0-1.181-.675,7.116,7.116,0,0,0-1.325-.455,5.752,5.752,0,0,0-1.326-.162,3,3,0,0,0-1.158.2,1.669,1.669,0,0,0-.74.564,1.425,1.425,0,0,0-.258.848,1.251,1.251,0,0,0,.149.623,1.334,1.334,0,0,0,.453.461,5.564,5.564,0,0,0,.769.4q.465.2,1.061.479,1.422.6,2.519,1.188a9.134,9.134,0,0,1,1.841,1.269,4.606,4.606,0,0,1,1.136,1.58,5.273,5.273,0,0,1,.39,2.11,5.69,5.69,0,0,1-.889,3.213,5.629,5.629,0,0,1-2.507,2.053,9.421,9.421,0,0,1-3.808.71" transform="translate(311.904 6101.649)"/>
    <path id="Path_1170" data-name="Path 1170" d="M139.455,315.69V300.569H135v-3.91h13.31v3.91h-4.441V315.69Z" transform="translate(303.601 6101.45)"/>
    <path id="Path_1171" data-name="Path 1171" d="M166.081,315.86a9.147,9.147,0,0,1-3.718-.762,9.469,9.469,0,0,1-3.04-2.116,10.12,10.12,0,0,1,0-13.991,9.491,9.491,0,0,1,3.04-2.117,9.463,9.463,0,0,1,7.435,0,9.5,9.5,0,0,1,3.04,2.117,10.118,10.118,0,0,1,0,13.991,9.473,9.473,0,0,1-3.04,2.116,9.147,9.147,0,0,1-3.718.762m-.011-4.291a4.645,4.645,0,0,0,1.944-.4,4.316,4.316,0,0,0,1.515-1.142,5.315,5.315,0,0,0,.987-1.77,7.551,7.551,0,0,0,0-4.545,5.334,5.334,0,0,0-.987-1.77,4.32,4.32,0,0,0-1.515-1.141,4.645,4.645,0,0,0-1.944-.4,4.583,4.583,0,0,0-1.928.4,4.326,4.326,0,0,0-1.508,1.141,5.347,5.347,0,0,0-.987,1.77,7.564,7.564,0,0,0,0,4.545,5.328,5.328,0,0,0,.987,1.77,4.322,4.322,0,0,0,1.508,1.142,4.583,4.583,0,0,0,1.928.4" transform="translate(295.722 6101.649)"/>
    <path id="Path_1172" data-name="Path 1172" d="M191.909,315.691V296.66h7.01a7.853,7.853,0,0,1,3.42.7,5.2,5.2,0,0,1,2.254,2.013,6.024,6.024,0,0,1,.8,3.183,6.8,6.8,0,0,1-.452,2.532,5.317,5.317,0,0,1-1.331,1.949,6.134,6.134,0,0,1-2.129,1.262l6.151,7.394h-5.6l-5.278-6.874h-.413v6.874Zm4.429-10.554H197.5a4.89,4.89,0,0,0,1.778-.283,2.264,2.264,0,0,0,1.1-.836,2.332,2.332,0,0,0,.373-1.337,2.161,2.161,0,0,0-.838-1.834,3.934,3.934,0,0,0-2.41-.635h-1.159Z" transform="translate(282.779 6101.449)"/>
    <path id="Path_1173" data-name="Path 1173" d="M219.2,315.69v-8.558l-7.01-10.473h5.335l3.879,5.963,3.889-5.963h5.335l-7.01,10.473v8.558Z" transform="translate(275.357 6101.45)"/>
    <path id="Path_1174" data-name="Path 1174" d="M281.5,306.177a9.511,9.511,0,1,1-9.511-9.511,9.512,9.512,0,0,1,9.511,9.511" transform="translate(256.958 6101.447)"/>
    <rect id="Rectangle_2326" data-name="Rectangle 2326" width="4.055" height="19.023" transform="translate(545.888 6398.113)"/>
  </g>
</svg>
