<svg xmlns="http://www.w3.org/2000/svg" width="246.728" height="47.557" viewBox="0 0 246.728 47.557">
  <g id="Group_544" data-name="Group 544" transform="translate(-1200.577 -6210.391)">
    <path id="Path_1181" data-name="Path 1181" d="M1394.886,18.009l6.385,6.385-6.385,6.385-6.385-6.385ZM1412.1,30.955l-17.219,17.218-17.214-17.214-17.215,17.214-23.775-23.779L1360.459.616,1375.543,15.7l-15.084,15.084-6.385-6.385,8.52-8.52-2.132-2.132L1349.809,24.4l10.652,10.652L1394.89.622l34.436,34.43,2.132-2.133L1414.243,15.7,1429.328.619,1453.1,24.4l-6.563,6.563-17.214-17.217-2.133,2.132,17.215,17.215-15.084,15.084Zm-6.567-6.561-10.652-10.652-10.652,10.652,10.652,10.652Z" transform="translate(-136.105 6209.774)" fill="#00ccd1"/>
    <rect id="Rectangle_2329" data-name="Rectangle 2329" width="4.343" height="18.661" transform="translate(1327.23 6224.827)"/>
    <path id="Path_1182" data-name="Path 1182" d="M1558.077,42.211a10.617,10.617,0,0,1-7.262-2.822,9.687,9.687,0,0,1-2.245-3.088,9.142,9.142,0,0,1,.006-7.538,9.8,9.8,0,0,1,2.245-3.093,10.553,10.553,0,0,1,7.234-2.822,10.94,10.94,0,0,1,3.252.481,9.81,9.81,0,0,1,2.633,1.216l-1.845,3.72a5.359,5.359,0,0,0-1.682-.825,6.986,6.986,0,0,0-2.065-.306,6.449,6.449,0,0,0-2.323.407,5.773,5.773,0,0,0-1.862,1.142,5.333,5.333,0,0,0-1.249,1.714,5.278,5.278,0,0,0,0,4.264,5.324,5.324,0,0,0,1.249,1.713,5.752,5.752,0,0,0,1.862,1.143,6.449,6.449,0,0,0,2.323.407,7.007,7.007,0,0,0,2.065-.306,5.346,5.346,0,0,0,1.682-.826l1.845,3.721a9.792,9.792,0,0,1-2.576,1.2,10.745,10.745,0,0,1-3.285.492" transform="translate(-213.341 6201.64)"/>
    <path id="Path_1183" data-name="Path 1183" d="M1584.446,42.211a8.954,8.954,0,0,1-3.645-.747,9.3,9.3,0,0,1-2.983-2.075,9.925,9.925,0,0,1,0-13.72,9.334,9.334,0,0,1,2.983-2.075,9.281,9.281,0,0,1,7.29,0,9.331,9.331,0,0,1,2.982,2.075,9.924,9.924,0,0,1,0,13.72,9.3,9.3,0,0,1-2.982,2.075,8.96,8.96,0,0,1-3.645.747M1584.434,38a4.557,4.557,0,0,0,1.907-.391,4.242,4.242,0,0,0,1.485-1.12,5.234,5.234,0,0,0,.968-1.736,7.417,7.417,0,0,0,0-4.456,5.234,5.234,0,0,0-.968-1.736,4.233,4.233,0,0,0-1.485-1.119,4.557,4.557,0,0,0-1.907-.391,4.487,4.487,0,0,0-1.89.391,4.231,4.231,0,0,0-1.479,1.119,5.227,5.227,0,0,0-.968,1.736,7.406,7.406,0,0,0,0,4.456,5.227,5.227,0,0,0,.968,1.736,4.24,4.24,0,0,0,1.479,1.12,4.487,4.487,0,0,0,1.89.391" transform="translate(-223.339 6201.64)"/>
    <path id="Path_1184" data-name="Path 1184" d="M1609.772,42.045V23.383h4.343l7.291,11.411V23.383h4.342V42.045h-4.342l-7.291-11.412V42.045Z" transform="translate(-236.031 6201.444)"/>
    <path id="Path_1185" data-name="Path 1185" d="M1645.38,42.211a11.221,11.221,0,0,1-2.329-.232,10.937,10.937,0,0,1-1.986-.611,12.324,12.324,0,0,1-1.574-.791,7.413,7.413,0,0,1-1.1-.786l2.172-3.664q.45.328,1,.69a10.022,10.022,0,0,0,1.192.667,8.134,8.134,0,0,0,1.339.5,5.247,5.247,0,0,0,1.406.193,3.167,3.167,0,0,0,1.164-.193,1.594,1.594,0,0,0,.754-.576,1.639,1.639,0,0,0,.265-.951,1.765,1.765,0,0,0-.242-.938,2.494,2.494,0,0,0-.737-.735,9.334,9.334,0,0,0-1.255-.7q-.759-.362-1.794-.837a8.794,8.794,0,0,1-1.428-.821,5.99,5.99,0,0,1-1.154-1.057,4.6,4.6,0,0,1-.765-1.307,4.313,4.313,0,0,1-.276-1.555,5.114,5.114,0,0,1,.45-2.1,5.868,5.868,0,0,1,1.272-1.81,6.033,6.033,0,0,1,1.975-1.272,6.732,6.732,0,0,1,2.559-.469,9.056,9.056,0,0,1,2.02.237,12.121,12.121,0,0,1,1.986.633,7.8,7.8,0,0,1,1.621.894l-1.756,3.472a7.2,7.2,0,0,0-1.159-.661,6.935,6.935,0,0,0-1.3-.446,5.627,5.627,0,0,0-1.3-.159,2.933,2.933,0,0,0-1.136.2,1.64,1.64,0,0,0-.726.554,1.4,1.4,0,0,0-.253.831,1.222,1.222,0,0,0,.146.611,1.292,1.292,0,0,0,.444.452,5.375,5.375,0,0,0,.754.391q.456.2,1.041.469,1.395.589,2.47,1.165a8.974,8.974,0,0,1,1.805,1.244,4.516,4.516,0,0,1,1.114,1.55,5.183,5.183,0,0,1,.382,2.07,5.578,5.578,0,0,1-.872,3.15,5.52,5.52,0,0,1-2.458,2.013,9.249,9.249,0,0,1-3.735.7" transform="translate(-246.504 6201.64)"/>
    <rect id="Rectangle_2330" data-name="Rectangle 2330" width="4.127" height="19.363" transform="translate(1443.178 6224.488)"/>
    <path id="Path_1186" data-name="Path 1186" d="M1696.116,22.848h0V42.211h-19.362a19.363,19.363,0,0,1,19.362-19.363" transform="translate(-260.54 6201.64)"/>
  </g>
</svg>
