<svg xmlns="http://www.w3.org/2000/svg" xmlns:xlink="http://www.w3.org/1999/xlink" width="490.5" height="125.489" viewBox="0 0 490.5 125.489">
  <defs>
    <clipPath id="clip-path">
      <rect id="Rectangle_2067" data-name="Rectangle 2067" width="397.76" height="72.489" fill="none"/>
    </clipPath>
  </defs>
  <g id="Group_505" data-name="Group 505" transform="translate(-573.5 -6214)">
    <g id="Group_249" data-name="Group 249" transform="translate(574 6267)">
      <path id="Path_756" data-name="Path 756" d="M78.986,36.243l9.732,9.733,9.733-9.733-9.733-9.732Zm-6.5,0L88.718,20.006l16.236,16.236L88.718,52.479ZM36.243,0,0,36.242,36.239,72.489l26.24-26.24,26.239,26.24,26.246-26.246,26.25,26.246L164.206,49.5l-26.24-26.239,3.25-3.251,26.24,26.243,10-10L141.216,0,118.224,23l26.24,26.243-3.25,3.25L88.726.009,36.246,52.488,20.01,36.252,36.246,20.016l3.251,3.25L26.51,36.252l9.733,9.733L59.235,22.992Z" fill="#00ccd1"/>
      <rect id="Rectangle_2066" data-name="Rectangle 2066" width="6.877" height="29.551" transform="translate(198.446 21.451)"/>
      <g id="Group_246" data-name="Group 246">
        <g id="Group_245" data-name="Group 245" clip-path="url(#clip-path)">
          <path id="Path_757" data-name="Path 757" d="M226.168,51.575a16.815,16.815,0,0,1-11.5-4.469,15.364,15.364,0,0,1-3.555-4.889,14.478,14.478,0,0,1,.009-11.937,15.525,15.525,0,0,1,3.555-4.9,16.718,16.718,0,0,1,11.456-4.468,17.316,17.316,0,0,1,5.148.761A15.54,15.54,0,0,1,235.45,23.6l-2.922,5.892a8.5,8.5,0,0,0-2.663-1.307A11.066,11.066,0,0,0,226.6,27.7a10.2,10.2,0,0,0-3.679.645,9.132,9.132,0,0,0-2.949,1.809,8.453,8.453,0,0,0-1.978,2.713,8.349,8.349,0,0,0,0,6.752,8.457,8.457,0,0,0,1.978,2.714,9.112,9.112,0,0,0,2.949,1.808,10.2,10.2,0,0,0,3.679.645,11.1,11.1,0,0,0,3.269-.483A8.479,8.479,0,0,0,232.528,43l2.922,5.892a15.516,15.516,0,0,1-4.08,1.908,17.019,17.019,0,0,1-5.2.779"/>
          <path id="Path_758" data-name="Path 758" d="M252.091,51.574a14.158,14.158,0,0,1-5.773-1.183A14.711,14.711,0,0,1,241.6,47.1a15.713,15.713,0,0,1,0-21.723,14.727,14.727,0,0,1,4.722-3.286,14.675,14.675,0,0,1,11.545,0,14.723,14.723,0,0,1,4.721,3.286,15.71,15.71,0,0,1,0,21.723,14.707,14.707,0,0,1-4.721,3.286,14.16,14.16,0,0,1-5.772,1.183m-.018-6.662a7.251,7.251,0,0,0,3.02-.617,6.717,6.717,0,0,0,2.351-1.774,8.286,8.286,0,0,0,1.532-2.75,11.713,11.713,0,0,0,0-7.056,8.291,8.291,0,0,0-1.532-2.749,6.687,6.687,0,0,0-2.351-1.772,7.22,7.22,0,0,0-3.02-.618,7.1,7.1,0,0,0-2.993.618,6.7,6.7,0,0,0-2.343,1.772,8.273,8.273,0,0,0-1.532,2.749,11.712,11.712,0,0,0,0,7.056,8.268,8.268,0,0,0,1.532,2.75,6.734,6.734,0,0,0,2.343,1.774,7.132,7.132,0,0,0,2.993.617"/>
          <path id="Path_759" data-name="Path 759" d="M272.1,51V21.45h6.877l11.545,18.071V21.45H297.4V51h-6.877L278.974,32.93V51Z"/>
          <path id="Path_760" data-name="Path 760" d="M311.9,51.575a17.773,17.773,0,0,1-3.688-.367,17.329,17.329,0,0,1-3.144-.967,19.408,19.408,0,0,1-2.494-1.254,11.591,11.591,0,0,1-1.737-1.245l3.438-5.8q.712.521,1.586,1.093a15.876,15.876,0,0,0,1.888,1.057,12.9,12.9,0,0,0,2.12.788,8.343,8.343,0,0,0,2.227.3,5.037,5.037,0,0,0,1.844-.3,2.523,2.523,0,0,0,1.194-.913,2.6,2.6,0,0,0,.418-1.505,2.81,2.81,0,0,0-.382-1.487A3.97,3.97,0,0,0,314,39.808a14.917,14.917,0,0,0-1.987-1.11q-1.2-.573-2.842-1.325a13.981,13.981,0,0,1-2.262-1.3,9.431,9.431,0,0,1-1.826-1.675,7.269,7.269,0,0,1-1.212-2.068,6.815,6.815,0,0,1-.437-2.463,8.08,8.08,0,0,1,.713-3.331,9.271,9.271,0,0,1,2.014-2.865,9.552,9.552,0,0,1,3.127-2.015,10.659,10.659,0,0,1,4.052-.743,14.347,14.347,0,0,1,3.2.376,19.191,19.191,0,0,1,3.144,1,12.365,12.365,0,0,1,2.566,1.415l-2.78,5.5a11.367,11.367,0,0,0-1.835-1.048,11.017,11.017,0,0,0-2.057-.707,8.951,8.951,0,0,0-2.059-.251,4.649,4.649,0,0,0-1.8.313,2.593,2.593,0,0,0-1.149.877,2.214,2.214,0,0,0-.4,1.317,1.95,1.95,0,0,0,.232.968,2.063,2.063,0,0,0,.7.715,8.333,8.333,0,0,0,1.194.619q.721.313,1.648.743,2.208.932,3.911,1.844a14.222,14.222,0,0,1,2.859,1.97,7.149,7.149,0,0,1,1.764,2.454,8.206,8.206,0,0,1,.605,3.278,8.83,8.83,0,0,1-1.38,4.988,8.731,8.731,0,0,1-3.893,3.187,14.626,14.626,0,0,1-5.915,1.1"/>
        </g>
      </g>
      <rect id="Rectangle_2068" data-name="Rectangle 2068" width="6.299" height="29.555" transform="translate(388.388 21.467)"/>
      <g id="Group_248" data-name="Group 248">
        <g id="Group_247" data-name="Group 247" clip-path="url(#clip-path)">
          <path id="Path_761" data-name="Path 761" d="M373.633,21.467h0V51.022H344.078a29.555,29.555,0,0,1,29.555-29.555"/>
        </g>
      </g>
    </g>
    <text id="Parent_logo" data-name="Parent logo" transform="translate(621 6231)" font-size="16" font-family="Roboto-Bold, Roboto" font-weight="700"><tspan x="0" y="0">Parent logo</tspan></text>
    <text id="Sub-brand" transform="translate(988 6308)" font-size="16" font-family="Roboto-Bold, Roboto" font-weight="700"><tspan x="0" y="0">Sub-brand</tspan></text>
    <path id="Path_762" data-name="Path 762" d="M484,4807.244v-76.466h35.766" transform="translate(90 1496)" fill="none" stroke="#7e7f7f" stroke-width="1"/>
    <path id="Path_763" data-name="Path 763" d="M534.766,4807.244v-76.466H499" transform="translate(217 1496)" fill="none" stroke="#7e7f7f" stroke-width="1"/>
    <path id="Path_764" data-name="Path 764" d="M804.528,4822.7H911v-3.7" transform="translate(90 1495)" fill="none" stroke="#7e7f7f" stroke-width="1"/>
    <path id="Path_765" data-name="Path 765" d="M804.528,4816.006H911v3.7" transform="translate(90 1472)" fill="none" stroke="#7e7f7f" stroke-width="1"/>
  </g>
</svg>
