<svg xmlns="http://www.w3.org/2000/svg" width="263.465" height="48.254" viewBox="0 0 263.465 48.254">
  <g id="Group_542" data-name="Group 542" transform="translate(-771.98 -6210)">
    <path id="Path_1127" data-name="Path 1127" d="M718.961,18.009l6.385,6.385-6.385,6.385-6.385-6.385ZM736.18,30.955,718.961,48.173,701.747,30.958,684.532,48.173,660.757,24.394,684.534.616,699.618,15.7,684.534,30.785,678.149,24.4l8.519-8.52-2.132-2.132L673.884,24.4l10.652,10.652L718.965.622,753.4,35.052l2.132-2.133L738.318,15.7,753.4.619,777.18,24.4l-6.563,6.563L753.4,13.742l-2.132,2.132,17.215,17.215L753.4,48.173Zm-6.567-6.561L718.961,13.742,708.309,24.394l10.652,10.652Z" transform="translate(111.223 6209.774)" fill="#bfc0c1"/>
    <path id="Path_1128" data-name="Path 1128" d="M860.653,19.918V.555h5.638a9.776,9.776,0,0,1,3.817.739,9.541,9.541,0,0,1,5.154,5.157A9.748,9.748,0,0,1,876,10.26a9.756,9.756,0,0,1-.736,3.8,9.366,9.366,0,0,1-2.06,3.075,9.524,9.524,0,0,1-3.094,2.047,9.88,9.88,0,0,1-3.822.734Zm4.506-4.049h.607a5.481,5.481,0,0,0,2.154-.417,5,5,0,0,0,1.7-1.174,5.379,5.379,0,0,0,1.115-1.784,6.218,6.218,0,0,0,.4-2.259,6.282,6.282,0,0,0-.391-2.248A5.279,5.279,0,0,0,869.63,6.2a5.166,5.166,0,0,0-1.7-1.179,5.405,5.405,0,0,0-2.16-.422h-.607Z" transform="translate(38.079 6209.797)"/>
    <path id="Path_1129" data-name="Path 1129" d="M890.145,19.918V.555h11.079V4.533h-6.573v3.7h6.292V12.2h-6.292v3.743h6.573v3.978Z" transform="translate(27.287 6209.797)"/>
    <path id="Path_1130" data-name="Path 1130" d="M918.437,20.09a11.657,11.657,0,0,1-2.417-.24,11.428,11.428,0,0,1-2.06-.633,12.8,12.8,0,0,1-1.634-.822,7.681,7.681,0,0,1-1.138-.816l2.253-3.8q.466.341,1.039.716a10.354,10.354,0,0,0,1.237.692,8.432,8.432,0,0,0,1.389.516,5.467,5.467,0,0,0,1.46.2,3.3,3.3,0,0,0,1.208-.2,1.645,1.645,0,0,0,.782-.6,1.7,1.7,0,0,0,.274-.986,1.829,1.829,0,0,0-.25-.974,2.591,2.591,0,0,0-.765-.763,9.758,9.758,0,0,0-1.3-.728q-.788-.375-1.862-.868a9.115,9.115,0,0,1-1.482-.851,6.17,6.17,0,0,1-1.2-1.1,4.766,4.766,0,0,1-.795-1.355,4.461,4.461,0,0,1-.286-1.614,5.3,5.3,0,0,1,.467-2.183,6.084,6.084,0,0,1,1.319-1.878,6.291,6.291,0,0,1,2.049-1.32A6.993,6.993,0,0,1,919.383,0a9.414,9.414,0,0,1,2.1.247,12.6,12.6,0,0,1,2.06.657,8.126,8.126,0,0,1,1.681.928l-1.821,3.6a7.46,7.46,0,0,0-1.2-.687,7.27,7.27,0,0,0-1.348-.464,5.887,5.887,0,0,0-1.349-.164,3.048,3.048,0,0,0-1.179.205,1.7,1.7,0,0,0-.753.574,1.455,1.455,0,0,0-.263.863,1.279,1.279,0,0,0,.151.634,1.346,1.346,0,0,0,.461.469,5.5,5.5,0,0,0,.782.405q.472.205,1.079.487,1.449.611,2.563,1.209a9.3,9.3,0,0,1,1.873,1.291,4.685,4.685,0,0,1,1.157,1.607,5.383,5.383,0,0,1,.4,2.148,5.785,5.785,0,0,1-.9,3.269,5.724,5.724,0,0,1-2.551,2.089,9.587,9.587,0,0,1-3.876.722" transform="translate(19.587 6210)"/>
    <rect id="Rectangle_2320" data-name="Rectangle 2320" width="4.505" height="19.363" transform="translate(948.835 6210.352)"/>
    <path id="Path_1131" data-name="Path 1131" d="M961.615,20.09a8.973,8.973,0,0,1-3.694-.763,9.245,9.245,0,0,1-2.994-2.124,9.812,9.812,0,0,1-2-3.2,10.81,10.81,0,0,1-.718-3.972,10.9,10.9,0,0,1,.689-3.9,9.672,9.672,0,0,1,1.973-3.2A9.132,9.132,0,0,1,957.95.779a9.955,9.955,0,0,1,4-.78,13.007,13.007,0,0,1,4.909.991,9.948,9.948,0,0,1,2.189,1.251l-2.089,3.508a7,7,0,0,0-2.347-1.268,8.335,8.335,0,0,0-2.579-.446,5.085,5.085,0,0,0-2.136.423,4.293,4.293,0,0,0-1.552,1.191,5.234,5.234,0,0,0-.952,1.831,8.06,8.06,0,0,0-.321,2.342,8.28,8.28,0,0,0,.362,2.534,5.863,5.863,0,0,0,1.01,1.924,4.436,4.436,0,0,0,1.523,1.221,4.272,4.272,0,0,0,1.879.422,4.562,4.562,0,0,0,1.552-.264,4.082,4.082,0,0,0,1.3-.746,3.681,3.681,0,0,0,.881-1.1,2.879,2.879,0,0,0,.321-1.337v-.153h-4.307V8.835H970.5v3.38a6.773,6.773,0,0,1-.724,3.1,8.139,8.139,0,0,1-1.967,2.5,9.274,9.274,0,0,1-2.843,1.673,9.482,9.482,0,0,1-3.351.6" transform="translate(4.579 6210)"/>
    <path id="Path_1132" data-name="Path 1132" d="M986.412,19.918V.555h4.506l7.565,11.84V.555h4.506V19.918h-4.506L990.918,8.077V19.918Z" transform="translate(-7.938 6209.797)"/>
    <path id="Path_1133" data-name="Path 1133" d="M864.5,64.507a11.649,11.649,0,0,1-2.417-.24,11.426,11.426,0,0,1-2.06-.633,12.79,12.79,0,0,1-1.634-.822,7.694,7.694,0,0,1-1.139-.816l2.254-3.8q.466.341,1.039.716a10.309,10.309,0,0,0,1.236.692,8.435,8.435,0,0,0,1.389.516,5.466,5.466,0,0,0,1.46.2,3.3,3.3,0,0,0,1.208-.2,1.644,1.644,0,0,0,.782-.6,1.7,1.7,0,0,0,.275-.986,1.835,1.835,0,0,0-.25-.974,2.593,2.593,0,0,0-.765-.763,9.738,9.738,0,0,0-1.3-.727q-.788-.376-1.862-.869a9.089,9.089,0,0,1-1.482-.851,6.168,6.168,0,0,1-1.2-1.1,4.78,4.78,0,0,1-.794-1.355,4.46,4.46,0,0,1-.286-1.614,5.3,5.3,0,0,1,.467-2.183,6.085,6.085,0,0,1,1.32-1.877,6.274,6.274,0,0,1,2.049-1.321,6.993,6.993,0,0,1,2.655-.487,9.415,9.415,0,0,1,2.1.247,12.6,12.6,0,0,1,2.06.657,8.1,8.1,0,0,1,1.68.928l-1.82,3.6a7.46,7.46,0,0,0-1.2-.687,7.22,7.22,0,0,0-1.348-.463,5.855,5.855,0,0,0-1.349-.165,3.048,3.048,0,0,0-1.179.205,1.7,1.7,0,0,0-.753.574,1.455,1.455,0,0,0-.263.863,1.279,1.279,0,0,0,.152.634,1.348,1.348,0,0,0,.461.469,5.539,5.539,0,0,0,.782.4q.472.205,1.079.487,1.448.611,2.563,1.209a9.288,9.288,0,0,1,1.873,1.29,4.67,4.67,0,0,1,1.156,1.608,5.366,5.366,0,0,1,.4,2.147,5.79,5.79,0,0,1-.9,3.269,5.724,5.724,0,0,1-2.551,2.089,9.586,9.586,0,0,1-3.876.722" transform="translate(39.325 6193.748)"/>
    <path id="Path_1134" data-name="Path 1134" d="M884.98,64.334V55.627l-7.133-10.655h5.428l3.945,6.066,3.958-6.066h5.428l-7.133,10.655v8.707Z" transform="translate(31.787 6193.544)"/>
    <path id="Path_1135" data-name="Path 1135" d="M912.64,64.507a11.649,11.649,0,0,1-2.417-.24,11.449,11.449,0,0,1-2.061-.633,12.817,12.817,0,0,1-1.634-.822,7.714,7.714,0,0,1-1.138-.816l2.253-3.8q.467.341,1.04.716a10.257,10.257,0,0,0,1.236.692,8.43,8.43,0,0,0,1.389.516,5.473,5.473,0,0,0,1.46.2,3.292,3.292,0,0,0,1.208-.2,1.642,1.642,0,0,0,.783-.6,1.7,1.7,0,0,0,.274-.986,1.829,1.829,0,0,0-.25-.974,2.59,2.59,0,0,0-.764-.763,9.73,9.73,0,0,0-1.3-.727q-.789-.376-1.862-.869a9.089,9.089,0,0,1-1.483-.851,6.182,6.182,0,0,1-1.2-1.1,4.764,4.764,0,0,1-.794-1.355,4.461,4.461,0,0,1-.286-1.614,5.3,5.3,0,0,1,.467-2.183,6.063,6.063,0,0,1,1.32-1.877A6.265,6.265,0,0,1,910.93,44.9a6.988,6.988,0,0,1,2.655-.487,9.41,9.41,0,0,1,2.1.247,12.588,12.588,0,0,1,2.061.657,8.105,8.105,0,0,1,1.68.928l-1.821,3.6a7.479,7.479,0,0,0-1.2-.687,7.226,7.226,0,0,0-1.349-.463,5.85,5.85,0,0,0-1.349-.165,3.046,3.046,0,0,0-1.179.205,1.71,1.71,0,0,0-.753.574,1.455,1.455,0,0,0-.262.863,1.272,1.272,0,0,0,.152.634,1.347,1.347,0,0,0,.461.469,5.524,5.524,0,0,0,.782.4q.473.205,1.08.487,1.448.611,2.562,1.209a9.291,9.291,0,0,1,1.874,1.29,4.687,4.687,0,0,1,1.156,1.608,5.366,5.366,0,0,1,.4,2.147,5.789,5.789,0,0,1-.9,3.269,5.726,5.726,0,0,1-2.551,2.089,9.588,9.588,0,0,1-3.875.722" transform="translate(21.709 6193.748)"/>
    <path id="Path_1136" data-name="Path 1136" d="M933.006,64.334V48.949h-4.529V44.972h13.542v3.978H937.5V64.334Z" transform="translate(13.261 6193.544)"/>
    <path id="Path_1137" data-name="Path 1137" d="M953.9,64.334V44.972h11.078v3.978h-6.572v3.7H964.7v3.967h-6.292v3.743h6.572v3.978Z" transform="translate(3.958 6193.544)"/>
    <path id="Path_1138" data-name="Path 1138" d="M977.06,64.334l1.7-19.363h4.786l4.215,11.007,4.214-11.007h4.787l1.705,19.363h-4.506l-.853-11.266-3.992,11.043H986.41l-3.992-11.043-.852,11.266Z" transform="translate(-4.516 6193.544)"/>
    <rect id="Rectangle_2322" data-name="Rectangle 2322" width="4.127" height="19.363" transform="translate(1031.317 6238.528)"/>
    <path id="Path_1139" data-name="Path 1139" d="M1027.283,64.353h9.7a9.663,9.663,0,0,0,9.663-9.664v-9.7h-9.7a9.663,9.663,0,0,0-9.663,9.664Z" transform="translate(-22.893 6193.538)"/>
  </g>
</svg>
