<svg xmlns="http://www.w3.org/2000/svg" width="242.909" height="63.779" viewBox="0 0 242.909 63.779">
  <g id="Group_543" data-name="Group 543" transform="translate(-771.98 -6353.728)">
    <path id="Path_1140" data-name="Path 1140" d="M699.049,238.11l4.2,4.2-4.2,4.2-4.2-4.2Zm11.327,8.517-11.327,11.327-11.325-11.325L676.4,257.954,660.758,242.31,676.4,226.668l9.924,9.924-9.924,9.924-4.2-4.2,5.6-5.6-1.4-1.4-7.007,7.007,7.007,7.008,22.65-22.65,22.655,22.65,1.4-1.4-11.325-11.326,9.924-9.924,15.642,15.642-4.318,4.318L721.707,235.3l-1.4,1.4L731.63,248.03l-9.923,9.924Zm-4.319-4.316-7.008-7.008-7.008,7.008,7.008,7.008Z" transform="translate(111.222 6127.06)" fill="#bfc0c1"/>
    <path id="Path_1141" data-name="Path 1141" d="M660.758,315.689v-19.03H666.3a9.611,9.611,0,0,1,3.752.726,9.371,9.371,0,0,1,5.065,5.069,10,10,0,0,1,.006,7.48,9.215,9.215,0,0,1-2.025,3.022,9.373,9.373,0,0,1-3.04,2.013,9.726,9.726,0,0,1-3.758.72Zm4.428-3.979h.6a5.378,5.378,0,0,0,2.117-.41,4.925,4.925,0,0,0,1.675-1.153,5.3,5.3,0,0,0,1.1-1.753,6.517,6.517,0,0,0,.006-4.429,5.171,5.171,0,0,0-1.1-1.753,5.067,5.067,0,0,0-1.675-1.159,5.317,5.317,0,0,0-2.122-.415h-.6Z" transform="translate(111.222 6101.45)"/>
    <path id="Path_1142" data-name="Path 1142" d="M689.744,315.689v-19.03h10.889v3.91h-6.46V304.2h6.184v3.9h-6.184v3.679h6.46v3.91Z" transform="translate(100.616 6101.45)"/>
    <path id="Path_1143" data-name="Path 1143" d="M717.552,315.858a11.428,11.428,0,0,1-2.375-.237,11.115,11.115,0,0,1-2.025-.622,12.584,12.584,0,0,1-1.607-.808,7.5,7.5,0,0,1-1.119-.8l2.214-3.737q.458.335,1.021.7a10.346,10.346,0,0,0,1.216.68,8.289,8.289,0,0,0,1.366.507,5.38,5.38,0,0,0,1.434.2,3.241,3.241,0,0,0,1.187-.2,1.626,1.626,0,0,0,.77-.587,1.68,1.68,0,0,0,.269-.97,1.8,1.8,0,0,0-.247-.957,2.54,2.54,0,0,0-.751-.75,9.613,9.613,0,0,0-1.279-.715q-.774-.369-1.831-.854a8.986,8.986,0,0,1-1.456-.836,6.065,6.065,0,0,1-1.176-1.078,4.707,4.707,0,0,1-.781-1.332,4.4,4.4,0,0,1-.281-1.586,5.2,5.2,0,0,1,.459-2.145,5.981,5.981,0,0,1,1.3-1.845,6.168,6.168,0,0,1,2.014-1.3,6.864,6.864,0,0,1,2.61-.479,9.231,9.231,0,0,1,2.06.242,12.3,12.3,0,0,1,2.025.646,7.969,7.969,0,0,1,1.652.911l-1.79,3.541a7.3,7.3,0,0,0-1.181-.675,7.069,7.069,0,0,0-1.325-.455,5.751,5.751,0,0,0-1.326-.162,3,3,0,0,0-1.159.2,1.674,1.674,0,0,0-.74.565,1.425,1.425,0,0,0-.258.848,1.246,1.246,0,0,0,.149.623,1.335,1.335,0,0,0,.453.462,5.494,5.494,0,0,0,.769.4q.465.2,1.061.479,1.422.6,2.519,1.188a9.158,9.158,0,0,1,1.841,1.268,4.614,4.614,0,0,1,1.136,1.581,5.271,5.271,0,0,1,.39,2.11,5.69,5.69,0,0,1-.889,3.213,5.632,5.632,0,0,1-2.507,2.053,9.433,9.433,0,0,1-3.809.709" transform="translate(93.048 6101.65)"/>
    <rect id="Rectangle_2323" data-name="Rectangle 2323" width="4.428" height="19.03" transform="translate(821.224 6398.108)"/>
    <path id="Path_1144" data-name="Path 1144" d="M759.988,315.858a8.825,8.825,0,0,1-3.631-.75,9.1,9.1,0,0,1-2.942-2.088,9.626,9.626,0,0,1-1.968-3.143,11.168,11.168,0,0,1-.029-7.733A9.493,9.493,0,0,1,753.357,299a8.972,8.972,0,0,1,3.029-2.123,9.788,9.788,0,0,1,3.935-.767,12.762,12.762,0,0,1,4.825.974,9.786,9.786,0,0,1,2.152,1.229l-2.054,3.448a6.894,6.894,0,0,0-2.306-1.245,8.2,8.2,0,0,0-2.536-.438,5,5,0,0,0-2.1.415,4.212,4.212,0,0,0-1.526,1.171,5.134,5.134,0,0,0-.936,1.8,7.921,7.921,0,0,0-.315,2.3,8.149,8.149,0,0,0,.355,2.491,5.752,5.752,0,0,0,.993,1.891,4.365,4.365,0,0,0,1.5,1.2,4.2,4.2,0,0,0,1.847.415,4.488,4.488,0,0,0,1.527-.259,4.015,4.015,0,0,0,1.273-.732,3.622,3.622,0,0,0,.866-1.084,2.832,2.832,0,0,0,.316-1.315v-.15h-4.234V304.8h8.754v3.321a6.667,6.667,0,0,1-.711,3.046,8.015,8.015,0,0,1-1.933,2.462,9.155,9.155,0,0,1-2.8,1.644,9.333,9.333,0,0,1-3.293.588" transform="translate(78.296 6101.65)"/>
    <path id="Path_1145" data-name="Path 1145" d="M784.359,315.689v-19.03h4.428l7.435,11.637V296.658h4.428v19.03h-4.428l-7.435-11.638v11.638Z" transform="translate(65.995 6101.45)"/>
    <path id="Path_1146" data-name="Path 1146" d="M830.587,315.858a11.429,11.429,0,0,1-2.375-.237,11.116,11.116,0,0,1-2.025-.622,12.58,12.58,0,0,1-1.607-.808,7.5,7.5,0,0,1-1.119-.8l2.214-3.737q.457.335,1.021.7a10.341,10.341,0,0,0,1.216.68,8.287,8.287,0,0,0,1.366.507,5.381,5.381,0,0,0,1.434.2,3.241,3.241,0,0,0,1.187-.2,1.626,1.626,0,0,0,.77-.587,1.679,1.679,0,0,0,.269-.97,1.8,1.8,0,0,0-.247-.957,2.541,2.541,0,0,0-.751-.75,9.658,9.658,0,0,0-1.279-.715q-.774-.369-1.831-.854a8.986,8.986,0,0,1-1.456-.836A6.066,6.066,0,0,1,826.2,304.8a4.708,4.708,0,0,1-.781-1.332,4.4,4.4,0,0,1-.282-1.586,5.2,5.2,0,0,1,.46-2.145,5.97,5.97,0,0,1,1.3-1.845,6.168,6.168,0,0,1,2.014-1.3,6.864,6.864,0,0,1,2.61-.479,9.234,9.234,0,0,1,2.06.242A12.3,12.3,0,0,1,835.6,297a7.973,7.973,0,0,1,1.652.911l-1.79,3.541a7.3,7.3,0,0,0-1.181-.675,7.069,7.069,0,0,0-1.325-.455,5.751,5.751,0,0,0-1.326-.162,3,3,0,0,0-1.158.2,1.674,1.674,0,0,0-.74.565,1.425,1.425,0,0,0-.258.848,1.246,1.246,0,0,0,.149.623,1.335,1.335,0,0,0,.453.462,5.5,5.5,0,0,0,.769.4q.465.2,1.061.479,1.422.6,2.519,1.188a9.159,9.159,0,0,1,1.841,1.268,4.614,4.614,0,0,1,1.136,1.581,5.27,5.27,0,0,1,.39,2.11,5.69,5.69,0,0,1-.889,3.213,5.633,5.633,0,0,1-2.507,2.053,9.434,9.434,0,0,1-3.809.709" transform="translate(51.687 6101.65)"/>
    <path id="Path_1147" data-name="Path 1147" d="M850.719,315.689v-8.558l-7.01-10.473h5.335l3.879,5.963,3.889-5.963h5.335l-7.01,10.473v8.558Z" transform="translate(44.279 6101.45)"/>
    <path id="Path_1148" data-name="Path 1148" d="M877.9,315.858a11.43,11.43,0,0,1-2.375-.237A11.131,11.131,0,0,1,873.5,315a12.616,12.616,0,0,1-1.607-.808,7.489,7.489,0,0,1-1.119-.8l2.214-3.737q.458.335,1.021.7a10.288,10.288,0,0,0,1.216.68,8.252,8.252,0,0,0,1.365.507,5.38,5.38,0,0,0,1.434.2,3.246,3.246,0,0,0,1.188-.2,1.626,1.626,0,0,0,.769-.587,1.68,1.68,0,0,0,.269-.97,1.8,1.8,0,0,0-.247-.957,2.544,2.544,0,0,0-.751-.75,9.662,9.662,0,0,0-1.28-.715q-.774-.369-1.831-.854a8.992,8.992,0,0,1-1.457-.836,6.07,6.07,0,0,1-1.176-1.078,4.689,4.689,0,0,1-.78-1.332,4.382,4.382,0,0,1-.282-1.586,5.2,5.2,0,0,1,.459-2.145,5.982,5.982,0,0,1,1.3-1.845,6.17,6.17,0,0,1,2.014-1.3,6.864,6.864,0,0,1,2.61-.479,9.225,9.225,0,0,1,2.06.242,12.3,12.3,0,0,1,2.025.646,7.968,7.968,0,0,1,1.652.911l-1.79,3.541a7.292,7.292,0,0,0-1.181-.675,7.07,7.07,0,0,0-1.325-.455,5.75,5.75,0,0,0-1.326-.162,3,3,0,0,0-1.159.2,1.674,1.674,0,0,0-.74.565,1.426,1.426,0,0,0-.258.848,1.253,1.253,0,0,0,.149.623,1.335,1.335,0,0,0,.453.462,5.5,5.5,0,0,0,.769.4q.465.2,1.062.479,1.422.6,2.519,1.188a9.159,9.159,0,0,1,1.841,1.268,4.614,4.614,0,0,1,1.136,1.581,5.272,5.272,0,0,1,.39,2.11,5.691,5.691,0,0,1-.889,3.213,5.634,5.634,0,0,1-2.507,2.053,9.439,9.439,0,0,1-3.81.709" transform="translate(34.373 6101.65)"/>
    <path id="Path_1149" data-name="Path 1149" d="M897.922,315.689V300.568H893.47v-3.91h13.31v3.91h-4.441v15.121Z" transform="translate(26.071 6101.45)"/>
    <path id="Path_1150" data-name="Path 1150" d="M918.458,315.689v-19.03h10.888v3.91h-6.459V304.2h6.184v3.9h-6.184v3.679h6.459v3.91Z" transform="translate(16.927 6101.45)"/>
    <path id="Path_1151" data-name="Path 1151" d="M941.22,315.689l1.675-19.03h4.7l4.141,10.818,4.142-10.818h4.7l1.676,19.03h-4.429L957,304.616l-3.924,10.854H950.41l-3.923-10.854-.838,11.073Z" transform="translate(8.598 6101.45)"/>
    <rect id="Rectangle_2324" data-name="Rectangle 2324" width="4.055" height="19.023" transform="translate(1010.834 6398.139)"/>
    <path id="Path_1152" data-name="Path 1152" d="M995.726,315.73h9.529a9.494,9.494,0,0,0,9.494-9.494v-9.528h-9.529a9.493,9.493,0,0,0-9.494,9.494Z" transform="translate(-11.346 6101.432)"/>
  </g>
</svg>
