<svg xmlns="http://www.w3.org/2000/svg" width="249.501" height="48.255" viewBox="0 0 249.501 48.255">
  <g id="Group_540" data-name="Group 540" transform="translate(-353.421 -6210)">
    <path id="Path_1153" data-name="Path 1153" d="M58.868,17.871l6.385,6.385-6.385,6.385-6.385-6.385ZM76.087,30.817,58.868,48.036,41.655,30.821,24.44,48.036.664,24.256,24.442.479,39.525,15.563,24.442,30.648l-6.385-6.385,8.52-8.52L24.444,13.61,13.792,24.262,24.444,34.915,58.873.485l34.435,34.43,2.132-2.132L78.226,15.565,93.31.481l23.777,23.777-6.563,6.563L93.31,13.6l-2.132,2.132,17.215,17.215L93.308,48.036Zm-6.566-6.561L58.868,13.6,48.217,24.256,58.868,34.908Z" transform="translate(352.757 6209.825)" fill="#1e3b51"/>
    <path id="Path_1154" data-name="Path 1154" d="M208.181,20.293a7.9,7.9,0,0,1-5.65-1.825,7.121,7.121,0,0,1-1.915-5.4V.555H205.1V11.738a5.467,5.467,0,0,0,.694,3.18,2.8,2.8,0,0,0,2.387.927,2.767,2.767,0,0,0,2.364-.927,5.461,5.461,0,0,0,.695-3.18V.555h4.506V13.064a7.123,7.123,0,0,1-1.914,5.4,7.9,7.9,0,0,1-5.65,1.825" transform="translate(279.593 6209.797)"/>
    <path id="Path_1155" data-name="Path 1155" d="M234.744,20.09a11.647,11.647,0,0,1-2.417-.24,11.427,11.427,0,0,1-2.06-.633,12.8,12.8,0,0,1-1.635-.822,7.717,7.717,0,0,1-1.138-.816l2.254-3.8q.466.341,1.039.716a10.4,10.4,0,0,0,1.236.692,8.416,8.416,0,0,0,1.389.516,5.466,5.466,0,0,0,1.46.2,3.3,3.3,0,0,0,1.208-.2,1.643,1.643,0,0,0,.782-.6,1.7,1.7,0,0,0,.275-.986,1.835,1.835,0,0,0-.25-.974,2.593,2.593,0,0,0-.765-.763,9.793,9.793,0,0,0-1.3-.728q-.787-.375-1.862-.868a9.088,9.088,0,0,1-1.482-.851,6.192,6.192,0,0,1-1.2-1.1,4.783,4.783,0,0,1-.794-1.355,4.462,4.462,0,0,1-.286-1.614,5.3,5.3,0,0,1,.467-2.183,6.085,6.085,0,0,1,1.32-1.878,6.283,6.283,0,0,1,2.049-1.32A6.988,6.988,0,0,1,235.689,0a9.411,9.411,0,0,1,2.1.247A12.586,12.586,0,0,1,239.845.9a8.1,8.1,0,0,1,1.68.928l-1.821,3.6a7.483,7.483,0,0,0-1.2-.687,7.27,7.27,0,0,0-1.348-.464,5.892,5.892,0,0,0-1.349-.164,3.045,3.045,0,0,0-1.179.205,1.7,1.7,0,0,0-.753.574,1.451,1.451,0,0,0-.263.863,1.278,1.278,0,0,0,.152.634,1.341,1.341,0,0,0,.461.469,5.467,5.467,0,0,0,.782.405q.472.205,1.079.487,1.448.611,2.562,1.209a9.3,9.3,0,0,1,1.874,1.291,4.69,4.69,0,0,1,1.156,1.607,5.371,5.371,0,0,1,.4,2.148,5.79,5.79,0,0,1-.9,3.269,5.727,5.727,0,0,1-2.551,2.089,9.588,9.588,0,0,1-3.876.722" transform="translate(269.758 6210)"/>
    <path id="Path_1156" data-name="Path 1156" d="M255.975,19.918V.555h11.078V4.533h-6.572v3.7h6.292V12.2h-6.292v3.743h6.572v3.978Z" transform="translate(259.336 6209.797)"/>
    <path id="Path_1157" data-name="Path 1157" d="M280.424,19.918V.555h7.133a7.977,7.977,0,0,1,3.478.71,5.274,5.274,0,0,1,2.294,2.048,6.12,6.12,0,0,1,.812,3.238,6.906,6.906,0,0,1-.46,2.576,5.392,5.392,0,0,1-1.355,1.983,6.248,6.248,0,0,1-2.165,1.285l6.257,7.522h-5.7l-5.369-6.994h-.42v6.994ZM284.93,9.18h1.179a4.982,4.982,0,0,0,1.809-.287,2.317,2.317,0,0,0,1.116-.851,2.382,2.382,0,0,0,.379-1.361,2.2,2.2,0,0,0-.852-1.865,4.007,4.007,0,0,0-2.452-.646H284.93Z" transform="translate(250.39 6209.797)"/>
    <path id="Path_1158" data-name="Path 1158" d="M204.975,64.507a11.658,11.658,0,0,1-2.417-.24,11.427,11.427,0,0,1-2.06-.633,12.791,12.791,0,0,1-1.634-.822,7.681,7.681,0,0,1-1.138-.816l2.253-3.8q.466.341,1.039.716a10.274,10.274,0,0,0,1.237.692,8.43,8.43,0,0,0,1.389.516,5.467,5.467,0,0,0,1.46.2,3.3,3.3,0,0,0,1.208-.2,1.645,1.645,0,0,0,.782-.6,1.7,1.7,0,0,0,.274-.986,1.83,1.83,0,0,0-.25-.974,2.593,2.593,0,0,0-.765-.763,9.687,9.687,0,0,0-1.3-.727q-.788-.376-1.862-.869a9.116,9.116,0,0,1-1.483-.851,6.148,6.148,0,0,1-1.2-1.1,4.769,4.769,0,0,1-.795-1.355,4.461,4.461,0,0,1-.286-1.614A5.305,5.305,0,0,1,199.9,48.1a6.073,6.073,0,0,1,1.319-1.877,6.282,6.282,0,0,1,2.049-1.321,6.993,6.993,0,0,1,2.656-.487,9.416,9.416,0,0,1,2.1.247,12.6,12.6,0,0,1,2.06.657,8.124,8.124,0,0,1,1.681.928l-1.821,3.6a7.461,7.461,0,0,0-1.2-.687,7.223,7.223,0,0,0-1.348-.463,5.855,5.855,0,0,0-1.349-.165,3.048,3.048,0,0,0-1.179.205,1.7,1.7,0,0,0-.753.574,1.455,1.455,0,0,0-.263.863,1.278,1.278,0,0,0,.152.634,1.359,1.359,0,0,0,.461.469,5.572,5.572,0,0,0,.782.4q.472.205,1.079.487,1.449.611,2.563,1.209a9.269,9.269,0,0,1,1.873,1.29,4.68,4.68,0,0,1,1.157,1.608,5.377,5.377,0,0,1,.4,2.147,5.785,5.785,0,0,1-.9,3.269,5.724,5.724,0,0,1-2.551,2.089,9.586,9.586,0,0,1-3.876.722" transform="translate(280.65 6193.748)"/>
    <path id="Path_1159" data-name="Path 1159" d="M225.341,64.334V48.949h-4.529V44.972h13.542v3.978h-4.518V64.334Z" transform="translate(272.203 6193.544)"/>
    <path id="Path_1160" data-name="Path 1160" d="M252.433,64.507a9.286,9.286,0,0,1-3.782-.775,9.633,9.633,0,0,1-3.094-2.153,10.3,10.3,0,0,1,0-14.235,9.663,9.663,0,0,1,3.094-2.153,9.625,9.625,0,0,1,7.564,0,9.663,9.663,0,0,1,3.094,2.153,10.3,10.3,0,0,1,0,14.235,9.633,9.633,0,0,1-3.094,2.153,9.288,9.288,0,0,1-3.782.775m-.011-4.365a4.734,4.734,0,0,0,1.978-.405,4.388,4.388,0,0,0,1.541-1.162,5.432,5.432,0,0,0,1-1.8,7.691,7.691,0,0,0,0-4.624,5.438,5.438,0,0,0-1-1.8,4.387,4.387,0,0,0-1.541-1.161,4.734,4.734,0,0,0-1.978-.405,4.66,4.66,0,0,0-1.961.405,4.4,4.4,0,0,0-1.535,1.161,5.438,5.438,0,0,0-1,1.8,7.691,7.691,0,0,0,0,4.624,5.432,5.432,0,0,0,1,1.8,4.4,4.4,0,0,0,1.535,1.162,4.66,4.66,0,0,0,1.961.405" transform="translate(264.186 6193.748)"/>
    <path id="Path_1161" data-name="Path 1161" d="M278.712,64.335V44.972h7.133a7.976,7.976,0,0,1,3.478.71,5.272,5.272,0,0,1,2.294,2.048,6.125,6.125,0,0,1,.811,3.238,6.906,6.906,0,0,1-.46,2.576,5.39,5.39,0,0,1-1.354,1.983,6.247,6.247,0,0,1-2.165,1.285l6.257,7.522h-5.7l-5.37-6.994h-.42v6.994ZM283.218,53.6H284.4a4.984,4.984,0,0,0,1.809-.287,2.316,2.316,0,0,0,1.115-.851A2.383,2.383,0,0,0,287.7,51.1a2.2,2.2,0,0,0-.852-1.865,4,4,0,0,0-2.451-.646h-1.179Z" transform="translate(251.017 6193.544)"/>
    <path id="Path_1162" data-name="Path 1162" d="M306.481,64.334V55.627l-7.133-10.655h5.428l3.946,6.066,3.957-6.066h5.428l-7.133,10.655v8.707Z" transform="translate(243.466 6193.544)"/>
    <path id="Path_1163" data-name="Path 1163" d="M364.531,54.653a9.681,9.681,0,1,1-9.682-9.681,9.682,9.682,0,0,1,9.682,9.681" transform="translate(226.7 6193.544)"/>
    <rect id="Rectangle_2325" data-name="Rectangle 2325" width="4.127" height="19.363" transform="translate(598.794 6238.516)"/>
  </g>
</svg>
