<svg id="Group_60" data-name="Group 60" xmlns="http://www.w3.org/2000/svg" width="23" height="22" viewBox="0 0 23 22">
  <g id="Group_62" data-name="Group 62" transform="translate(0 -0.334)">
    <g id="Rectangle_278" data-name="Rectangle 278">
      <rect id="Rectangle_1959" data-name="Rectangle 1959" width="23" height="22" transform="translate(0 0.334)" fill="#bfc0c1"/>
    </g>
    <g id="Path_18" data-name="Path 18" transform="translate(3.743 5.072)">
      <path id="Path_628" data-name="Path 628" d="M2266.212,1543.9a6.964,6.964,0,0,1-1.782.492,2.928,2.928,0,0,0,1.351-1.721,6.393,6.393,0,0,1-1.966.768,3.109,3.109,0,0,0-5.377,2.12,2.591,2.591,0,0,0,.094.706,8.768,8.768,0,0,1-6.425-3.256,3.391,3.391,0,0,0-.4,1.567,3.1,3.1,0,0,0,1.383,2.581,3.135,3.135,0,0,1-1.417-.4v.031a3.1,3.1,0,0,0,2.492,3.042,2.843,2.843,0,0,1-1.414.061,3.116,3.116,0,0,0,2.889,2.152,6.274,6.274,0,0,1-3.872,1.322,6,6,0,0,1-.738-.031,8.675,8.675,0,0,0,4.794,1.417,8.789,8.789,0,0,0,8.85-8.727v-.527A6.351,6.351,0,0,0,2266.212,1543.9Z" transform="translate(-2251.031 -1542.455)" fill="#fff"/>
    </g>
  </g>
</svg>
