<svg xmlns="http://www.w3.org/2000/svg" width="326.995" height="292.5" viewBox="0 0 326.995 292.5">
  <g id="Group_7" data-name="Group 7" transform="translate(-799.677 -82.5)">
    <g id="Group_5" data-name="Group 5">
      <line id="Line_7" data-name="Line 7" y2="75" transform="translate(1050 149)" fill="none" stroke="#0aa5a5" stroke-miterlimit="10" stroke-width="0.646"/>
      <line id="Line_8" data-name="Line 8" x1="200" transform="translate(825 350)" fill="none" stroke="#0aa5a5" stroke-miterlimit="10" stroke-width="0.646"/>
      <line id="Line_9" data-name="Line 9" y2="150" transform="translate(1075 225)" fill="none" stroke="#0aa5a5" stroke-miterlimit="10" stroke-width="0.646"/>
      <line id="Line_10" data-name="Line 10" x2="75" transform="translate(1025 250)" fill="none" stroke="#0aa5a5" stroke-miterlimit="10" stroke-width="0.646"/>
      <line id="Line_11" data-name="Line 11" x2="100" transform="translate(875 300)" fill="none" stroke="#0aa5a5" stroke-miterlimit="10" stroke-width="0.646"/>
      <line id="Line_12" data-name="Line 12" y2="75" transform="translate(1000 200)" fill="none" stroke="#0aa5a5" stroke-miterlimit="10" stroke-width="0.646"/>
      <path id="Path_14" data-name="Path 14" d="M975,200" fill="none" stroke="#0aa5a5" stroke-miterlimit="10" stroke-width="0.646"/>
      <line id="Line_13" data-name="Line 13" x2="225" transform="translate(800 225)" fill="none" stroke="#0aa5a5" stroke-miterlimit="10" stroke-width="0.646"/>
      <line id="Line_14" data-name="Line 14" y2="125" transform="translate(850 125)" fill="none" stroke="#0aa5a5" stroke-miterlimit="10" stroke-width="0.646"/>
      <line id="Line_15" data-name="Line 15" y2="150" transform="translate(800 100)" fill="none" stroke="#0aa5a5" stroke-miterlimit="10" stroke-width="0.646"/>
      <line id="Line_16" data-name="Line 16" y1="102.563" x2="0.276" transform="translate(949.724 100)" fill="none" stroke="#0aa5a5" stroke-miterlimit="10" stroke-width="0.5"/>
    </g>
    <rect id="Rectangle_60" data-name="Rectangle 60" width="25" height="25" transform="translate(900 300)" fill="#ef0b1e"/>
    <rect id="Rectangle_61" data-name="Rectangle 61" width="25" height="25" transform="translate(900 200)" fill="#0aa5a5"/>
    <rect id="Rectangle_62" data-name="Rectangle 62" width="25" height="25" transform="translate(925 200)" fill="#00ccd1"/>
    <rect id="Rectangle_63" data-name="Rectangle 63" width="25" height="49.932" transform="translate(1000 149.932)" fill="#ef0b1e"/>
    <path id="Rectangle_64" data-name="Rectangle 64" d="M12.5,0H25a0,0,0,0,1,0,0V25a0,0,0,0,1,0,0H0a0,0,0,0,1,0,0V12.5A12.5,12.5,0,0,1,12.5,0Z" transform="translate(900 325)" fill="#00ccd1"/>
    <rect id="Rectangle_65" data-name="Rectangle 65" width="25" height="25" transform="translate(925 325)" fill="#00ccd1"/>
    <rect id="Rectangle_66" data-name="Rectangle 66" width="25" height="25" transform="translate(800 150)" fill="#ef0b1e"/>
    <path id="Rectangle_67" data-name="Rectangle 67" d="M12.5,0H25a0,0,0,0,1,0,0V25a0,0,0,0,1,0,0H0a0,0,0,0,1,0,0V12.5A12.5,12.5,0,0,1,12.5,0Z" transform="translate(800 175)" fill="#00ccd1"/>
    <rect id="Rectangle_68" data-name="Rectangle 68" width="25" height="25" transform="translate(825.068 174.864)" fill="#00ccd1"/>
    <path id="Rectangle_69" data-name="Rectangle 69" d="M0,0H25A25,25,0,0,1,50,25V50a0,0,0,0,1,0,0H0a0,0,0,0,1,0,0V0A0,0,0,0,1,0,0Z" transform="translate(900 250)" fill="#bfc0c1"/>
    <path id="Rectangle_70" data-name="Rectangle 70" d="M0,0H25A25,25,0,0,1,50,25V50a0,0,0,0,1,0,0H0a0,0,0,0,1,0,0V0A0,0,0,0,1,0,0Z" transform="translate(1000 200) rotate(180)" fill="#00ccd1"/>
    <path id="Rectangle_71" data-name="Rectangle 71" d="M0,0H25A25,25,0,0,1,50,25V50a0,0,0,0,1,0,0H25A25,25,0,0,1,0,25V0A0,0,0,0,1,0,0Z" transform="translate(900 199.864) rotate(180)" fill="#1a2a3a"/>
    <path id="Path_16" data-name="Path 16" d="M850,175a25,25,0,0,0-24.99-25v50A25,25,0,0,0,850,175Z" fill="#ef0b1e"/>
    <path id="Path_17" data-name="Path 17" d="M924.995,174.995a25,25,0,0,0,25-24.989h-50A25,25,0,0,0,924.995,174.995Z" fill="#1a2a3a"/>
    <path id="Path_18" data-name="Path 18" d="M1050,175a25,25,0,0,0-24.989-25v50A25,25,0,0,0,1050,175Z" fill="#f4455a"/>
    <path id="Path_19" data-name="Path 19" d="M975,174.99A25,25,0,0,0,1000,150H950A25,25,0,0,0,975,174.99Z" fill="#0aa5a5"/>
    <path id="Path_20" data-name="Path 20" d="M925,175.005a25,25,0,0,0-25.005,24.985l50,.01A25,25,0,0,0,925,175.005Z" fill="#ef0b1e"/>
    <path id="Path_21" data-name="Path 21" d="M925,275.006a25,25,0,0,0,25.006-24.987l-50-.011A25,25,0,0,0,925,275.006Z" fill="#eeeff1"/>
    <path id="Path_22" data-name="Path 22" d="M949.994,250.012a25,25,0,0,0-50-.012v.008l50,.011Z" fill="#00ccd1"/>
    <path id="Path_23" data-name="Path 23" d="M937.494,250.039a12.5,12.5,0,1,0-25-.006v.008l25,.006Z" fill="#0aa5a5"/>
    <path id="Path_24" data-name="Path 24" d="M912.494,250.049a12.5,12.5,0,1,0,25,.006v-.008l-25-.006Z" fill="#bfc0c1"/>
    <g id="Group_6" data-name="Group 6">
      <path id="Path_25" data-name="Path 25" d="M1025,325a25,25,0,0,0,25-25h-25Z" fill="none"/>
      <path id="Path_26" data-name="Path 26" d="M1050,300a25,25,0,0,0-25-25v25Z" fill="none"/>
      <path id="Path_27" data-name="Path 27" d="M1000,300h25V275A25,25,0,0,0,1000,300Z" fill="none"/>
      <path id="Path_28" data-name="Path 28" d="M1000,300a25,25,0,0,0,25,25V300Z" fill="none"/>
      <path id="Path_29" data-name="Path 29" d="M1000,300H975a50,50,0,0,0,50,50V325A25,25,0,0,1,1000,300Z" fill="#ef0b1e"/>
      <path id="Path_30" data-name="Path 30" d="M1025,275V250a50,50,0,0,0-50,50h25A25,25,0,0,1,1025,275Z" fill="#f4455a"/>
      <path id="Path_31" data-name="Path 31" d="M1025,250v25a25,25,0,0,1,25,25h25A50,50,0,0,0,1025,250Z" fill="#1a2a3a"/>
      <path id="Path_32" data-name="Path 32" d="M1025,325v25a50,50,0,0,0,50-50h-25A25,25,0,0,1,1025,325Z" fill="#f4455a"/>
    </g>
    <rect id="Rectangle_72" data-name="Rectangle 72" width="25" height="25" transform="translate(1050 325)" fill="#ef0b1e"/>
    <rect id="Rectangle_73" data-name="Rectangle 73" width="25" height="25" transform="translate(1050.044 275.002)" fill="#00ccd1"/>
    <path id="Rectangle_74" data-name="Rectangle 74" d="M25,0h0a0,0,0,0,1,0,0V25a0,0,0,0,1,0,0H0a0,0,0,0,1,0,0v0A25,25,0,0,1,25,0Z" transform="translate(1050 300)" fill="#1a2a3a"/>
    <path id="Path_33" data-name="Path 33" d="M1050.045,300a12.5,12.5,0,0,0,25,0Z" fill="#00ccd1"/>
    <path id="Path_34" data-name="Path 34" d="M1075.044,300h0a12.5,12.5,0,0,0-25,0h0c0,.017,0,.034,0,.051h25C1075.043,300.036,1075.044,300.019,1075.044,300Z" fill="#f4455a"/>
    <path id="Path_35" data-name="Path 35" d="M1075.044,349.949h0a12.5,12.5,0,0,0-25,0h0c0,.017,0,.034,0,.051h25C1075.043,349.983,1075.044,349.966,1075.044,349.949Z" fill="#f4455a"/>
    <rect id="Rectangle_75" data-name="Rectangle 75" width="25" height="25" transform="translate(1050 250)" fill="#0aa5a5"/>
    <path id="Path_36" data-name="Path 36" d="M1050.045,250a12.5,12.5,0,0,0,25,0Z" fill="#00ccd1"/>
    <path id="Path_37" data-name="Path 37" d="M950,325a25,25,0,0,0-25-25v25Z" fill="#ef0b1e"/>
    <path id="Path_38" data-name="Path 38" d="M925,325v25a25,25,0,0,0,25-25Z" fill="#f4455a"/>
    <text id="_1_2" data-name="1/2" transform="translate(941.282 92.5)" font-size="10" font-family="Roboto-Light, Roboto" font-weight="300"><tspan x="0" y="0">1/2</tspan></text>
    <text id="_14pt" data-name="14pt" transform="translate(1106.672 253.633)" font-size="10" font-family="Roboto-Light, Roboto" font-weight="300"><tspan x="0" y="0">14pt</tspan></text>
    <text id="T" transform="translate(807.126 352.498)" font-size="10" font-family="Roboto-Light, Roboto" font-weight="300" text-decoration="line-through"><tspan x="0" y="0">T</tspan></text>
    <text id="_50_" data-name="50%" transform="translate(846.753 266.968)" font-size="10" font-family="Roboto-Light, Roboto" font-weight="300"><tspan x="0" y="0">50%</tspan></text>
  </g>
</svg>
