<svg id="Group_328" data-name="Group 328" xmlns="http://www.w3.org/2000/svg" xmlns:xlink="http://www.w3.org/1999/xlink" width="186.051" height="165.684" viewBox="0 0 186.051 165.684">
  <defs>
    <clipPath id="clip-path">
      <rect id="Rectangle_2101" data-name="Rectangle 2101" width="186.051" height="165.684" fill="none"/>
    </clipPath>
    <clipPath id="clip-path-5">
      <rect id="Rectangle_2115" data-name="Rectangle 2115" width="8.569" height="6.413" transform="translate(80.609)" fill="none"/>
    </clipPath>
    <clipPath id="clip-path-7">
      <rect id="Rectangle_2117" data-name="Rectangle 2117" width="11.293" height="6.413" transform="translate(174.758 91.725)" fill="none"/>
    </clipPath>
    <clipPath id="clip-path-9">
      <rect id="Rectangle_2119" data-name="Rectangle 2119" width="3.288" height="6.413" transform="translate(4.24 148.004)" fill="none"/>
    </clipPath>
    <clipPath id="clip-path-11">
      <rect id="Rectangle_2121" data-name="Rectangle 2121" width="10.515" height="6.413" transform="translate(26.799 99.316)" fill="none"/>
    </clipPath>
  </defs>
  <line id="Line_120" data-name="Line 120" y2="42.693" transform="translate(142.498 37.033)" fill="none" stroke="#1e3b51" stroke-miterlimit="10" stroke-width="0.368"/>
  <line id="Line_121" data-name="Line 121" x1="113.852" transform="translate(14.414 151.453)" fill="none" stroke="#1e3b51" stroke-miterlimit="10" stroke-width="0.368"/>
  <g id="Group_297" data-name="Group 297">
    <g id="Group_296" data-name="Group 296" clip-path="url(#clip-path)">
      <line id="Line_122" data-name="Line 122" y2="85.389" transform="translate(156.729 80.295)" fill="none" stroke="#1e3b51" stroke-miterlimit="10" stroke-width="0.368"/>
    </g>
  </g>
  <line id="Line_123" data-name="Line 123" x2="42.694" transform="translate(128.266 94.527)" fill="none" stroke="#1e3b51" stroke-miterlimit="10" stroke-width="0.368"/>
  <line id="Line_124" data-name="Line 124" x2="56.926" transform="translate(42.878 122.99)" fill="none" stroke="#1e3b51" stroke-miterlimit="10" stroke-width="0.368"/>
  <line id="Line_125" data-name="Line 125" y2="42.694" transform="translate(114.035 66.064)" fill="none" stroke="#1e3b51" stroke-miterlimit="10" stroke-width="0.368"/>
  <g id="Group_299" data-name="Group 299">
    <g id="Group_298" data-name="Group 298" clip-path="url(#clip-path)">
      <line id="Line_126" data-name="Line 126" x2="128.083" transform="translate(0.183 80.295)" fill="none" stroke="#1e3b51" stroke-miterlimit="10" stroke-width="0.368"/>
    </g>
  </g>
  <line id="Line_127" data-name="Line 127" y2="71.156" transform="translate(28.646 23.371)" fill="none" stroke="#1e3b51" stroke-miterlimit="10" stroke-width="0.368"/>
  <g id="Group_301" data-name="Group 301">
    <g id="Group_300" data-name="Group 300" clip-path="url(#clip-path)">
      <line id="Line_128" data-name="Line 128" y2="85.388" transform="translate(0.183 9.139)" fill="none" stroke="#1e3b51" stroke-miterlimit="10" stroke-width="0.368"/>
    </g>
  </g>
  <line id="Line_129" data-name="Line 129" y1="58.385" x2="0.157" transform="translate(85.415 9.139)" fill="none" stroke="#1e3b51" stroke-miterlimit="10" stroke-width="0.368"/>
  <rect id="Rectangle_2104" data-name="Rectangle 2104" width="14.231" height="14.231" transform="translate(57.109 122.99)" fill="#091d2d"/>
  <rect id="Rectangle_2105" data-name="Rectangle 2105" width="14.231" height="14.231" transform="translate(57.109 66.064)" fill="#42779b"/>
  <rect id="Rectangle_2106" data-name="Rectangle 2106" width="14.231" height="14.231" transform="translate(71.341 66.064)" fill="#091d2d"/>
  <rect id="Rectangle_2107" data-name="Rectangle 2107" width="14.231" height="28.424" transform="translate(114.035 37.563)" fill="#091d2d"/>
  <g id="Group_327" data-name="Group 327">
    <g id="Group_326" data-name="Group 326" clip-path="url(#clip-path)">
      <path id="Path_823" data-name="Path 823" d="M64.225,137.221H71.34v14.231H57.109v-7.115a7.115,7.115,0,0,1,7.116-7.116" fill="#091d2d"/>
      <rect id="Rectangle_2108" data-name="Rectangle 2108" width="14.231" height="14.231" transform="translate(71.341 137.221)" fill="#42779b"/>
      <rect id="Rectangle_2109" data-name="Rectangle 2109" width="14.231" height="14.231" transform="translate(0.183 37.602)" fill="#42779b"/>
      <path id="Path_824" data-name="Path 824" d="M7.3,51.834h7.115v14.23H.184V58.949A7.116,7.116,0,0,1,7.3,51.834" fill="#1e3b51"/>
      <rect id="Rectangle_2110" data-name="Rectangle 2110" width="14.231" height="14.231" transform="translate(14.454 51.755)" fill="#091d2d"/>
      <path id="Path_825" data-name="Path 825" d="M57.109,94.527H71.34a14.232,14.232,0,0,1,14.232,14.231V122.99H57.109Z" fill="#1e3b51"/>
      <path id="Path_826" data-name="Path 826" d="M114.035,66.064H99.8a14.231,14.231,0,0,1-14.232-14.23V37.6h28.463Z" fill="#42779b"/>
      <path id="Path_827" data-name="Path 827" d="M57.109,65.987H42.878A14.231,14.231,0,0,1,28.646,51.756V37.524H42.878A14.231,14.231,0,0,1,57.109,51.756Z" fill="#1e3b51"/>
      <path id="Path_828" data-name="Path 828" d="M28.646,51.834A14.23,14.23,0,0,0,14.42,37.6V66.064a14.23,14.23,0,0,0,14.226-14.23" fill="#42779b"/>
      <path id="Path_829" data-name="Path 829" d="M71.338,51.831A14.231,14.231,0,0,0,85.569,37.6H57.107A14.231,14.231,0,0,0,71.338,51.831" fill="#1e3b51"/>
      <path id="Path_830" data-name="Path 830" d="M142.5,51.834A14.231,14.231,0,0,0,128.272,37.6V66.064A14.23,14.23,0,0,0,142.5,51.834" fill="#42779b"/>
      <path id="Path_831" data-name="Path 831" d="M99.8,51.828A14.231,14.231,0,0,0,114.034,37.6H85.572A14.231,14.231,0,0,0,99.8,51.828" fill="#091d2d"/>
      <path id="Path_832" data-name="Path 832" d="M71.341,51.835A14.232,14.232,0,0,0,57.107,66.059l28.463.005A14.233,14.233,0,0,0,71.341,51.835" fill="#1e3b51"/>
      <path id="Path_833" data-name="Path 833" d="M71.341,108.762A14.231,14.231,0,0,0,85.575,94.537l-28.462-.005a14.231,14.231,0,0,0,14.228,14.23" fill="#091d2d"/>
      <path id="Path_834" data-name="Path 834" d="M85.569,94.534a14.232,14.232,0,0,0-28.463-.007v0l28.463.006Z" fill="#42779b"/>
      <path id="Path_835" data-name="Path 835" d="M78.453,94.549a7.116,7.116,0,0,0-14.231,0v0l14.231,0Z" fill="#091d2d"/>
      <path id="Path_836" data-name="Path 836" d="M64.221,94.555a7.116,7.116,0,0,0,14.231,0v0l-14.231,0Z" fill="#42779b"/>
      <path id="Path_837" data-name="Path 837" d="M114.035,122.99H99.8a28.462,28.462,0,0,0,28.462,28.463V137.221a14.23,14.23,0,0,1-14.231-14.231" fill="#1e3b51"/>
      <path id="Path_838" data-name="Path 838" d="M128.266,108.758V94.527A28.462,28.462,0,0,0,99.8,122.989h14.232a14.231,14.231,0,0,1,14.231-14.231" fill="#42779b"/>
      <path id="Path_839" data-name="Path 839" d="M128.266,94.527v14.231A14.233,14.233,0,0,1,142.5,122.99h14.232a28.463,28.463,0,0,0-28.463-28.463" fill="#1e3b51"/>
      <path id="Path_840" data-name="Path 840" d="M128.266,137.221v14.231a28.462,28.462,0,0,0,28.463-28.462H142.5a14.231,14.231,0,0,1-14.231,14.231" fill="#1e3b51"/>
      <rect id="Rectangle_2111" data-name="Rectangle 2111" width="14.231" height="14.231" transform="translate(142.498 137.221)" fill="#091d2d"/>
      <rect id="Rectangle_2112" data-name="Rectangle 2112" width="14.231" height="14.231" transform="translate(142.522 108.759)" fill="#42779b"/>
      <path id="Path_841" data-name="Path 841" d="M156.729,122.99h0v14.231H142.5a14.231,14.231,0,0,1,14.231-14.231" fill="#1e3b51"/>
      <path id="Path_842" data-name="Path 842" d="M142.523,122.99a7.116,7.116,0,1,0,14.231,0Z" fill="#42779b"/>
      <path id="Path_843" data-name="Path 843" d="M156.754,122.99h0a7.116,7.116,0,0,0-14.231,0v.029h14.231Z" fill="#091d2d"/>
      <path id="Path_844" data-name="Path 844" d="M156.754,151.423h0a7.116,7.116,0,0,0-14.231,0v.029h14.231Z" fill="#42779b"/>
      <rect id="Rectangle_2113" data-name="Rectangle 2113" width="14.231" height="14.231" transform="translate(142.498 94.527)" fill="#42779b"/>
      <path id="Path_845" data-name="Path 845" d="M142.523,94.527a7.116,7.116,0,1,0,14.231,0Z" fill="#091d2d"/>
      <path id="Path_846" data-name="Path 846" d="M85.572,137.221A14.232,14.232,0,0,0,71.341,122.99v14.231Z" fill="#42779b"/>
      <path id="Path_847" data-name="Path 847" d="M71.341,137.221v14.231a14.232,14.232,0,0,0,14.231-14.231Z" fill="#1e3b51"/>
      <g id="Group_307" data-name="Group 307" style="isolation: isolate">
        <g id="Group_306" data-name="Group 306">
          <g id="Group_305" data-name="Group 305" clip-path="url(#clip-path-5)">
            <g id="Group_304" data-name="Group 304" style="isolation: isolate">
              <g id="Group_303" data-name="Group 303">
                <g id="Group_302" data-name="Group 302" clip-path="url(#clip-path-5)">
                  <text id="_1_2" data-name="1/2" transform="translate(80.609 4.87)" font-size="5.693" font-family="Roboto-Light, Roboto" font-weight="300"><tspan x="0" y="0">1/2</tspan></text>
                </g>
              </g>
            </g>
          </g>
        </g>
      </g>
      <g id="Group_313" data-name="Group 313" style="isolation: isolate">
        <g id="Group_312" data-name="Group 312">
          <g id="Group_311" data-name="Group 311" clip-path="url(#clip-path-7)">
            <g id="Group_310" data-name="Group 310" style="isolation: isolate">
              <g id="Group_309" data-name="Group 309">
                <g id="Group_308" data-name="Group 308" clip-path="url(#clip-path-7)">
                  <text id="_14pt" data-name="14pt" transform="translate(174.758 96.595)" font-size="5.693" font-family="Roboto-Light, Roboto" font-weight="300"><tspan x="0" y="0">14pt</tspan></text>
                </g>
              </g>
            </g>
          </g>
        </g>
      </g>
      <g id="Group_319" data-name="Group 319" style="isolation: isolate">
        <g id="Group_318" data-name="Group 318">
          <g id="Group_317" data-name="Group 317" clip-path="url(#clip-path-9)">
            <g id="Group_316" data-name="Group 316" style="isolation: isolate">
              <g id="Group_315" data-name="Group 315">
                <g id="Group_314" data-name="Group 314" clip-path="url(#clip-path-9)">
                  <text id="T" transform="translate(4.24 152.874)" font-size="5.693" font-family="Roboto-Light, Roboto" font-weight="300"><tspan x="0" y="0">T</tspan></text>
                  <path id="Path_848" data-name="Path 848" d="M4.24,151.372Z" fill="none" stroke="#000" stroke-miterlimit="10" stroke-width="0.278"/>
                </g>
              </g>
            </g>
          </g>
        </g>
      </g>
      <g id="Group_325" data-name="Group 325" style="isolation: isolate">
        <g id="Group_324" data-name="Group 324">
          <g id="Group_323" data-name="Group 323" clip-path="url(#clip-path-11)">
            <g id="Group_322" data-name="Group 322" style="isolation: isolate">
              <g id="Group_321" data-name="Group 321">
                <g id="Group_320" data-name="Group 320" clip-path="url(#clip-path-11)">
                  <text id="_50_" data-name="50%" transform="translate(26.799 104.186)" font-size="5.693" font-family="Roboto-Light, Roboto" font-weight="300"><tspan x="0" y="0">50%</tspan></text>
                </g>
              </g>
            </g>
          </g>
        </g>
      </g>
    </g>
  </g>
</svg>
