<svg xmlns="http://www.w3.org/2000/svg" xmlns:xlink="http://www.w3.org/1999/xlink" width="367.666" height="159.111" viewBox="0 0 367.666 159.111">
  <defs>
    <clipPath id="clip-path">
      <rect id="Rectangle_2316" data-name="Rectangle 2316" width="359.673" height="104.111" transform="translate(0 0)" fill="none"/>
    </clipPath>
  </defs>
  <g id="Group_550" data-name="Group 550" transform="translate(-352.5 -1358)">
    <g id="Group_514" data-name="Group 514" transform="translate(-62.612 -3)">
      <g id="Group_441" data-name="Group 441">
        <text id="Vertical_logo" data-name="Vertical logo" transform="translate(553 1378)" font-size="16" font-family="Roboto-Bold, Roboto" font-weight="700"><tspan x="0" y="0">Vertical logo</tspan></text>
        <path id="Path_920" data-name="Path 920" d="M403.612,4841l.007-110.222H507.263" transform="translate(12 -3359)" fill="none" stroke="#7e7f7f" stroke-width="1"/>
        <path id="Path_921" data-name="Path 921" d="M503.279,4841l-.015-110.222H399.619" transform="translate(279 -3359)" fill="none" stroke="#7e7f7f" stroke-width="1"/>
      </g>
    </g>
    <g id="Group_522" data-name="Group 522" transform="translate(357 1413)">
      <path id="Path_1101" data-name="Path 1101" d="M53.763,24.671,60.387,31.3l6.625-6.624-6.625-6.625Zm-4.427,0L60.387,13.618,71.439,24.67,60.387,35.722ZM24.669,0,0,24.67,24.667,49.342,42.528,31.481,60.387,49.342,78.252,31.477,96.119,49.342l15.65-15.65L93.909,15.831l2.212-2.213,17.86,17.863,6.81-6.809L96.121,0l-15.65,15.65,17.86,17.863-2.212,2.212L60.392.007,24.672,35.728,13.62,24.676,24.672,13.624l2.212,2.213-8.839,8.839L24.669,31.3l15.65-15.65Z" fill="#ef0b1e"/>
      <g id="Group_521" data-name="Group 521">
        <g id="Group_520" data-name="Group 520" clip-path="url(#clip-path)">
          <path id="Path_1102" data-name="Path 1102" d="M11.692,100.339q-5.774,0-8.733-2.821T0,89.166V69.83H6.929V87.115Q6.929,90.6,8,92.031a4.323,4.323,0,0,0,3.69,1.433,4.279,4.279,0,0,0,3.654-1.433Q16.42,90.6,16.42,87.115V69.83h6.964V89.166q0,5.532-2.959,8.352t-8.733,2.821"/>
          <rect id="Rectangle_2314" data-name="Rectangle 2314" width="6.964" height="29.928" transform="translate(30.403 69.83)"/>
          <path id="Path_1103" data-name="Path 1103" d="M39.948,104.111l14.868-35.55h5.647L45.6,104.111Z"/>
          <path id="Path_1104" data-name="Path 1104" d="M74.247,100.339q-5.773,0-8.733-2.821t-2.959-8.352V69.83h6.929V87.115q0,3.485,1.073,4.916a4.323,4.323,0,0,0,3.69,1.433A4.276,4.276,0,0,0,77.9,92.031q1.075-1.433,1.075-4.916V69.83h6.964V89.166q0,5.532-2.959,8.352t-8.733,2.821"/>
          <path id="Path_1105" data-name="Path 1105" d="M88.771,99.758l11.241-16.125L90.63,69.83h8.282l5.395,8.018,5.359-8.018h8.282l-9.383,13.8,11.259,16.125h-8.606l-6.911-10.03-6.929,10.03Z"/>
          <path id="Path_1106" data-name="Path 1106" d="M140.213,100.339a18,18,0,0,1-3.734-.372,17.494,17.494,0,0,1-3.185-.98,19.711,19.711,0,0,1-2.526-1.269,11.873,11.873,0,0,1-1.759-1.261l3.482-5.877q.722.526,1.606,1.107a16.059,16.059,0,0,0,1.912,1.07,13.045,13.045,0,0,0,2.147.8,8.438,8.438,0,0,0,2.256.308,5.088,5.088,0,0,0,1.867-.308,2.555,2.555,0,0,0,1.21-.925,2.629,2.629,0,0,0,.423-1.523,2.848,2.848,0,0,0-.387-1.506,4.015,4.015,0,0,0-1.183-1.179,14.957,14.957,0,0,0-2.011-1.124q-1.218-.58-2.878-1.343a14.113,14.113,0,0,1-2.292-1.315,9.519,9.519,0,0,1-1.849-1.7,7.353,7.353,0,0,1-1.227-2.094,6.892,6.892,0,0,1-.443-2.494,8.2,8.2,0,0,1,.722-3.373,9.434,9.434,0,0,1,2.04-2.9,9.7,9.7,0,0,1,3.166-2.04,10.81,10.81,0,0,1,4.1-.753,14.544,14.544,0,0,1,3.239.381,19.565,19.565,0,0,1,3.185,1.016,12.57,12.57,0,0,1,2.6,1.433l-2.815,5.569a11.579,11.579,0,0,0-1.858-1.062,11.232,11.232,0,0,0-2.084-.716,9.075,9.075,0,0,0-2.085-.255,4.7,4.7,0,0,0-1.822.319,2.626,2.626,0,0,0-1.164.888,2.241,2.241,0,0,0-.406,1.333,1.971,1.971,0,0,0,.235.98,2.083,2.083,0,0,0,.712.725,8.459,8.459,0,0,0,1.21.626q.729.318,1.668.753,2.237.942,3.961,1.868a14.394,14.394,0,0,1,2.9,2,7.246,7.246,0,0,1,1.786,2.485,8.309,8.309,0,0,1,.613,3.319,8.948,8.948,0,0,1-1.4,5.052,8.848,8.848,0,0,1-3.942,3.228,14.824,14.824,0,0,1-5.991,1.116"/>
          <path id="Path_1107" data-name="Path 1107" d="M169.642,100.339a14.359,14.359,0,0,1-5.847-1.2,14.876,14.876,0,0,1-4.781-3.328,15.911,15.911,0,0,1,0-22,14.892,14.892,0,0,1,4.781-3.328,14.865,14.865,0,0,1,11.693,0,14.914,14.914,0,0,1,4.781,3.328,15.909,15.909,0,0,1,0,22,14.9,14.9,0,0,1-4.781,3.328,14.358,14.358,0,0,1-5.846,1.2m-.018-6.747a7.328,7.328,0,0,0,3.058-.626,6.791,6.791,0,0,0,2.381-1.8,8.386,8.386,0,0,0,1.552-2.783,11.867,11.867,0,0,0,0-7.148,8.406,8.406,0,0,0-1.552-2.783,6.8,6.8,0,0,0-2.381-1.8,7.328,7.328,0,0,0-3.058-.626,7.217,7.217,0,0,0-3.032.626,6.823,6.823,0,0,0-2.372,1.8,8.388,8.388,0,0,0-1.552,2.783,11.867,11.867,0,0,0,0,7.148,8.368,8.368,0,0,0,1.552,2.783,6.814,6.814,0,0,0,2.372,1.8,7.217,7.217,0,0,0,3.032.626"/>
          <path id="Path_1108" data-name="Path 1108" d="M189.9,99.758V69.83h6.965V93.61h10.158v6.148Z"/>
          <path id="Path_1109" data-name="Path 1109" d="M222.183,100.339q-5.773,0-8.733-2.821t-2.959-8.352V69.83h6.929V87.115q0,3.485,1.073,4.916a4.323,4.323,0,0,0,3.69,1.433,4.279,4.279,0,0,0,3.654-1.433q1.074-1.433,1.074-4.916V69.83h6.964V89.166q0,5.532-2.959,8.352t-8.733,2.821"/>
          <path id="Path_1110" data-name="Path 1110" d="M242.609,99.758V75.98h-7V69.83h20.93v6.15h-6.983V99.758Z"/>
          <rect id="Rectangle_2315" data-name="Rectangle 2315" width="6.964" height="29.928" transform="translate(260.525 69.83)"/>
          <path id="Path_1111" data-name="Path 1111" d="M287.771,100.339a14.359,14.359,0,0,1-5.847-1.2,14.887,14.887,0,0,1-4.781-3.328,15.911,15.911,0,0,1,0-22,14.9,14.9,0,0,1,4.781-3.328,14.865,14.865,0,0,1,11.693,0,14.9,14.9,0,0,1,4.781,3.328,15.909,15.909,0,0,1,0,22,14.887,14.887,0,0,1-4.781,3.328,14.358,14.358,0,0,1-5.846,1.2m-.018-6.747a7.328,7.328,0,0,0,3.058-.626,6.791,6.791,0,0,0,2.381-1.8,8.385,8.385,0,0,0,1.552-2.783,11.866,11.866,0,0,0,0-7.148,8.4,8.4,0,0,0-1.552-2.783,6.8,6.8,0,0,0-2.381-1.8,7.328,7.328,0,0,0-3.058-.626,7.217,7.217,0,0,0-3.032.626,6.832,6.832,0,0,0-2.372,1.8,8.388,8.388,0,0,0-1.552,2.783,11.867,11.867,0,0,0,0,7.148,8.368,8.368,0,0,0,1.552,2.783,6.823,6.823,0,0,0,2.372,1.8,7.217,7.217,0,0,0,3.032.626"/>
          <path id="Path_1112" data-name="Path 1112" d="M308.032,99.758V69.83H315l11.692,18.3V69.83h6.965V99.758h-6.965L315,81.456v18.3Z"/>
          <path id="Path_1113" data-name="Path 1113" d="M348.341,100.339a18,18,0,0,1-3.734-.372,17.494,17.494,0,0,1-3.185-.98,19.712,19.712,0,0,1-2.526-1.269,11.874,11.874,0,0,1-1.759-1.261l3.482-5.877q.722.526,1.606,1.107a16.058,16.058,0,0,0,1.912,1.07,13.045,13.045,0,0,0,2.147.8,8.438,8.438,0,0,0,2.256.308,5.088,5.088,0,0,0,1.867-.308,2.555,2.555,0,0,0,1.21-.925,2.629,2.629,0,0,0,.423-1.523,2.848,2.848,0,0,0-.387-1.506,4.016,4.016,0,0,0-1.183-1.179,14.96,14.96,0,0,0-2.011-1.124q-1.218-.58-2.878-1.343a14.113,14.113,0,0,1-2.292-1.315,9.519,9.519,0,0,1-1.849-1.7,7.352,7.352,0,0,1-1.227-2.094,6.891,6.891,0,0,1-.442-2.494,8.2,8.2,0,0,1,.721-3.373,9.433,9.433,0,0,1,2.04-2.9,9.707,9.707,0,0,1,3.166-2.04,10.81,10.81,0,0,1,4.105-.753,14.544,14.544,0,0,1,3.239.381,19.564,19.564,0,0,1,3.185,1.016,12.57,12.57,0,0,1,2.6,1.433l-2.815,5.569a11.535,11.535,0,0,0-1.858-1.062,11.232,11.232,0,0,0-2.084-.716,9.075,9.075,0,0,0-2.085-.255,4.7,4.7,0,0,0-1.822.319,2.626,2.626,0,0,0-1.164.888,2.241,2.241,0,0,0-.406,1.333,1.972,1.972,0,0,0,.235.98,2.092,2.092,0,0,0,.712.725,8.461,8.461,0,0,0,1.21.626q.729.318,1.668.753,2.237.942,3.961,1.868a14.366,14.366,0,0,1,2.9,2,7.246,7.246,0,0,1,1.786,2.485,8.309,8.309,0,0,1,.614,3.319,8.94,8.94,0,0,1-1.4,5.052,8.848,8.848,0,0,1-3.942,3.228,14.824,14.824,0,0,1-5.991,1.116"/>
        </g>
      </g>
    </g>
  </g>
</svg>
