<svg id="logo" xmlns="http://www.w3.org/2000/svg" width="50.497" height="20.629" viewBox="0 0 50.497 20.629">
  <path id="Path_1" data-name="Path 1" d="M74.979,22.892l2.77,2.77-2.77,2.768-2.77-2.768Zm7.468,5.614-7.468,7.469-7.467-7.467-7.467,7.467L49.732,25.662,60.045,15.348l6.541,6.542-6.541,6.541-2.77-2.769,3.7-3.7-.926-.926-4.62,4.621,4.62,4.62L74.979,15.348,89.916,30.281l.926-.926-7.467-7.467,6.541-6.542L100.229,25.66l-2.846,2.846-7.467-7.468-.925.926,7.467,7.467-6.543,6.543ZM79.6,25.662l-4.62-4.621-4.62,4.621,4.62,4.62Z" transform="translate(-49.732 -15.346)"/>
</svg>
